<svg height="512pt" viewBox="0 0 512 512" width="512pt" xmlns="http://www.w3.org/2000/svg"><path d="m90 467c0 24.851562-20.148438 45-45 45s-45-20.148438-45-45 20.148438-45 45-45 45 20.148438 45 45zm0 0"/><path d="m120.246094 306.898438 21.214844 21.214843-21.214844 21.214844 42.425781 42.425781 21.214844-21.214844 21.210937 21.214844 21.214844-21.214844-84.851562-84.851562zm0 0"/><path d="m72.324219 397.246094c9.363281 3.65625 18.160156 9.167968 25.707031 16.722656 7.550781 7.546875 13.066406 16.34375 16.71875 25.707031l26.710938-26.707031-42.429688-42.429688zm0 0"/><path d="m181.355469 283.15625 46.980469 46.980469 256.328124-219.441407 27.335938-110.695312-112.1875 25.84375zm0 0"/><path d="m512 467c0 24.851562-20.148438 45-45 45s-45-20.148438-45-45 20.148438-45 45-45 45 20.148438 45 45zm0 0"/><path d="m370.539062 285.6875-84.851562 84.851562 21.214844 21.214844 21.210937-21.214844 21.214844 21.214844 42.425781-42.425781-21.214844-21.214844 21.214844-21.214843zm0 0"/><path d="m412.96875 370.539062-42.429688 42.429688 26.710938 26.707031c3.652344-9.363281 9.167969-18.160156 16.71875-25.707031 7.546875-7.554688 16.34375-13.066406 25.707031-16.722656zm0 0"/><path d="m178.492188 240.160156 57.835937-68.171875-124.140625-146.144531-112.1875-25.84375 27.335938 110.695312zm0 0"/></svg>