<?xml version="1.0" encoding="UTF-8"?>
<svg xmlns="http://www.w3.org/2000/svg" xmlns:xlink="http://www.w3.org/1999/xlink" width="24pt" height="24pt" viewBox="0 0 24 24" version="1.1">
<defs>
<radialGradient id="radial0" gradientUnits="userSpaceOnUse" cx="158.429" cy="578.088" fx="158.429" fy="578.088" r="65" gradientTransform="matrix(0,-0.36036,0.335255,0,-187.345091,82.728)">
<stop offset="0" style="stop-color:rgb(100%,86.666667%,33.333333%);stop-opacity:1;"/>
<stop offset="0.1" style="stop-color:rgb(100%,86.666667%,33.333333%);stop-opacity:1;"/>
<stop offset="0.5" style="stop-color:rgb(100%,32.941176%,24.313725%);stop-opacity:1;"/>
<stop offset="1" style="stop-color:rgb(78.431373%,21.568627%,67.058824%);stop-opacity:1;"/>
</radialGradient>
<radialGradient id="radial1" gradientUnits="userSpaceOnUse" cx="147.694" cy="473.455" fx="147.694" fy="473.455" r="65" gradientTransform="matrix(0.0316255,0.157949,-0.651236,0.130396,299.882182,-83.180545)">
<stop offset="0" style="stop-color:rgb(21.568627%,44.313725%,78.431373%);stop-opacity:1;"/>
<stop offset="0.128" style="stop-color:rgb(21.568627%,44.313725%,78.431373%);stop-opacity:1;"/>
<stop offset="1" style="stop-color:rgb(40%,0%,100%);stop-opacity:0;"/>
</radialGradient>
</defs>
<g id="surface1">
<path style=" stroke:none;fill-rule:nonzero;fill:url(#radial0);" d="M 12.007812 0.183594 C 7.070312 0.183594 5.628906 0.1875 5.347656 0.210938 C 4.335938 0.292969 3.703125 0.453125 3.019531 0.796875 C 2.488281 1.058594 2.070312 1.363281 1.660156 1.789062 C 0.910156 2.570312 0.457031 3.527344 0.289062 4.664062 C 0.210938 5.21875 0.1875 5.332031 0.183594 8.152344 C 0.179688 9.09375 0.183594 10.332031 0.183594 11.996094 C 0.183594 16.925781 0.1875 18.367188 0.210938 18.648438 C 0.292969 19.632812 0.449219 20.253906 0.777344 20.929688 C 1.402344 22.230469 2.59375 23.203125 4.003906 23.566406 C 4.488281 23.691406 5.027344 23.761719 5.71875 23.792969 C 6.011719 23.808594 8.996094 23.816406 11.980469 23.816406 C 14.964844 23.816406 17.953125 23.8125 18.238281 23.796875 C 19.039062 23.761719 19.5 23.699219 20.015625 23.566406 C 21.433594 23.199219 22.605469 22.238281 23.242188 20.921875 C 23.5625 20.261719 23.726562 19.617188 23.800781 18.683594 C 23.816406 18.480469 23.824219 15.234375 23.824219 11.992188 C 23.824219 8.75 23.816406 5.507812 23.800781 5.304688 C 23.726562 4.355469 23.5625 3.714844 23.230469 3.042969 C 22.960938 2.488281 22.65625 2.078125 22.21875 1.65625 C 21.4375 0.910156 20.480469 0.453125 19.339844 0.289062 C 18.789062 0.210938 18.679688 0.1875 15.851562 0.183594 Z M 12.007812 0.183594 "/>
<path style=" stroke:none;fill-rule:nonzero;fill:url(#radial1);" d="M 12.007812 0.183594 C 7.070312 0.183594 5.628906 0.1875 5.347656 0.210938 C 4.335938 0.292969 3.703125 0.453125 3.019531 0.796875 C 2.488281 1.058594 2.070312 1.363281 1.660156 1.789062 C 0.910156 2.570312 0.457031 3.527344 0.289062 4.664062 C 0.210938 5.21875 0.1875 5.332031 0.183594 8.152344 C 0.179688 9.09375 0.183594 10.332031 0.183594 11.996094 C 0.183594 16.925781 0.1875 18.367188 0.210938 18.648438 C 0.292969 19.632812 0.449219 20.253906 0.777344 20.929688 C 1.402344 22.230469 2.59375 23.203125 4.003906 23.566406 C 4.488281 23.691406 5.027344 23.761719 5.71875 23.792969 C 6.011719 23.808594 8.996094 23.816406 11.980469 23.816406 C 14.964844 23.816406 17.953125 23.8125 18.238281 23.796875 C 19.039062 23.761719 19.5 23.699219 20.015625 23.566406 C 21.433594 23.199219 22.605469 22.238281 23.242188 20.921875 C 23.5625 20.261719 23.726562 19.617188 23.800781 18.683594 C 23.816406 18.480469 23.824219 15.234375 23.824219 11.992188 C 23.824219 8.75 23.816406 5.507812 23.800781 5.304688 C 23.726562 4.355469 23.5625 3.714844 23.230469 3.042969 C 22.960938 2.488281 22.65625 2.078125 22.21875 1.65625 C 21.4375 0.910156 20.480469 0.453125 19.339844 0.289062 C 18.789062 0.210938 18.679688 0.1875 15.851562 0.183594 Z M 12.007812 0.183594 "/>
<path style=" stroke:none;fill-rule:nonzero;fill:rgb(100%,100%,100%);fill-opacity:1;" d="M 12 3.273438 C 9.628906 3.273438 9.332031 3.28125 8.402344 3.324219 C 7.472656 3.367188 6.839844 3.515625 6.285156 3.730469 C 5.710938 3.953125 5.222656 4.253906 4.738281 4.738281 C 4.253906 5.222656 3.953125 5.710938 3.730469 6.28125 C 3.515625 6.839844 3.367188 7.472656 3.324219 8.402344 C 3.285156 9.332031 3.273438 9.628906 3.273438 12 C 3.273438 14.371094 3.285156 14.667969 3.324219 15.597656 C 3.367188 16.527344 3.515625 17.160156 3.730469 17.714844 C 3.953125 18.289062 4.253906 18.777344 4.738281 19.261719 C 5.222656 19.746094 5.710938 20.046875 6.28125 20.269531 C 6.839844 20.484375 7.472656 20.632812 8.402344 20.675781 C 9.332031 20.71875 9.628906 20.726562 12 20.726562 C 14.371094 20.726562 14.667969 20.71875 15.597656 20.675781 C 16.527344 20.632812 17.160156 20.484375 17.714844 20.269531 C 18.289062 20.046875 18.777344 19.746094 19.261719 19.261719 C 19.746094 18.777344 20.046875 18.289062 20.269531 17.714844 C 20.484375 17.160156 20.628906 16.527344 20.675781 15.597656 C 20.714844 14.667969 20.726562 14.371094 20.726562 12 C 20.726562 9.628906 20.714844 9.332031 20.675781 8.402344 C 20.628906 7.472656 20.484375 6.839844 20.269531 6.285156 C 20.046875 5.710938 19.746094 5.222656 19.261719 4.738281 C 18.777344 4.25 18.289062 3.953125 17.714844 3.730469 C 17.160156 3.515625 16.523438 3.367188 15.597656 3.324219 C 14.664062 3.28125 14.367188 3.273438 11.996094 3.273438 Z M 11.21875 4.84375 C 11.449219 4.84375 11.710938 4.84375 12 4.84375 C 14.332031 4.84375 14.605469 4.855469 15.527344 4.894531 C 16.378906 4.933594 16.839844 5.078125 17.148438 5.195312 C 17.554688 5.355469 17.84375 5.542969 18.152344 5.847656 C 18.457031 6.15625 18.644531 6.445312 18.804688 6.851562 C 18.921875 7.160156 19.066406 7.621094 19.105469 8.472656 C 19.144531 9.390625 19.15625 9.667969 19.15625 11.996094 C 19.15625 14.328125 19.144531 14.601562 19.105469 15.523438 C 19.066406 16.375 18.921875 16.835938 18.804688 17.144531 C 18.644531 17.550781 18.457031 17.839844 18.152344 18.144531 C 17.84375 18.453125 17.554688 18.640625 17.148438 18.796875 C 16.839844 18.917969 16.378906 19.058594 15.527344 19.097656 C 14.605469 19.140625 14.332031 19.148438 12 19.148438 C 9.671875 19.148438 9.394531 19.140625 8.472656 19.097656 C 7.625 19.058594 7.160156 18.917969 6.855469 18.796875 C 6.445312 18.640625 6.15625 18.453125 5.851562 18.144531 C 5.542969 17.839844 5.355469 17.550781 5.195312 17.144531 C 5.078125 16.835938 4.933594 16.375 4.894531 15.523438 C 4.855469 14.601562 4.847656 14.328125 4.847656 11.996094 C 4.847656 9.664062 4.855469 9.390625 4.894531 8.46875 C 4.933594 7.621094 5.078125 7.15625 5.195312 6.851562 C 5.355469 6.441406 5.542969 6.152344 5.851562 5.847656 C 6.15625 5.539062 6.445312 5.351562 6.855469 5.191406 C 7.160156 5.074219 7.625 4.929688 8.472656 4.890625 C 9.277344 4.855469 9.589844 4.84375 11.21875 4.84375 Z M 16.660156 6.292969 C 16.082031 6.292969 15.613281 6.761719 15.613281 7.339844 C 15.613281 7.917969 16.082031 8.390625 16.660156 8.390625 C 17.238281 8.390625 17.707031 7.917969 17.707031 7.339844 C 17.707031 6.761719 17.238281 6.292969 16.660156 6.292969 Z M 12 7.519531 C 9.527344 7.519531 7.519531 9.523438 7.519531 12 C 7.519531 14.476562 9.527344 16.480469 12 16.480469 C 14.476562 16.480469 16.480469 14.476562 16.480469 12 C 16.480469 9.523438 14.476562 7.519531 12 7.519531 Z M 12 9.089844 C 13.605469 9.089844 14.910156 10.394531 14.910156 12 C 14.910156 13.605469 13.605469 14.910156 12 14.910156 C 10.394531 14.910156 9.089844 13.605469 9.089844 12 C 9.089844 10.394531 10.394531 9.089844 12 9.089844 Z M 12 9.089844 "/>
</g>
</svg>
