<svg id="Outline" enable-background="new 0 0 512 512" height="512" viewBox="0 0 512 512" width="512" xmlns="http://www.w3.org/2000/svg"><g><path d="m454.4306641 296.1552734-36.75 7.3500977-18.2666016-12.1777344-7.4941406-52.4589844c-.4287109-2.9995117-2.515625-5.5-5.3896484-6.4580078-2.8740234-.9584961-6.0429688-.2104492-8.1875 1.9326172l-36.6708984 36.6713867-32.1330566-9.1809082-12.7351074-73.8573608 19.8876953-3.3145752c5.6289061 9.1915283 15.7636717 15.3381958 27.3085936 15.3381958 17.6445313 0 32-14.3549805 32-32s-14.3554688-32-32-32c-11.5449219 0-21.6796875 6.1466675-27.3085938 15.3381958l-34.2766113-5.7127686c7.2143555-22.7675781 7.463623-41.3826294 1.3967285-67.1947632-.1464844-.6254883-.3710938-1.2299805-.6669922-1.800293l-3.6181641-6.9675293c5.2561036-5.7037963 8.4736329-13.3134765 8.4736329-21.6628417 0-17.6450195-14.3554688-32-32-32s-32 14.3549805-32 32c0 8.3493652 3.2175293 15.9590454 8.4736328 21.6628418l-3.6181641 6.9675293c-.2958984.5703125-.5205078 1.1748047-.6669922 1.800293-6.0668945 25.8121338-5.817627 44.4271851 1.3967285 67.1947632l-34.2766113 5.7127686c-5.6289062-9.1915284-15.7636718-15.3381959-27.3085937-15.3381959-17.6445313 0-32 14.3549805-32 32s14.3554688 32 32 32c11.5449219 0 21.6796875-6.1466675 27.3085938-15.3381958l19.8876953 3.3145752-12.7351074 73.8573608-32.1330566 9.1809082-36.6708984-36.6713867c-2.1435547-2.1430664-5.3115234-2.8896484-8.1875-1.9326172-2.8740234.9580078-4.9609375 3.4584961-5.3896484 6.4580078l-7.4941406 52.4589844-18.2666016 12.1777344-36.75-7.3500977c-3.2236328-.644043-6.5048828.7441406-8.2871094 3.5009766s-1.7001953 6.3222656.2080078 8.9936523l39.9643555 55.9501953c1.8369141 2.645752 22.5991211 30.5870361 87.6862793 44.0994873l-1.0236816 5.9381104c-.4433594 2.5625.3867188 5.1801758 2.2255859 7.019043l72 72c1.5624998 1.5620117 3.6093748 2.3432617 5.6572264 2.3432617s4.0947266-.78125 5.6572266-2.3432617l72-72c1.8388672-1.8388672 2.6689453-4.456543 2.2255859-7.019043l-1.0236816-5.9381104c65.0871582-13.5124512 85.8493652-41.4537354 87.6862793-44.0994873l39.9643555-55.9501953c1.9082031-2.6713867 1.9902344-6.2368164.2080078-8.9936523s-5.0664063-4.1450195-8.2871094-3.5009766zm-206.1875-90.7060546-28.3901367 49.6831665 10.8852539-63.1323853h9.2617187 8.2431641zm15.5136718-13.4492188h8.2431641 9.2617188l10.8852539 63.1323853-28.3901367-49.6831665v-13.4492188zm80.2431641-40c8.8222656 0 16 7.1777344 16 16s-7.1777344 16-16 16-16-7.1777344-16-16 7.1777344-16 16-16zm-100.9267578-69.0864258 1.6386719-3.1567383h7.4118652c1.2717285.1543579 2.5634766.2431641 3.8762207.2431641s2.6044922-.0888062 3.8762207-.2431641h7.4118652l1.6386719 3.1567383c5.4506836 23.6575317 4.9262695 39.861084-2.2993164 61.0864258h-21.2548828c-7.2255859-21.2253418-7.75-37.428894-2.2993164-61.0864258zm12.9267578-50.9135742c8.8222656 0 16 7.1777344 16 16s-7.1777344 16-16 16-16-7.1777344-16-16 7.1777344-16 16-16zm-88 152c-8.8222656 0-16-7.1777344-16-16s7.1777344-16 16-16 16 7.1777344 16 16-7.1777344 16-16 16zm32-17.2231445 40.6621094-6.7768555h30.6757813l40.6621093 6.7768555v2.4462891l-40.6621094 6.7768554h-30.6757813l-40.6621093-6.7768555zm-91.7944336 194.588623c3.6750488-2.3913574 7.4125977-4.6564941 11.206543-6.798584 8.2253418 6.1314697 25.9321289 13.5672607 63.9934082 17.7901611l-3.5449219 20.5650635c-41.4301758-8.6956787-62.6081543-23.4082031-71.6550293-31.5566406zm213.1198731-31.1767578c18.9365234 2.7636719 37.302002 8.1291504 54.6916504 15.9760742-8.1176758 3.5307617-23.0793457 7.9492188-50.0627441 10.876709zm-16.5358887-1.7397461 11.8781738 68.9108887-52.9108887-41.152832v-8.6499023l19.5566407-19.557129h7.8681641c4.5581054 0 9.0947265.15625 13.6079101.4489746zm-56.5463867 27.7580567-52.9108887 41.152832 11.8781738-68.9108887c4.5131836-.2927246 9.0498047-.4489746 13.6079102-.4489746h7.8681641l19.5566406 19.5571289zm-62.1975098.8344726c-26.982666-2.9274902-41.9440918-7.3458252-50.0625-10.8768311 17.3894043-7.8468018 35.7548828-13.2122803 54.6914063-15.9759521zm69.9543457 119.6445313-60.1088867-60.1083984 60.1088867-46.7509766 60.1088867 46.7509766zm72.5944824-104.3289795c38.0639648-4.2232666 55.7705078-11.6595459 63.9938965-17.789917 3.7937012 2.1420898 7.53125 4.4071045 11.2060547 6.7983398-9.046875 8.1484375-30.2248535 22.8609619-71.6550293 31.5566406zm85.4641114-23.4024659c-36.5410157-24.2026367-78.8515625-36.9545898-122.8769532-36.9545898h-11.1816406c-2.1220703 0-4.15625.8427734-5.6572266 2.3432617l-18.3427734 18.3432617-18.3427734-18.3432617c-1.5009766-1.5004883-3.5351563-2.3432617-5.6572266-2.3432617h-11.1816406c-44.0253906 0-86.3359375 12.7519531-122.8769531 36.9545898l-23.6728516-33.1425781 20.1621094 4.0327148c2.0771484.4145508 4.2421875-.0112305 6.0068359-1.1884766l24-16c1.8935547-1.262207 3.1601563-3.2719727 3.4824219-5.5249023l5.7373047-40.1606445 28.6855469 28.6860352c2.0546875 2.0546875 5.0566406 2.8359375 7.8554688 2.0356445l56-16c2.0078125-.5737305 3.7119141-1.9101563 4.7480469-3.7231445l25.0537108-43.8447266 25.0537109 43.8447266c1.0361328 1.8129883 2.7402344 3.1494141 4.7480469 3.7231445l56 16c2.7998047.800293 5.8017578.019043 7.8554688-2.0356445l28.6855469-28.6860352 5.7373047 40.1606445c.3222656 2.2529297 1.5888672 4.2626953 3.4824219 5.5249023l24 16c1.765625 1.1772461 3.9277344 1.6035156 6.0068359 1.1884766l20.1621094-4.0327148z"/><path d="m128 128c17.6445313 0 32-14.3549805 32-32 0-14.8867188-10.2197266-27.4321289-24.0107422-30.9902344.006836-.336914.0107422-.6733398.0107422-1.0097656 0-26.4672852-21.5322266-48-48-48-21.5546875 0-40.2011719 14.2563477-46.0869141 34.543457-15.4833984 5.7739258-25.9130859 20.5244141-25.9130859 37.456543 0 22.0561523 17.9443359 40 40 40zm-96-40c0-11.1982422 7.5957031-20.8051758 18.4716797-23.3623047 3.1025391-.7294922 5.4765625-3.230957 6.0419922-6.3676758 2.7451172-15.2216797 15.9873047-26.2700195 31.4863281-26.2700195 17.6445313 0 32 14.3549805 32 32 0 2.1489258-.2167969 4.3178711-.6435547 6.4467773-.4931641 2.456543.1513672 5.0043945 1.8125 6.8798828 1.6621094 1.8764648 4.0693359 2.8613281 6.5615234 2.6748047l.2695313-.0014648c8.8222656 0 16 7.1777344 16 16s-7.1777344 16-16 16h-72c-13.2333984 0-24-10.7661133-24-24z"/><path d="m440 16c-26.4677734 0-48 21.5327148-48 48-6.4023438 0-12.4287109 2.4907227-16.9873047 7.0332031-4.5224609 4.5385742-7.0126953 10.5639649-7.0126953 16.9667969 0 13.2333984 10.7666016 24 24 24h48c26.4677734 0 48-21.5327148 48-48s-21.5322266-48-48-48zm0 80h-48c-4.4111328 0-8-3.5888672-8-8 0-2.1396484.8330078-4.1542969 2.3261719-5.652832 1.5195312-1.5136719 3.5341797-2.347168 5.6738281-2.347168h8.7998047c2.3974609 0 4.6689453-1.0751953 6.1884766-2.9296875 1.5195313-1.8549805 2.1269531-4.2929688 1.6552734-6.6435547-.4267578-2.1289062-.6435547-4.2910156-.6435547-6.4267578 0-17.6450195 14.3554688-32 32-32s32 14.3549805 32 32-14.3554687 32-32 32z"/></g></svg>