<svg xmlns="http://www.w3.org/2000/svg" viewBox="0 0 18.29 17.81"><title>Asset 3</title><g id="a538a5f1-4855-4d6f-b5d8-e05d7692162e" data-name="Layer 2"><g id="aaa56eb3-7281-4aa1-b783-3abd4740cb48" data-name="OBJECTS"><ellipse cx="9.15" cy="8.91" rx="9.15" ry="8.91" style="fill:none"/><path d="M9,5a.57.57,0,0,0-.43-.2c-.25,0-.44.16-.56.47l-2,5.5L4,5.23a.77.77,0,0,0-.25-.35.55.55,0,0,0-.35-.12A.54.54,0,0,0,3,5a.68.68,0,0,0-.17.45,1.69,1.69,0,0,0,.06.39l2.51,6.77a.75.75,0,0,0,.27.37.47.47,0,0,0,.38.1.53.53,0,0,0,.32-.15.74.74,0,0,0,.22-.32l2.5-6.77a1.1,1.1,0,0,0,.1-.39A.69.69,0,0,0,9,5Z" style="fill:#424242"/><path d="M15.13,9.48a2.34,2.34,0,0,0-.93-.72,7.78,7.78,0,0,0-1.37-.46,6.22,6.22,0,0,1-1.42-.5A.88.88,0,0,1,10.93,7a.84.84,0,0,1,.42-.8,2.07,2.07,0,0,1,1-.23,2.76,2.76,0,0,1,1.05.19,2.24,2.24,0,0,1,.81.57.6.6,0,0,0,.45.18.61.61,0,0,0,.4-.14.67.67,0,0,0,.25-.47.69.69,0,0,0-.19-.44A2.8,2.8,0,0,0,13.91,5a4.1,4.1,0,0,0-1.49-.28A3.64,3.64,0,0,0,11,5.05a2.55,2.55,0,0,0-1.06.81,1.86,1.86,0,0,0-.4,1.19,1.89,1.89,0,0,0,.4,1.26,2.59,2.59,0,0,0,1,.73,11.5,11.5,0,0,0,1.46.47A5.34,5.34,0,0,1,13.7,10a.87.87,0,0,1,.46.78.86.86,0,0,1-.46.82,2.33,2.33,0,0,1-1,.26,2.86,2.86,0,0,1-1.29-.26,3.4,3.4,0,0,1-1-.77.73.73,0,0,0-.51-.23.61.61,0,0,0-.36.11.61.61,0,0,0-.33.52.72.72,0,0,0,.14.41,3.4,3.4,0,0,0,1.41,1.06,5,5,0,0,0,1.83.33A3.74,3.74,0,0,0,14,12.77a2.73,2.73,0,0,0,1.1-.8,1.94,1.94,0,0,0,.42-1.24A2,2,0,0,0,15.13,9.48Z" style="fill:#424242"/></g></g></svg>