<svg xmlns="http://www.w3.org/2000/svg" viewBox="0 0 103.99 52.47"><title>Asset 1</title><g id="b01647d9-ac0a-40ce-a14f-d6f085bf909e" data-name="Layer 2"><g id="aa214bb0-5595-4bfc-af9f-984f6049b8ac" data-name="OBJECTS"><path d="M102.7,22.76l-17-19.62a5.31,5.31,0,0,0-8,7l14,16.15-14,16.14a5.3,5.3,0,1,0,8,6.95l17-19.61A5.32,5.32,0,0,0,102.7,22.76Z" style="fill:#fff"/><path d="M18.31,49.33,1.3,29.72a5.32,5.32,0,0,1,0-7l17-19.62a5.3,5.3,0,1,1,8,7l-14,16.15,14,16.14a5.31,5.31,0,0,1-4,8.78" style="fill:#fff"/><path d="M63.38.46A5.2,5.2,0,0,0,59.71.23a5.25,5.25,0,0,0-3.28,2.9L46.56,25.52h0L37.93,45a5.31,5.31,0,0,0,6.36,7.25,5.22,5.22,0,0,0,3.27-2.91L57.43,27h0L66.06,7.47A5.34,5.34,0,0,0,63.38.46Z" style="fill:#fff"/></g></g></svg>
