<svg xmlns="http://www.w3.org/2000/svg" viewBox="0 0 18.3 17.82"><g id="f0413406-5df8-4146-9a6d-79054edf3623" data-name="Layer 2"><g id="a1f3f524-0b6d-45fa-8b37-7a0ec17bbae4" data-name="Layer 1"><g id="b8fab909-9bea-421b-b401-3b710088295e" data-name="a538a5f1-4855-4d6f-b5d8-e05d7692162e"><g id="aa8bd76e-9a4a-4da2-89b5-c5a97cd19dc5" data-name="aaa56eb3-7281-4aa1-b783-3abd4740cb48"><ellipse cx="9.15" cy="8.91" rx="9.15" ry="8.91" style="fill:none"/><path d="M7,9.79l1.39-4h1.6L7.77,11.52H6.12L4,5.77h1.6Z" style="fill:#1d1d1d"/><path d="M9.42,11.47c1.5.08,2.51.12,3,.12a.41.41,0,0,0,.3-.11.4.4,0,0,0,.11-.3v-.74H11a1.72,1.72,0,0,1-1.25-.39A1.72,1.72,0,0,1,9.34,8.8V8.55A1.7,1.7,0,0,1,9.73,7.3,1.72,1.72,0,0,1,11,6.91h2.89V8.06H11.31a.43.43,0,0,0-.49.49v.16a.44.44,0,0,0,.49.5h1.48A1.61,1.61,0,0,1,14,9.58a1.61,1.61,0,0,1,.38,1.19v.41A1.58,1.58,0,0,1,14,12.36a1.61,1.61,0,0,1-1.18.38l-.89,0-.75,0-1.73-.12Z" style="fill:#1d1d1d"/><path d="M8.69,8.94C7,13.3,5.79,16.88,5.79,16.88S7.23,13.38,8.9,9s2.95-7.93,2.95-7.93S10.37,4.58,8.69,8.94Z" style="fill:#1d1d1d"/><path d="M9,8.79c-1.68,4.36-2.91,7.94-2.91,7.94s1.44-3.5,3.12-7.86S12.17.94,12.17.94,10.69,4.43,9,8.79Z" style="fill:#fff"/></g></g></g></g></svg>