<svg xmlns="http://www.w3.org/2000/svg" viewBox="0 0 101.07 101.07"><title>Asset 15</title><g id="f2a703df-4aa6-46e4-98e7-e3c395cd2081" data-name="Layer 2"><g id="b58efe58-9854-4143-8f6b-e2a560283556" data-name="Capa 1"><circle cx="50.54" cy="50.54" r="50.54" style="fill:none"/><path d="M87.45,74.23c-.32.87.1,2.9-.54,2.9H14.34c-.47,0-.52-1.67-.84-2.54,0,0-2.39,3.39.84,6H86.91C90,77.75,87.45,74.23,87.45,74.23Z" style="fill:#cdd6e0"/><path d="M80.66,64.33H20.47a3,3,0,0,0-2.36,1.47l-5,9.62c-.32,1.07.15,2,1.26,2H86.81a1.34,1.34,0,0,0,1.26-2L83,65.8A2.75,2.75,0,0,0,80.66,64.33Z" style="fill:#acb3ba"/><polygon points="62.99 76.19 39.63 76.19 42.16 68.4 60.68 68.4 62.99 76.19" style="fill:#cdd6e0"/><path d="M78.92,64.33H22.12A3.16,3.16,0,0,1,19,61.17V23.62a3.16,3.16,0,0,1,3.15-3.15h56.8a3.16,3.16,0,0,1,3.15,3.15V61.17A3.16,3.16,0,0,1,78.92,64.33Z" style="fill:#344a5e"/><rect x="23.02" y="24.35" width="54.95" height="36.17"/><rect x="25.9" y="34.88" width="1.63" height="1.63" transform="translate(-8.98 62.41) rotate(-90)" style="fill:#37dd37"/><rect x="32.64" y="33.25" width="1.63" height="4.88" transform="translate(-2.24 69.14) rotate(-90)" style="fill:#37dd37"/><rect x="27.55" y="33.25" width="1.63" height="1.63" transform="translate(-5.71 62.42) rotate(-90)" style="fill:#37dd37"/><rect x="29.19" y="31.62" width="1.63" height="1.63" transform="translate(-2.44 62.44) rotate(-90)" style="fill:#37dd37"/><rect x="27.55" y="30" width="1.63" height="1.63" transform="translate(-2.45 59.17) rotate(-90)" style="fill:#37dd37"/><rect x="25.9" y="28.37" width="1.63" height="1.63" transform="translate(-2.47 55.9) rotate(-90)" style="fill:#37dd37"/></g></g></svg>