<svg xmlns="http://www.w3.org/2000/svg" viewBox="0 0 512.29 406.57"><defs><style>.cls-1{fill:#cdd6e0;}.cls-2{fill:#acb3ba;}.cls-3{fill:#344a5e;}.cls-4{fill:#37dd37;}</style></defs><title>Asset 4</title><g id="Layer_2" data-name="Layer 2"><g id="Capa_1" data-name="Capa 1"><path class="cls-1" d="M505.71,363.5c-2.14,5.87.65,19.58-3.62,19.58H11.42c-3.2,0-3.52-11.32-5.65-17.19,0,0-16.18,22.93,5.65,40.68H502.09C522.7,387.26,505.71,363.5,505.71,363.5Z"/><path class="cls-2" d="M459.84,296.53H52.89c-6.39,0-12.78,4.52-16,9.94l-34.09,65c-2.13,7.22,1.07,13.55,8.52,13.55h490c7.46,0,11.72-6.33,8.53-13.55l-34.09-65C473.69,301.05,466.23,296.53,459.84,296.53Z"/><polygon class="cls-1" points="340.37 376.7 182.41 376.7 199.49 324.05 324.72 324.05 340.37 376.7"/><path class="cls-3" d="M448,296.53H64A21.39,21.39,0,0,1,42.71,275.2V21.33A21.39,21.39,0,0,1,64,0H448a21.39,21.39,0,0,1,21.33,21.33V275.2A21.39,21.39,0,0,1,448,296.53Z"/><rect x="70.15" y="26.22" width="371.49" height="244.54"/><rect class="cls-4" x="89.6" y="97.42" width="11" height="11" transform="translate(-7.82 198.02) rotate(-90)"/><rect class="cls-4" x="135.15" y="86.42" width="11" height="33" transform="translate(37.73 243.57) rotate(-90)"/><rect class="cls-4" x="100.71" y="86.42" width="11" height="11" transform="translate(14.29 198.13) rotate(-90)"/><rect class="cls-4" x="111.82" y="75.42" width="11" height="11" transform="translate(36.4 198.24) rotate(-90)"/><rect class="cls-4" x="100.71" y="64.42" width="11" height="11" transform="translate(36.29 176.13) rotate(-90)"/><rect class="cls-4" x="89.6" y="53.42" width="11" height="11" transform="translate(36.18 154.02) rotate(-90)"/></g></g></svg>