<svg xmlns="http://www.w3.org/2000/svg" viewBox="0 0 101.07 101.07"><g id="bf40e2a3-141c-4493-bd72-f4772dac50c1" data-name="Layer 2"><g id="b7114644-97b2-4fe8-9c63-6bfaaff5a0b6" data-name="Capa 1"><circle cx="50.54" cy="50.54" r="50.54" style="fill:none"/><path d="M72.05,44.39c-.19.5,0,1.68-.32,1.68H29.44c-.27,0-.3-1-.48-1.48a2.57,2.57,0,0,0,.48,3.51H71.73A2.85,2.85,0,0,0,72.05,44.39Z" style="fill:#cdd6e0"/><path d="M68.09,38.62H33a1.72,1.72,0,0,0-1.38.85L28.7,45.08c-.18.62.09,1.17.74,1.17H71.67a.78.78,0,0,0,.74-1.17l-2.94-5.61A1.58,1.58,0,0,0,68.09,38.62Z" style="fill:#acb3ba"/><polygon points="57.8 45.52 44.18 45.52 45.65 40.99 56.45 40.99 57.8 45.52" style="fill:#cdd6e0"/><path d="M67.08,38.62H34a1.85,1.85,0,0,1-1.84-1.84V14.89A1.84,1.84,0,0,1,34,13.06h33.1a1.83,1.83,0,0,1,1.83,1.83V36.78A1.84,1.84,0,0,1,67.08,38.62Z" style="fill:#344a5e"/><rect x="34.3" y="15.43" width="32.15" height="20.8"/><path d="M59.93,20.4V19.22h-4.7V18.05H51.71v1.17H49.36V18.05H45.84v1.17h-4.7V20.4H40v4.69h1.17v1.18h1.17v2.35h1.18v1.17H42.31v4.7H58.76v-4.7H57.58V28.62h1.18V26.27h1.17V25.09h1.18V20.4Zm0,2.35v1.17H58.76v1.17H57.58v2.35H56.41V31h1.17v2.35H43.49V31h1.17V27.44H43.49V25.09H42.31V23.92H41.14V21.57h1.17V20.4h1.18v1.17h1.17v2.35H47V22.75H45.84V20.4H47V19.22h1.18V20.4h1.17v2.35H48.19v1.17h1.17v1.17h2.35V23.92h1.18V22.75H51.71V20.4h1.18V19.22h1.17V20.4h1.17v2.35H54.06v1.17h2.35V21.57h1.17V20.4h1.18v1.17h1.17Z" style="fill:#37dd37"/><polygon points="48.19 21.57 48.19 20.4 47.01 20.4 47.01 21.57 47.01 22.75 48.19 22.75 48.19 21.57" style="fill:#37dd37"/><polygon points="54.06 21.57 54.06 20.4 52.89 20.4 52.89 21.57 52.89 22.75 54.06 22.75 54.06 21.57" style="fill:#37dd37"/><polygon points="58.76 21.57 57.58 21.57 57.58 22.75 57.58 23.92 58.76 23.92 58.76 22.75 58.76 21.57" style="fill:#37dd37"/><polygon points="43.49 22.75 43.49 21.57 42.31 21.57 42.31 22.75 42.31 23.92 43.49 23.92 43.49 22.75" style="fill:#37dd37"/><rect x="43.49" y="23.92" width="1.17" height="1.17" style="fill:#37dd37"/><rect x="56.41" y="23.92" width="1.17" height="1.17" style="fill:#37dd37"/><polygon points="56.41 25.09 55.23 25.09 55.23 26.27 54.06 26.27 54.06 25.09 54.06 23.92 52.89 23.92 52.89 25.09 51.71 25.09 51.71 26.27 50.54 26.27 49.36 26.27 49.36 25.09 48.19 25.09 48.19 23.92 47.01 23.92 47.01 25.09 47.01 26.27 45.84 26.27 45.84 25.09 44.66 25.09 44.66 26.27 44.66 27.44 45.84 27.44 45.84 28.62 45.84 29.79 47.01 29.79 47.01 28.62 48.19 28.62 49.36 28.62 50.54 28.62 51.71 28.62 52.89 28.62 54.06 28.62 54.06 29.79 55.23 29.79 55.23 28.62 55.23 27.44 56.41 27.44 56.41 26.27 56.41 25.09" style="fill:#37dd37"/><polygon points="54.06 30.97 54.06 29.79 52.89 29.79 51.71 29.79 50.54 29.79 49.36 29.79 48.19 29.79 47.01 29.79 47.01 30.97 45.84 30.97 44.66 30.97 44.66 32.14 45.84 32.14 47.01 32.14 48.19 32.14 49.36 32.14 50.54 32.14 51.71 32.14 52.89 32.14 54.06 32.14 55.23 32.14 56.41 32.14 56.41 30.97 55.23 30.97 54.06 30.97" style="fill:#37dd37"/><path d="M98.19,84.3c-.18.51.06,1.69-.31,1.69H55.59c-.28,0-.3-1-.49-1.48A2.58,2.58,0,0,0,55.59,88H97.88A2.85,2.85,0,0,0,98.19,84.3Z" style="fill:#cdd6e0"/><path d="M94.24,78.53H59.16a1.7,1.7,0,0,0-1.37.86L54.85,85c-.18.62.09,1.16.73,1.16H97.82A.78.78,0,0,0,98.56,85l-2.94-5.61A1.61,1.61,0,0,0,94.24,78.53Z" style="fill:#acb3ba"/><polygon points="83.94 85.44 70.33 85.44 71.8 80.9 82.59 80.9 83.94 85.44" style="fill:#cdd6e0"/><path d="M93.22,78.53H60.13a1.84,1.84,0,0,1-1.84-1.84V54.81A1.84,1.84,0,0,1,60.13,53H93.22a1.85,1.85,0,0,1,1.84,1.84V76.69A1.85,1.85,0,0,1,93.22,78.53Z" style="fill:#344a5e"/><rect x="60.44" y="55.35" width="32.15" height="20.8"/><path d="M45.9,84.3c-.18.51.06,1.69-.31,1.69H3.3C3,86,3,85,2.81,84.51A2.56,2.56,0,0,0,3.3,88H45.59A2.87,2.87,0,0,0,45.9,84.3Z" style="fill:#cdd6e0"/><path d="M42,78.53H6.87a1.73,1.73,0,0,0-1.38.86L2.55,85c-.18.62.1,1.16.74,1.16H45.53A.77.77,0,0,0,46.26,85l-2.94-5.61A1.58,1.58,0,0,0,42,78.53Z" style="fill:#acb3ba"/><polygon points="31.65 85.44 18.03 85.44 19.5 80.9 30.3 80.9 31.65 85.44" style="fill:#cdd6e0"/><path d="M40.93,78.53H7.83A1.85,1.85,0,0,1,6,76.69V54.81A1.85,1.85,0,0,1,7.83,53h33.1a1.85,1.85,0,0,1,1.84,1.84V76.69A1.85,1.85,0,0,1,40.93,78.53Z" style="fill:#344a5e"/><rect x="8.15" y="55.35" width="32.15" height="20.8"/></g></g></svg>