<svg xmlns="http://www.w3.org/2000/svg" viewBox="0 0 144.06 114.33"><defs><style>.cls-1{fill:#cdd6e0;}.cls-2{fill:#acb3ba;}.cls-3{fill:#344a5e;}.cls-4{fill:#37dd37;}</style></defs><title>Asset 4</title><g id="Layer_2" data-name="Layer 2"><g id="Capa_1" data-name="Capa 1"><path class="cls-1" d="M142.21,102.22c-.6,1.65.18,5.5-1,5.5H3.21c-.9,0-1-3.18-1.59-4.83,0,0-4.55,6.45,1.59,11.44h138C147,108.9,142.21,102.22,142.21,102.22Z"/><path class="cls-2" d="M129.31,83.39H14.87a5.62,5.62,0,0,0-4.49,2.79L.79,104.47c-.6,2,.3,3.81,2.4,3.81H141a2.55,2.55,0,0,0,2.4-3.81L133.8,86.18A5.21,5.21,0,0,0,129.31,83.39Z"/><polygon class="cls-1" points="95.71 105.93 51.3 105.93 56.1 91.12 91.31 91.12 95.71 105.93"/><path class="cls-3" d="M126,83.39H18a6,6,0,0,1-6-6V6a6,6,0,0,1,6-6H126a6,6,0,0,1,6,6V77.39A6,6,0,0,1,126,83.39Z"/><rect class="cls-4" x="23.36" y="9.79" width="98.88" height="62.38"/><path d="M22.13,7.47h3.09v3.09H22.13Z"/><path d="M25.22,7.47H28.3v3.09H25.22Z"/><path d="M28.3,7.47h3.09v3.09H28.3Z"/><path d="M31.39,7.47h3.08v3.09H31.39Z"/><path d="M34.47,7.47h3.09v3.09H34.47Z"/><path d="M37.56,7.47h3.08v3.09H37.56Z"/><path d="M40.64,7.47h3.09v3.09H40.64Z"/><path d="M43.73,7.47h3.08v3.09H43.73Z"/><path d="M46.81,7.47H49.9v3.09H46.81Z"/><path d="M49.9,7.47H53v3.09H49.9Z"/><path d="M53,7.47h3.08v3.09H53Z"/><path d="M56.07,7.47h3.09v3.09H56.07Z"/><path d="M59.16,7.47h3.08v3.09H59.16Z"/><path d="M62.24,7.47h3.09v3.09H62.24Z"/><path d="M65.33,7.47h3.08v3.09H65.33Z"/><path d="M68.41,7.47H71.5v3.09H68.41Z"/><path d="M71.5,7.47h3.08v3.09H71.5Z"/><path d="M74.58,7.47h3.09v3.09H74.58Z"/><path d="M77.67,7.47h3.08v3.09H77.67Z"/><path d="M80.75,7.47h3.09v3.09H80.75Z"/><path d="M83.84,7.47h3.08v3.09H83.84Z"/><path d="M86.92,7.47H90v3.09H86.92Z"/><path d="M90,7.47h3.08v3.09H90Z"/><path d="M93.09,7.47h3.09v3.09H93.09Z"/><path d="M96.18,7.47h3.08v3.09H96.18Z"/><path d="M99.26,7.47h3.09v3.09H99.26Z"/><path d="M102.35,7.47h3.08v3.09h-3.08Z"/><path d="M105.43,7.47h3.09v3.09h-3.09Z"/><path d="M108.52,7.47h3.08v3.09h-3.08Z"/><path d="M111.6,7.47h3.09v3.09H111.6Z"/><path d="M114.69,7.47h3.08v3.09h-3.08Z"/><path d="M117.77,7.47h3.09v3.09h-3.09Z"/><path d="M120.86,7.47h3.08v3.09h-3.08Z"/><path d="M22.13,10.56h3.09v3.09H22.13Z"/><path d="M25.22,10.56H28.3v3.09H25.22Z"/><path d="M28.3,10.56h3.09v3.09H28.3Z"/><path d="M31.39,10.56h3.08v3.09H31.39Z"/><path d="M34.47,10.56h3.09v3.09H34.47Z"/><path d="M37.56,10.56h3.08v3.09H37.56Z"/><path d="M40.64,10.56h3.09v3.09H40.64Z"/><path d="M43.73,10.56h3.08v3.09H43.73Z"/><path d="M46.81,10.56H49.9v3.09H46.81Z"/><path d="M49.9,10.56H53v3.09H49.9Z"/><path d="M53,10.56h3.08v3.09H53Z"/><path d="M56.07,10.56h3.09v3.09H56.07Z"/><path d="M59.16,10.56h3.08v3.09H59.16Z"/><path d="M62.24,10.56h3.09v3.09H62.24Z"/><path d="M65.33,10.56h3.08v3.09H65.33Z"/><path d="M68.41,10.56H71.5v3.09H68.41Z"/><path d="M71.5,10.56h3.08v3.09H71.5Z"/><path d="M74.58,10.56h3.09v3.09H74.58Z"/><path d="M77.67,10.56h3.08v3.09H77.67Z"/><path d="M80.75,10.56h3.09v3.09H80.75Z"/><path d="M83.84,10.56h3.08v3.09H83.84Z"/><path d="M86.92,10.56H90v3.09H86.92Z"/><path d="M90,10.56h3.08v3.09H90Z"/><path d="M93.09,10.56h3.09v3.09H93.09Z"/><path d="M96.18,10.56h3.08v3.09H96.18Z"/><path d="M99.26,10.56h3.09v3.09H99.26Z"/><path d="M102.35,10.56h3.08v3.09h-3.08Z"/><path d="M105.43,10.56h3.09v3.09h-3.09Z"/><path d="M108.52,10.56h3.08v3.09h-3.08Z"/><path d="M111.6,10.56h3.09v3.09H111.6Z"/><path d="M114.69,10.56h3.08v3.09h-3.08Z"/><path d="M117.77,10.56h3.09v3.09h-3.09Z"/><path d="M120.86,10.56h3.08v3.09h-3.08Z"/><path d="M22.13,13.65h3.09v3.08H22.13Z"/><path d="M25.22,13.65H28.3v3.08H25.22Z"/><path d="M28.3,13.65h3.09v3.08H28.3Z"/><path d="M31.39,13.65h3.08v3.08H31.39Z"/><path d="M34.47,13.65h3.09v3.08H34.47Z"/><path d="M37.56,13.65h3.08v3.08H37.56Z"/><path d="M40.64,13.65h3.09v3.08H40.64Z"/><path d="M43.73,13.65h3.08v3.08H43.73Z"/><path d="M46.81,13.65H49.9v3.08H46.81Z"/><path d="M49.9,13.65H53v3.08H49.9Z"/><path d="M53,13.65h3.08v3.08H53Z"/><path d="M56.07,13.65h3.09v3.08H56.07Z"/><path d="M59.16,13.65h3.08v3.08H59.16Z"/><path d="M62.24,13.65h3.09v3.08H62.24Z"/><path d="M65.33,13.65h3.08v3.08H65.33Z"/><path d="M68.41,13.65H71.5v3.08H68.41Z"/><path d="M71.5,13.65h3.08v3.08H71.5Z"/><path d="M74.58,13.65h3.09v3.08H74.58Z"/><path d="M77.67,13.65h3.08v3.08H77.67Z"/><path d="M80.75,13.65h3.09v3.08H80.75Z"/><path d="M83.84,13.65h3.08v3.08H83.84Z"/><path d="M86.92,13.65H90v3.08H86.92Z"/><path d="M90,13.65h3.08v3.08H90Z"/><path d="M93.09,13.65h3.09v3.08H93.09Z"/><path d="M96.18,13.65h3.08v3.08H96.18Z"/><path d="M99.26,13.65h3.09v3.08H99.26Z"/><path d="M102.35,13.65h3.08v3.08h-3.08Z"/><path d="M105.43,13.65h3.09v3.08h-3.09Z"/><path d="M108.52,13.65h3.08v3.08h-3.08Z"/><path d="M111.6,13.65h3.09v3.08H111.6Z"/><path d="M114.69,13.65h3.08v3.08h-3.08Z"/><path d="M117.77,13.65h3.09v3.08h-3.09Z"/><path d="M120.86,13.65h3.08v3.08h-3.08Z"/><path d="M22.13,16.73h3.09v3.09H22.13Z"/><path d="M25.22,16.73H28.3v3.09H25.22Z"/><path d="M28.3,16.73h3.09v3.09H28.3Z"/><path d="M31.39,16.73h3.08v3.09H31.39Z"/><path d="M34.47,16.73h3.09v3.09H34.47Z"/><path d="M37.56,16.73h3.08v3.09H37.56Z"/><path d="M40.64,16.73h3.09v3.09H40.64Z"/><path d="M43.73,16.73h3.08v3.09H43.73Z"/><path d="M46.81,16.73H49.9v3.09H46.81Z"/><path d="M49.9,16.73H53v3.09H49.9Z"/><path d="M53,16.73h3.08v3.09H53Z"/><path d="M56.07,16.73h3.09v3.09H56.07Z"/><path d="M59.16,16.73h3.08v3.09H59.16Z"/><path d="M62.24,16.73h3.09v3.09H62.24Z"/><path d="M65.33,16.73h3.08v3.09H65.33Z"/><path d="M68.41,16.73H71.5v3.09H68.41Z"/><path d="M71.5,16.73h3.08v3.09H71.5Z"/><path d="M74.58,16.73h3.09v3.09H74.58Z"/><path d="M77.67,16.73h3.08v3.09H77.67Z"/><path d="M80.75,16.73h3.09v3.09H80.75Z"/><path d="M83.84,16.73h3.08v3.09H83.84Z"/><path d="M86.92,16.73H90v3.09H86.92Z"/><path d="M90,16.73h3.08v3.09H90Z"/><path d="M93.09,16.73h3.09v3.09H93.09Z"/><path d="M96.18,16.73h3.08v3.09H96.18Z"/><path d="M99.26,16.73h3.09v3.09H99.26Z"/><path d="M102.35,16.73h3.08v3.09h-3.08Z"/><path d="M105.43,16.73h3.09v3.09h-3.09Z"/><path d="M108.52,16.73h3.08v3.09h-3.08Z"/><path d="M111.6,16.73h3.09v3.09H111.6Z"/><path d="M114.69,16.73h3.08v3.09h-3.08Z"/><path d="M117.77,16.73h3.09v3.09h-3.09Z"/><path d="M120.86,16.73h3.08v3.09h-3.08Z"/><path d="M22.13,19.82h3.09V22.9H22.13Z"/><path d="M25.22,19.82H28.3V22.9H25.22Z"/><path d="M28.3,19.82h3.09V22.9H28.3Z"/><path d="M31.39,19.82h3.08V22.9H31.39Z"/><path d="M34.47,19.82h3.09V22.9H34.47Z"/><path d="M37.56,19.82h3.08V22.9H37.56Z"/><path d="M40.64,19.82h3.09V22.9H40.64Z"/><path d="M43.73,19.82h3.08V22.9H43.73Z"/><path d="M46.81,19.82H49.9V22.9H46.81Z"/><path d="M49.9,19.82H53V22.9H49.9Z"/><path d="M53,19.82h3.08V22.9H53Z"/><path d="M56.07,19.82h3.09V22.9H56.07Z"/><path d="M68.41,19.82H71.5V22.9H68.41Z"/><path d="M71.5,19.82h3.08V22.9H71.5Z"/><path d="M83.84,19.82h3.08V22.9H83.84Z"/><path d="M86.92,19.82H90V22.9H86.92Z"/><path d="M90,19.82h3.08V22.9H90Z"/><path d="M93.09,19.82h3.09V22.9H93.09Z"/><path d="M96.18,19.82h3.08V22.9H96.18Z"/><path d="M99.26,19.82h3.09V22.9H99.26Z"/><path d="M102.35,19.82h3.08V22.9h-3.08Z"/><path d="M105.43,19.82h3.09V22.9h-3.09Z"/><path d="M108.52,19.82h3.08V22.9h-3.08Z"/><path d="M111.6,19.82h3.09V22.9H111.6Z"/><path d="M114.69,19.82h3.08V22.9h-3.08Z"/><path d="M117.77,19.82h3.09V22.9h-3.09Z"/><path d="M120.86,19.82h3.08V22.9h-3.08Z"/><path d="M22.13,22.9h3.09V26H22.13Z"/><path d="M25.22,22.9H28.3V26H25.22Z"/><path d="M28.3,22.9h3.09V26H28.3Z"/><path d="M31.39,22.9h3.08V26H31.39Z"/><path d="M34.47,22.9h3.09V26H34.47Z"/><path d="M37.56,22.9h3.08V26H37.56Z"/><path d="M40.64,22.9h3.09V26H40.64Z"/><path d="M43.73,22.9h3.08V26H43.73Z"/><path d="M62.24,22.9h3.09V26H62.24Z"/><path d="M77.67,22.9h3.08V26H77.67Z"/><path d="M96.18,22.9h3.08V26H96.18Z"/><path d="M99.26,22.9h3.09V26H99.26Z"/><path d="M102.35,22.9h3.08V26h-3.08Z"/><path d="M105.43,22.9h3.09V26h-3.09Z"/><path d="M108.52,22.9h3.08V26h-3.08Z"/><path d="M111.6,22.9h3.09V26H111.6Z"/><path d="M114.69,22.9h3.08V26h-3.08Z"/><path d="M117.77,22.9h3.09V26h-3.09Z"/><path d="M120.86,22.9h3.08V26h-3.08Z"/><path d="M22.13,26h3.09v3.08H22.13Z"/><path d="M25.22,26H28.3v3.08H25.22Z"/><path d="M28.3,26h3.09v3.08H28.3Z"/><path d="M31.39,26h3.08v3.08H31.39Z"/><path d="M34.47,26h3.09v3.08H34.47Z"/><path d="M37.56,26h3.08v3.08H37.56Z"/><path d="M40.64,26h3.09v3.08H40.64Z"/><path d="M49.9,26H53v3.08H49.9Z"/><path d="M59.16,26h3.08v3.08H59.16Z"/><path d="M65.33,26h3.08v3.08H65.33Z"/><path d="M74.58,26h3.09v3.08H74.58Z"/><path d="M80.75,26h3.09v3.08H80.75Z"/><path d="M90,26h3.08v3.08H90Z"/><path d="M99.26,26h3.09v3.08H99.26Z"/><path d="M102.35,26h3.08v3.08h-3.08Z"/><path d="M105.43,26h3.09v3.08h-3.09Z"/><path d="M108.52,26h3.08v3.08h-3.08Z"/><path d="M111.6,26h3.09v3.08H111.6Z"/><path d="M114.69,26h3.08v3.08h-3.08Z"/><path d="M117.77,26h3.09v3.08h-3.09Z"/><path d="M120.86,26h3.08v3.08h-3.08Z"/><path d="M22.13,29.07h3.09v3.09H22.13Z"/><path d="M25.22,29.07H28.3v3.09H25.22Z"/><path d="M28.3,29.07h3.09v3.09H28.3Z"/><path d="M31.39,29.07h3.08v3.09H31.39Z"/><path d="M34.47,29.07h3.09v3.09H34.47Z"/><path d="M37.56,29.07h3.08v3.09H37.56Z"/><path d="M40.64,29.07h3.09v3.09H40.64Z"/><path d="M46.81,29.07H49.9v3.09H46.81Z"/><path d="M53,29.07h3.08v3.09H53Z"/><path d="M59.16,29.07h3.08v3.09H59.16Z"/><path d="M65.33,29.07h3.08v3.09H65.33Z"/><path d="M74.58,29.07h3.09v3.09H74.58Z"/><path d="M80.75,29.07h3.09v3.09H80.75Z"/><path d="M86.92,29.07H90v3.09H86.92Z"/><path d="M93.09,29.07h3.09v3.09H93.09Z"/><path d="M99.26,29.07h3.09v3.09H99.26Z"/><path d="M102.35,29.07h3.08v3.09h-3.08Z"/><path d="M105.43,29.07h3.09v3.09h-3.09Z"/><path d="M108.52,29.07h3.08v3.09h-3.08Z"/><path d="M111.6,29.07h3.09v3.09H111.6Z"/><path d="M114.69,29.07h3.08v3.09h-3.08Z"/><path d="M117.77,29.07h3.09v3.09h-3.09Z"/><path d="M120.86,29.07h3.08v3.09h-3.08Z"/><path d="M22.13,32.16h3.09v3.08H22.13Z"/><path d="M25.22,32.16H28.3v3.08H25.22Z"/><path d="M28.3,32.16h3.09v3.08H28.3Z"/><path d="M31.39,32.16h3.08v3.08H31.39Z"/><path d="M34.47,32.16h3.09v3.08H34.47Z"/><path d="M37.56,32.16h3.08v3.08H37.56Z"/><path d="M40.64,32.16h3.09v3.08H40.64Z"/><path d="M46.81,32.16H49.9v3.08H46.81Z"/><path d="M53,32.16h3.08v3.08H53Z"/><path d="M62.24,32.16h3.09v3.08H62.24Z"/><path d="M77.67,32.16h3.08v3.08H77.67Z"/><path d="M86.92,32.16H90v3.08H86.92Z"/><path d="M93.09,32.16h3.09v3.08H93.09Z"/><path d="M99.26,32.16h3.09v3.08H99.26Z"/><path d="M102.35,32.16h3.08v3.08h-3.08Z"/><path d="M105.43,32.16h3.09v3.08h-3.09Z"/><path d="M108.52,32.16h3.08v3.08h-3.08Z"/><path d="M111.6,32.16h3.09v3.08H111.6Z"/><path d="M114.69,32.16h3.08v3.08h-3.08Z"/><path d="M117.77,32.16h3.09v3.08h-3.09Z"/><path d="M120.86,32.16h3.08v3.08h-3.08Z"/><path d="M22.13,35.24h3.09v3.09H22.13Z"/><path d="M25.22,35.24H28.3v3.09H25.22Z"/><path d="M28.3,35.24h3.09v3.09H28.3Z"/><path d="M31.39,35.24h3.08v3.09H31.39Z"/><path d="M34.47,35.24h3.09v3.09H34.47Z"/><path d="M37.56,35.24h3.08v3.09H37.56Z"/><path d="M40.64,35.24h3.09v3.09H40.64Z"/><path d="M49.9,35.24H53v3.09H49.9Z"/><path d="M56.07,35.24h3.09v3.09H56.07Z"/><path d="M59.16,35.24h3.08v3.09H59.16Z"/><path d="M65.33,35.24h3.08v3.09H65.33Z"/><path d="M74.58,35.24h3.09v3.09H74.58Z"/><path d="M80.75,35.24h3.09v3.09H80.75Z"/><path d="M83.84,35.24h3.08v3.09H83.84Z"/><path d="M90,35.24h3.08v3.09H90Z"/><path d="M99.26,35.24h3.09v3.09H99.26Z"/><path d="M102.35,35.24h3.08v3.09h-3.08Z"/><path d="M105.43,35.24h3.09v3.09h-3.09Z"/><path d="M108.52,35.24h3.08v3.09h-3.08Z"/><path d="M111.6,35.24h3.09v3.09H111.6Z"/><path d="M114.69,35.24h3.08v3.09h-3.08Z"/><path d="M117.77,35.24h3.09v3.09h-3.09Z"/><path d="M120.86,35.24h3.08v3.09h-3.08Z"/><path d="M22.13,38.33h3.09v3.08H22.13Z"/><path d="M25.22,38.33H28.3v3.08H25.22Z"/><path d="M28.3,38.33h3.09v3.08H28.3Z"/><path d="M31.39,38.33h3.08v3.08H31.39Z"/><path d="M34.47,38.33h3.09v3.08H34.47Z"/><path d="M37.56,38.33h3.08v3.08H37.56Z"/><path d="M40.64,38.33h3.09v3.08H40.64Z"/><path d="M43.73,38.33h3.08v3.08H43.73Z"/><path d="M53,38.33h3.08v3.08H53Z"/><path d="M59.16,38.33h3.08v3.08H59.16Z"/><path d="M68.41,38.33H71.5v3.08H68.41Z"/><path d="M71.5,38.33h3.08v3.08H71.5Z"/><path d="M80.75,38.33h3.09v3.08H80.75Z"/><path d="M86.92,38.33H90v3.08H86.92Z"/><path d="M96.18,38.33h3.08v3.08H96.18Z"/><path d="M99.26,38.33h3.09v3.08H99.26Z"/><path d="M102.35,38.33h3.08v3.08h-3.08Z"/><path d="M105.43,38.33h3.09v3.08h-3.09Z"/><path d="M108.52,38.33h3.08v3.08h-3.08Z"/><path d="M111.6,38.33h3.09v3.08H111.6Z"/><path d="M114.69,38.33h3.08v3.08h-3.08Z"/><path d="M117.77,38.33h3.09v3.08h-3.09Z"/><path d="M120.86,38.33h3.08v3.08h-3.08Z"/><path d="M22.13,41.41h3.09V44.5H22.13Z"/><path d="M25.22,41.41H28.3V44.5H25.22Z"/><path d="M28.3,41.41h3.09V44.5H28.3Z"/><path d="M31.39,41.41h3.08V44.5H31.39Z"/><path d="M34.47,41.41h3.09V44.5H34.47Z"/><path d="M37.56,41.41h3.08V44.5H37.56Z"/><path d="M40.64,41.41h3.09V44.5H40.64Z"/><path d="M43.73,41.41h3.08V44.5H43.73Z"/><path d="M46.81,41.41H49.9V44.5H46.81Z"/><path d="M53,41.41h3.08V44.5H53Z"/><path d="M86.92,41.41H90V44.5H86.92Z"/><path d="M93.09,41.41h3.09V44.5H93.09Z"/><path d="M96.18,41.41h3.08V44.5H96.18Z"/><path d="M99.26,41.41h3.09V44.5H99.26Z"/><path d="M102.35,41.41h3.08V44.5h-3.08Z"/><path d="M105.43,41.41h3.09V44.5h-3.09Z"/><path d="M108.52,41.41h3.08V44.5h-3.08Z"/><path d="M111.6,41.41h3.09V44.5H111.6Z"/><path d="M114.69,41.41h3.08V44.5h-3.08Z"/><path d="M117.77,41.41h3.09V44.5h-3.09Z"/><path d="M120.86,41.41h3.08V44.5h-3.08Z"/><path d="M22.13,44.5h3.09v3.08H22.13Z"/><path d="M25.22,44.5H28.3v3.08H25.22Z"/><path d="M28.3,44.5h3.09v3.08H28.3Z"/><path d="M31.39,44.5h3.08v3.08H31.39Z"/><path d="M34.47,44.5h3.09v3.08H34.47Z"/><path d="M37.56,44.5h3.08v3.08H37.56Z"/><path d="M40.64,44.5h3.09v3.08H40.64Z"/><path d="M43.73,44.5h3.08v3.08H43.73Z"/><path d="M46.81,44.5H49.9v3.08H46.81Z"/><path d="M56.07,44.5h3.09v3.08H56.07Z"/><path d="M83.84,44.5h3.08v3.08H83.84Z"/><path d="M93.09,44.5h3.09v3.08H93.09Z"/><path d="M96.18,44.5h3.08v3.08H96.18Z"/><path d="M99.26,44.5h3.09v3.08H99.26Z"/><path d="M102.35,44.5h3.08v3.08h-3.08Z"/><path d="M105.43,44.5h3.09v3.08h-3.09Z"/><path d="M108.52,44.5h3.08v3.08h-3.08Z"/><path d="M111.6,44.5h3.09v3.08H111.6Z"/><path d="M114.69,44.5h3.08v3.08h-3.08Z"/><path d="M117.77,44.5h3.09v3.08h-3.09Z"/><path d="M120.86,44.5h3.08v3.08h-3.08Z"/><path d="M22.13,47.58h3.09v3.09H22.13Z"/><path d="M25.22,47.58H28.3v3.09H25.22Z"/><path d="M28.3,47.58h3.09v3.09H28.3Z"/><path d="M31.39,47.58h3.08v3.09H31.39Z"/><path d="M34.47,47.58h3.09v3.09H34.47Z"/><path d="M37.56,47.58h3.08v3.09H37.56Z"/><path d="M40.64,47.58h3.09v3.09H40.64Z"/><path d="M43.73,47.58h3.08v3.09H43.73Z"/><path d="M46.81,47.58H49.9v3.09H46.81Z"/><path d="M49.9,47.58H53v3.09H49.9Z"/><path d="M56.07,47.58h3.09v3.09H56.07Z"/><path d="M62.24,47.58h3.09v3.09H62.24Z"/><path d="M65.33,47.58h3.08v3.09H65.33Z"/><path d="M68.41,47.58H71.5v3.09H68.41Z"/><path d="M71.5,47.58h3.08v3.09H71.5Z"/><path d="M74.58,47.58h3.09v3.09H74.58Z"/><path d="M77.67,47.58h3.08v3.09H77.67Z"/><path d="M83.84,47.58h3.08v3.09H83.84Z"/><path d="M90,47.58h3.08v3.09H90Z"/><path d="M93.09,47.58h3.09v3.09H93.09Z"/><path d="M96.18,47.58h3.08v3.09H96.18Z"/><path d="M99.26,47.58h3.09v3.09H99.26Z"/><path d="M102.35,47.58h3.08v3.09h-3.08Z"/><path d="M105.43,47.58h3.09v3.09h-3.09Z"/><path d="M108.52,47.58h3.08v3.09h-3.08Z"/><path d="M111.6,47.58h3.09v3.09H111.6Z"/><path d="M114.69,47.58h3.08v3.09h-3.08Z"/><path d="M117.77,47.58h3.09v3.09h-3.09Z"/><path d="M120.86,47.58h3.08v3.09h-3.08Z"/><path d="M22.13,50.67h3.09v3.08H22.13Z"/><path d="M25.22,50.67H28.3v3.08H25.22Z"/><path d="M28.3,50.67h3.09v3.08H28.3Z"/><path d="M31.39,50.67h3.08v3.08H31.39Z"/><path d="M34.47,50.67h3.09v3.08H34.47Z"/><path d="M37.56,50.67h3.08v3.08H37.56Z"/><path d="M40.64,50.67h3.09v3.08H40.64Z"/><path d="M43.73,50.67h3.08v3.08H43.73Z"/><path d="M46.81,50.67H49.9v3.08H46.81Z"/><path d="M56.07,50.67h3.09v3.08H56.07Z"/><path d="M59.16,50.67h3.08v3.08H59.16Z"/><path d="M80.75,50.67h3.09v3.08H80.75Z"/><path d="M83.84,50.67h3.08v3.08H83.84Z"/><path d="M93.09,50.67h3.09v3.08H93.09Z"/><path d="M96.18,50.67h3.08v3.08H96.18Z"/><path d="M99.26,50.67h3.09v3.08H99.26Z"/><path d="M102.35,50.67h3.08v3.08h-3.08Z"/><path d="M105.43,50.67h3.09v3.08h-3.09Z"/><path d="M108.52,50.67h3.08v3.08h-3.08Z"/><path d="M111.6,50.67h3.09v3.08H111.6Z"/><path d="M114.69,50.67h3.08v3.08h-3.08Z"/><path d="M117.77,50.67h3.09v3.08h-3.09Z"/><path d="M120.86,50.67h3.08v3.08h-3.08Z"/><path d="M22.13,53.75h3.09v3.09H22.13Z"/><path d="M25.22,53.75H28.3v3.09H25.22Z"/><path d="M28.3,53.75h3.09v3.09H28.3Z"/><path d="M31.39,53.75h3.08v3.09H31.39Z"/><path d="M34.47,53.75h3.09v3.09H34.47Z"/><path d="M37.56,53.75h3.08v3.09H37.56Z"/><path d="M40.64,53.75h3.09v3.09H40.64Z"/><path d="M43.73,53.75h3.08v3.09H43.73Z"/><path d="M46.81,53.75H49.9v3.09H46.81Z"/><path d="M53,53.75h3.08v3.09H53Z"/><path d="M86.92,53.75H90v3.09H86.92Z"/><path d="M93.09,53.75h3.09v3.09H93.09Z"/><path d="M96.18,53.75h3.08v3.09H96.18Z"/><path d="M99.26,53.75h3.09v3.09H99.26Z"/><path d="M102.35,53.75h3.08v3.09h-3.08Z"/><path d="M105.43,53.75h3.09v3.09h-3.09Z"/><path d="M108.52,53.75h3.08v3.09h-3.08Z"/><path d="M111.6,53.75h3.09v3.09H111.6Z"/><path d="M114.69,53.75h3.08v3.09h-3.08Z"/><path d="M117.77,53.75h3.09v3.09h-3.09Z"/><path d="M120.86,53.75h3.08v3.09h-3.08Z"/><path d="M22.13,56.84h3.09v3.08H22.13Z"/><path d="M25.22,56.84H28.3v3.08H25.22Z"/><path d="M28.3,56.84h3.09v3.08H28.3Z"/><path d="M31.39,56.84h3.08v3.08H31.39Z"/><path d="M34.47,56.84h3.09v3.08H34.47Z"/><path d="M37.56,56.84h3.08v3.08H37.56Z"/><path d="M40.64,56.84h3.09v3.08H40.64Z"/><path d="M43.73,56.84h3.08v3.08H43.73Z"/><path d="M46.81,56.84H49.9v3.08H46.81Z"/><path d="M53,56.84h3.08v3.08H53Z"/><path d="M56.07,56.84h3.09v3.08H56.07Z"/><path d="M59.16,56.84h3.08v3.08H59.16Z"/><path d="M62.24,56.84h3.09v3.08H62.24Z"/><path d="M65.33,56.84h3.08v3.08H65.33Z"/><path d="M68.41,56.84H71.5v3.08H68.41Z"/><path d="M71.5,56.84h3.08v3.08H71.5Z"/><path d="M74.58,56.84h3.09v3.08H74.58Z"/><path d="M77.67,56.84h3.08v3.08H77.67Z"/><path d="M80.75,56.84h3.09v3.08H80.75Z"/><path d="M83.84,56.84h3.08v3.08H83.84Z"/><path d="M86.92,56.84H90v3.08H86.92Z"/><path d="M93.09,56.84h3.09v3.08H93.09Z"/><path d="M96.18,56.84h3.08v3.08H96.18Z"/><path d="M99.26,56.84h3.09v3.08H99.26Z"/><path d="M102.35,56.84h3.08v3.08h-3.08Z"/><path d="M105.43,56.84h3.09v3.08h-3.09Z"/><path d="M108.52,56.84h3.08v3.08h-3.08Z"/><path d="M111.6,56.84h3.09v3.08H111.6Z"/><path d="M114.69,56.84h3.08v3.08h-3.08Z"/><path d="M117.77,56.84h3.09v3.08h-3.09Z"/><path d="M120.86,56.84h3.08v3.08h-3.08Z"/><path d="M22.13,59.92h3.09V63H22.13Z"/><path d="M25.22,59.92H28.3V63H25.22Z"/><path d="M28.3,59.92h3.09V63H28.3Z"/><path d="M31.39,59.92h3.08V63H31.39Z"/><path d="M34.47,59.92h3.09V63H34.47Z"/><path d="M37.56,59.92h3.08V63H37.56Z"/><path d="M40.64,59.92h3.09V63H40.64Z"/><path d="M43.73,59.92h3.08V63H43.73Z"/><path d="M46.81,59.92H49.9V63H46.81Z"/><path d="M93.09,59.92h3.09V63H93.09Z"/><path d="M96.18,59.92h3.08V63H96.18Z"/><path d="M99.26,59.92h3.09V63H99.26Z"/><path d="M102.35,59.92h3.08V63h-3.08Z"/><path d="M105.43,59.92h3.09V63h-3.09Z"/><path d="M108.52,59.92h3.08V63h-3.08Z"/><path d="M111.6,59.92h3.09V63H111.6Z"/><path d="M114.69,59.92h3.08V63h-3.08Z"/><path d="M117.77,59.92h3.09V63h-3.09Z"/><path d="M120.86,59.92h3.08V63h-3.08Z"/><path d="M22.13,63h3.09v3.08H22.13Z"/><path d="M25.22,63H28.3v3.08H25.22Z"/><path d="M28.3,63h3.09v3.08H28.3Z"/><path d="M31.39,63h3.08v3.08H31.39Z"/><path d="M34.47,63h3.09v3.08H34.47Z"/><path d="M37.56,63h3.08v3.08H37.56Z"/><path d="M40.64,63h3.09v3.08H40.64Z"/><path d="M43.73,63h3.08v3.08H43.73Z"/><path d="M46.81,63H49.9v3.08H46.81Z"/><path d="M49.9,63H53v3.08H49.9Z"/><path d="M53,63h3.08v3.08H53Z"/><path d="M56.07,63h3.09v3.08H56.07Z"/><path d="M59.16,63h3.08v3.08H59.16Z"/><path d="M62.24,63h3.09v3.08H62.24Z"/><path d="M65.33,63h3.08v3.08H65.33Z"/><path d="M68.41,63H71.5v3.08H68.41Z"/><path d="M71.5,63h3.08v3.08H71.5Z"/><path d="M74.58,63h3.09v3.08H74.58Z"/><path d="M77.67,63h3.08v3.08H77.67Z"/><path d="M80.75,63h3.09v3.08H80.75Z"/><path d="M83.84,63h3.08v3.08H83.84Z"/><path d="M86.92,63H90v3.08H86.92Z"/><path d="M90,63h3.08v3.08H90Z"/><path d="M93.09,63h3.09v3.08H93.09Z"/><path d="M96.18,63h3.08v3.08H96.18Z"/><path d="M99.26,63h3.09v3.08H99.26Z"/><path d="M102.35,63h3.08v3.08h-3.08Z"/><path d="M105.43,63h3.09v3.08h-3.09Z"/><path d="M108.52,63h3.08v3.08h-3.08Z"/><path d="M111.6,63h3.09v3.08H111.6Z"/><path d="M114.69,63h3.08v3.08h-3.08Z"/><path d="M117.77,63h3.09v3.08h-3.09Z"/><path d="M120.86,63h3.08v3.08h-3.08Z"/><path d="M22.13,66.09h3.09v3.09H22.13Z"/><path d="M25.22,66.09H28.3v3.09H25.22Z"/><path d="M28.3,66.09h3.09v3.09H28.3Z"/><path d="M31.39,66.09h3.08v3.09H31.39Z"/><path d="M34.47,66.09h3.09v3.09H34.47Z"/><path d="M37.56,66.09h3.08v3.09H37.56Z"/><path d="M40.64,66.09h3.09v3.09H40.64Z"/><path d="M43.73,66.09h3.08v3.09H43.73Z"/><path d="M46.81,66.09H49.9v3.09H46.81Z"/><path d="M49.9,66.09H53v3.09H49.9Z"/><path d="M53,66.09h3.08v3.09H53Z"/><path d="M56.07,66.09h3.09v3.09H56.07Z"/><path d="M59.16,66.09h3.08v3.09H59.16Z"/><path d="M62.24,66.09h3.09v3.09H62.24Z"/><path d="M65.33,66.09h3.08v3.09H65.33Z"/><path d="M68.41,66.09H71.5v3.09H68.41Z"/><path d="M71.5,66.09h3.08v3.09H71.5Z"/><path d="M74.58,66.09h3.09v3.09H74.58Z"/><path d="M77.67,66.09h3.08v3.09H77.67Z"/><path d="M80.75,66.09h3.09v3.09H80.75Z"/><path d="M83.84,66.09h3.08v3.09H83.84Z"/><path d="M86.92,66.09H90v3.09H86.92Z"/><path d="M90,66.09h3.08v3.09H90Z"/><path d="M93.09,66.09h3.09v3.09H93.09Z"/><path d="M96.18,66.09h3.08v3.09H96.18Z"/><path d="M99.26,66.09h3.09v3.09H99.26Z"/><path d="M102.35,66.09h3.08v3.09h-3.08Z"/><path d="M105.43,66.09h3.09v3.09h-3.09Z"/><path d="M108.52,66.09h3.08v3.09h-3.08Z"/><path d="M111.6,66.09h3.09v3.09H111.6Z"/><path d="M114.69,66.09h3.08v3.09h-3.08Z"/><path d="M117.77,66.09h3.09v3.09h-3.09Z"/><path d="M120.86,66.09h3.08v3.09h-3.08Z"/><path d="M22.13,69.18h3.09v3.08H22.13Z"/><path d="M25.22,69.18H28.3v3.08H25.22Z"/><path d="M28.3,69.18h3.09v3.08H28.3Z"/><path d="M31.39,69.18h3.08v3.08H31.39Z"/><path d="M34.47,69.18h3.09v3.08H34.47Z"/><path d="M37.56,69.18h3.08v3.08H37.56Z"/><path d="M40.64,69.18h3.09v3.08H40.64Z"/><path d="M43.73,69.18h3.08v3.08H43.73Z"/><path d="M46.81,69.18H49.9v3.08H46.81Z"/><path d="M49.9,69.18H53v3.08H49.9Z"/><path d="M53,69.18h3.08v3.08H53Z"/><path d="M56.07,69.18h3.09v3.08H56.07Z"/><path d="M59.16,69.18h3.08v3.08H59.16Z"/><path d="M62.24,69.18h3.09v3.08H62.24Z"/><path d="M65.33,69.18h3.08v3.08H65.33Z"/><path d="M68.41,69.18H71.5v3.08H68.41Z"/><path d="M71.5,69.18h3.08v3.08H71.5Z"/><path d="M74.58,69.18h3.09v3.08H74.58Z"/><path d="M77.67,69.18h3.08v3.08H77.67Z"/><path d="M80.75,69.18h3.09v3.08H80.75Z"/><path d="M83.84,69.18h3.08v3.08H83.84Z"/><path d="M86.92,69.18H90v3.08H86.92Z"/><path d="M90,69.18h3.08v3.08H90Z"/><path d="M93.09,69.18h3.09v3.08H93.09Z"/><path d="M96.18,69.18h3.08v3.08H96.18Z"/><path d="M99.26,69.18h3.09v3.08H99.26Z"/><path d="M102.35,69.18h3.08v3.08h-3.08Z"/><path d="M105.43,69.18h3.09v3.08h-3.09Z"/><path d="M108.52,69.18h3.08v3.08h-3.08Z"/><path d="M111.6,69.18h3.09v3.08H111.6Z"/><path d="M114.69,69.18h3.08v3.08h-3.08Z"/><path d="M117.77,69.18h3.09v3.08h-3.09Z"/><path d="M120.86,69.18h3.08v3.08h-3.08Z"/><path d="M22.13,72.26h3.09v3.09H22.13Z"/><path d="M25.22,72.26H28.3v3.09H25.22Z"/><path d="M28.3,72.26h3.09v3.09H28.3Z"/><path d="M31.39,72.26h3.08v3.09H31.39Z"/><path d="M34.47,72.26h3.09v3.09H34.47Z"/><path d="M37.56,72.26h3.08v3.09H37.56Z"/><path d="M40.64,72.26h3.09v3.09H40.64Z"/><path d="M43.73,72.26h3.08v3.09H43.73Z"/><path d="M46.81,72.26H49.9v3.09H46.81Z"/><path d="M49.9,72.26H53v3.09H49.9Z"/><path d="M53,72.26h3.08v3.09H53Z"/><path d="M56.07,72.26h3.09v3.09H56.07Z"/><path d="M59.16,72.26h3.08v3.09H59.16Z"/><path d="M62.24,72.26h3.09v3.09H62.24Z"/><path d="M65.33,72.26h3.08v3.09H65.33Z"/><path d="M68.41,72.26H71.5v3.09H68.41Z"/><path d="M71.5,72.26h3.08v3.09H71.5Z"/><path d="M74.58,72.26h3.09v3.09H74.58Z"/><path d="M77.67,72.26h3.08v3.09H77.67Z"/><path d="M80.75,72.26h3.09v3.09H80.75Z"/><path d="M83.84,72.26h3.08v3.09H83.84Z"/><path d="M86.92,72.26H90v3.09H86.92Z"/><path d="M90,72.26h3.08v3.09H90Z"/><path d="M93.09,72.26h3.09v3.09H93.09Z"/><path d="M96.18,72.26h3.08v3.09H96.18Z"/><path d="M99.26,72.26h3.09v3.09H99.26Z"/><path d="M102.35,72.26h3.08v3.09h-3.08Z"/><path d="M105.43,72.26h3.09v3.09h-3.09Z"/><path d="M108.52,72.26h3.08v3.09h-3.08Z"/><path d="M111.6,72.26h3.09v3.09H111.6Z"/><path d="M114.69,72.26h3.08v3.09h-3.08Z"/><path d="M117.77,72.26h3.09v3.09h-3.09Z"/><path d="M120.86,72.26h3.08v3.09h-3.08Z"/><path d="M19.05,7.47h3.08v3.09H19.05Z"/><path d="M19.05,10.56h3.08v3.09H19.05Z"/><path d="M19.05,13.65h3.08v3.08H19.05Z"/><path d="M19.05,16.73h3.08v3.09H19.05Z"/><path d="M19.05,19.82h3.08V22.9H19.05Z"/><path d="M19.05,22.9h3.08V26H19.05Z"/><path d="M19.05,26h3.08v3.08H19.05Z"/><path d="M19.05,29.07h3.08v3.09H19.05Z"/><path d="M19.05,32.16h3.08v3.08H19.05Z"/><path d="M19.05,35.24h3.08v3.09H19.05Z"/><path d="M19.05,38.33h3.08v3.08H19.05Z"/><path d="M19.05,41.41h3.08V44.5H19.05Z"/><path d="M19.05,44.5h3.08v3.08H19.05Z"/><path d="M19.05,47.58h3.08v3.09H19.05Z"/><path d="M19.05,50.67h3.08v3.08H19.05Z"/><path d="M19.05,53.75h3.08v3.09H19.05Z"/><path d="M19.05,56.84h3.08v3.08H19.05Z"/><path d="M19.05,59.92h3.08V63H19.05Z"/><path d="M19.05,63h3.08v3.08H19.05Z"/><path d="M19.05,66.09h3.08v3.09H19.05Z"/><path d="M19.05,69.18h3.08v3.08H19.05Z"/><path d="M19.05,72.26h3.08v3.09H19.05Z"/><path d="M22.13,75.33h3.09V77H22.13Z"/><path d="M25.22,75.33H28.3V77H25.22Z"/><path d="M28.3,75.33h3.09V77H28.3Z"/><path d="M31.39,75.33h3.08V77H31.39Z"/><path d="M34.47,75.33h3.09V77H34.47Z"/><path d="M37.56,75.33h3.08V77H37.56Z"/><path d="M40.64,75.33h3.09V77H40.64Z"/><path d="M43.73,75.33h3.08V77H43.73Z"/><path d="M46.81,75.33H49.9V77H46.81Z"/><path d="M49.9,75.33H53V77H49.9Z"/><path d="M53,75.33h3.08V77H53Z"/><path d="M56.07,75.33h3.09V77H56.07Z"/><path d="M59.16,75.33h3.08V77H59.16Z"/><path d="M62.24,75.33h3.09V77H62.24Z"/><path d="M65.33,75.33h3.08V77H65.33Z"/><path d="M68.41,75.33H71.5V77H68.41Z"/><path d="M71.5,75.33h3.08V77H71.5Z"/><path d="M74.58,75.33h3.09V77H74.58Z"/><path d="M77.67,75.33h3.08V77H77.67Z"/><path d="M80.75,75.33h3.09V77H80.75Z"/><path d="M83.84,75.33h3.08V77H83.84Z"/><path d="M86.92,75.33H90V77H86.92Z"/><path d="M90,75.33h3.08V77H90Z"/><path d="M93.09,75.33h3.09V77H93.09Z"/><path d="M96.18,75.33h3.08V77H96.18Z"/><path d="M99.26,75.33h3.09V77H99.26Z"/><path d="M102.35,75.33h3.08V77h-3.08Z"/><path d="M105.43,75.33h3.09V77h-3.09Z"/><path d="M108.52,75.33h3.08V77h-3.08Z"/><path d="M111.6,75.33h3.09V77H111.6Z"/><path d="M114.69,75.33h3.08V77h-3.08Z"/><path d="M117.77,75.33h3.09V77h-3.09Z"/><path d="M120.86,75.33h3.08V77h-3.08Z"/><path d="M19.05,75.33h3.08V77H19.05Z"/></g></g></svg>