<svg xmlns="http://www.w3.org/2000/svg" viewBox="0 0 112.65 101.07"><g id="bf417b12-7c1e-4f63-81ca-2c231b40a7c2" data-name="Layer 2"><g id="aaacfdcf-28b4-4fe9-87e0-73f550e4cd91" data-name="Capa 1"><circle cx="56.33" cy="50.54" r="50.54" style="fill:none"/><path d="M53.94,40.25a4.1,4.1,0,0,0-1.84-3.19l-27.63-16a1.42,1.42,0,0,0-1.2-.19h0l0,0-.22.13-1.76.63-.25.15a1.37,1.37,0,0,0-.41,1.09V48h0v0L51.94,66.1,31.42,77.9a.64.64,0,0,0-.24-.25L19,70.59c-.11.29-.41.39-.76.19l-4.35-2.51a1.8,1.8,0,0,1-.76-1.07L.32,59.83a.26.26,0,0,0-.21,0h0A.21.21,0,0,0,0,60v1.81a.68.68,0,0,0,.32.54L31.18,80.18a.23.23,0,0,0,.11,0l.19-.11,22.46-13" style="fill:#344a5e"/><path d="M31.51,79.83a.31.31,0,0,1-.22.38.23.23,0,0,1-.11,0L.32,62.36A.68.68,0,0,1,0,61.82V60a.21.21,0,0,1,.11-.21.26.26,0,0,1,.21,0L13.09,67.2a1.8,1.8,0,0,0,.76,1.07l4.35,2.51c.35.2.65.1.76-.19l12.22,7.06a.64.64,0,0,1,.24.25.6.6,0,0,1,.08.29" style="fill:#cdd6e0"/><path d="M20.6,48,51.94,66.1,31.42,77.9a.6.6,0,0,1,.08.29V80a.36.36,0,0,1,0,.11h0l22.46-13-2-1" style="fill:#cdd6e0"/><path d="M52,66.14,31.43,77.93a.64.64,0,0,0-.24-.25L19,70.63c-.11.29-.41.38-.76.18L13.86,68.3a1.81,1.81,0,0,1-.76-1.06L.33,59.86a.22.22,0,0,0-.21,0h0L20.61,48v0Z" style="fill:#acb3ba"/><polygon points="13.65 64.06 24.14 70.37 30.09 66.68 19.52 60.41 13.65 64.06" style="fill:#cdd6e0"/><polygon points="49.81 62.57 22.72 46.93 22.72 24.35 49.81 39.99 49.81 62.57"/><path d="M51.94,66.1V41a4.09,4.09,0,0,0-1.85-3.19l-27.64-16a1.39,1.39,0,0,0-1.19-.18L23,21.07l.22-.13,0,0h0a1.42,1.42,0,0,1,1.2.19l27.63,16a4.07,4.07,0,0,1,1.84,3.19V67.1" style="fill:#1a252d"/><path d="M58.71,40.25a4.13,4.13,0,0,1,1.84-3.19l27.64-16a1.4,1.4,0,0,1,1.19-.19h0l0,0,.22.13,1.76.63.25.15a1.37,1.37,0,0,1,.41,1.09V48h0v0L60.72,66.1,81.24,77.9a.61.61,0,0,1,.23-.25l12.22-7.06c.12.29.42.39.77.19l4.35-2.51a1.83,1.83,0,0,0,.75-1.07l12.78-7.37a.24.24,0,0,1,.2,0h0a.21.21,0,0,1,.11.21v1.81a.69.69,0,0,1-.31.54L81.47,80.18a.2.2,0,0,1-.11,0l-.18-.11-22.47-13" style="fill:#344a5e"/><path d="M81.15,78.19a.75.75,0,0,1,.09-.29.61.61,0,0,1,.23-.25l12.22-7.06c.12.29.42.39.77.19l4.35-2.51a1.83,1.83,0,0,0,.75-1.07l12.78-7.37a.24.24,0,0,1,.2,0,.21.21,0,0,1,.11.21v1.81a.69.69,0,0,1-.31.54L81.47,80.18a.2.2,0,0,1-.11,0,.31.31,0,0,1-.22-.38" style="fill:#cdd6e0"/><path d="M92.05,48,60.72,66.1,81.24,77.9a.75.75,0,0,0-.09.29V80a.2.2,0,0,0,0,.11h0l-22.47-13,2-1" style="fill:#cdd6e0"/><path d="M92,48v0l20.49,11.82h0a.2.2,0,0,0-.2,0L99.55,67.24a1.84,1.84,0,0,1-.75,1.06l-4.35,2.51c-.35.2-.65.11-.77-.18L81.46,77.68a.61.61,0,0,0-.23.25L60.71,66.14Z" style="fill:#acb3ba"/><polygon points="93.14 60.41 82.57 66.68 88.51 70.37 99.01 64.06 93.14 60.41" style="fill:#cdd6e0"/><polygon points="62.39 39.99 89.49 24.35 89.49 46.93 62.39 62.57 62.39 39.99"/><path d="M60.72,66.1V41a4.07,4.07,0,0,1,1.85-3.19l27.63-16a1.4,1.4,0,0,1,1.19-.18l-1.76-.63-.22-.13,0,0h0a1.4,1.4,0,0,0-1.19.19l-27.64,16a4.13,4.13,0,0,0-1.84,3.19V67.1" style="fill:#1a252d"/><path d="M43,39.69l-.78-.46-.79-.45-.79-.46-.79-.45v.79l-.78-.46V39l-.79-.45v.78l-.79-.45v.79l-.79-.46V40l-.79-.46v.79l-.78-.45v.78l-.79-.45V41l-.79-.46v.79l-.79-.45L32,40.41,31.21,40l-.79-.46v3.15l-.79-.45V43l-.79-.46v.79l-.78-.46V46.8l.78.46.79.45.79.46.79.45.78.46v-.79l.79.45V48l.79.45v-.79l.79.46.79.45.78.46.79.45V46.29l.79.46V46l.79.45v-.78l.79.45v-.79l.78.46V45l.79.45v-.78l.79.45v-.79l.79.46V44l.78.46v-.79l.79.45V40.14Zm0,1.57v1.58l-.78-.45v.78l-.79-.45v.79l-.79-.46v.79l-.79-.46v.79l-.78-.45v.79l-.79-.46v.79l-.79-.46v.79l-.79-.45v.78l-.79-.45V48.2l-.78-.45-.79-.46V46.5l-.79-.45-.79-.46v.79L32,45.93v.78l-.78-.45v1.57l-.79-.45-.79-.45-.79-.46V44.11l.79.45.79.46v-.79l.79.45V43.9l.78.45V42.77l-.78-.45V40.74l.78.46.79.45.79.46.79.45v-.78l.79.45v-.79l.78.46v-.79l.79.45v-.78l.79.45v-.79l.79.46v-.79l.79.46v-.79l.78.45v-.79l.79.46v-.79l.79.46.79.45.78.46Z" style="fill:#37dd37"/><polygon points="41.45 41.14 41.45 40.35 40.66 39.9 40.66 40.69 41.45 41.14" style="fill:#37dd37"/><polygon points="40.66 41.48 40.66 40.69 39.87 40.23 39.87 41.02 40.66 41.48" style="fill:#37dd37"/><polygon points="41.45 41.14 41.45 41.93 42.24 42.38 42.24 41.6 41.45 41.14" style="fill:#37dd37"/><polygon points="39.87 41.81 39.87 41.02 39.09 40.57 39.09 41.35 39.87 41.81" style="fill:#37dd37"/><polygon points="40.66 41.48 40.66 42.26 41.45 42.72 41.45 41.93 40.66 41.48" style="fill:#37dd37"/><polygon points="39.09 42.14 39.09 41.35 38.3 40.9 38.3 41.69 39.09 42.14" style="fill:#37dd37"/><polygon points="39.87 41.81 39.87 42.6 40.66 43.05 40.66 42.26 39.87 41.81" style="fill:#37dd37"/><polygon points="38.3 42.47 38.3 41.69 37.51 41.23 37.51 42.02 38.3 42.47" style="fill:#37dd37"/><polygon points="39.09 42.14 39.09 42.93 39.87 43.38 39.87 42.6 39.09 42.14" style="fill:#37dd37"/><polygon points="37.51 42.81 37.51 42.02 36.72 41.56 36.72 42.35 37.51 42.81" style="fill:#37dd37"/><polygon points="38.3 42.47 38.3 43.26 39.09 43.72 39.09 42.93 38.3 42.47" style="fill:#37dd37"/><polygon points="36.72 43.14 36.72 42.35 35.93 41.9 35.93 42.69 36.72 43.14" style="fill:#37dd37"/><polygon points="37.51 42.81 37.51 43.59 38.3 44.05 38.3 43.26 37.51 42.81" style="fill:#37dd37"/><polygon points="35.93 43.47 35.93 42.69 35.15 42.23 35.15 43.02 35.93 43.47" style="fill:#37dd37"/><polygon points="36.72 43.14 36.72 43.93 37.51 44.38 37.51 43.59 36.72 43.14" style="fill:#37dd37"/><polygon points="35.15 43.81 35.15 43.02 34.36 42.56 34.36 43.35 35.15 43.81" style="fill:#37dd37"/><polygon points="35.93 43.47 35.93 44.26 36.72 44.72 36.72 43.93 35.93 43.47" style="fill:#37dd37"/><polygon points="35.15 43.81 35.15 44.59 35.93 45.05 35.93 44.26 35.15 43.81" style="fill:#37dd37"/><polygon points="32.78 44.02 33.57 44.47 33.57 43.69 33.57 42.9 32.78 42.44 32 41.99 32 42.77 32.78 43.23 32.78 44.02" style="fill:#37dd37"/><polygon points="32 44.35 32 45.14 32.78 45.59 32.78 44.8 32 44.35" style="fill:#37dd37"/><polygon points="35.15 46.17 35.15 45.38 34.36 44.93 33.57 44.47 33.57 45.26 34.36 45.72 34.36 46.5 35.15 46.96 35.15 46.17" style="fill:#37dd37"/><polygon points="31.21 44.68 31.21 45.47 32 45.93 32 45.14 31.21 44.68" style="fill:#37dd37"/><polygon points="30.42 45.02 30.42 45.8 31.21 46.26 31.21 45.47 30.42 45.02" style="fill:#37dd37"/><polygon points="29.63 46.14 30.42 46.59 30.42 45.8 29.63 45.35 29.63 46.14" style="fill:#37dd37"/><polygon points="70.76 41.14 71.55 40.69 71.55 39.9 70.76 40.35 70.76 41.14" style="fill:#37dd37"/><polygon points="71.55 41.48 72.33 41.02 72.33 40.23 71.55 40.69 71.55 41.48" style="fill:#37dd37"/><polygon points="70.76 41.14 69.97 41.6 69.97 42.38 70.76 41.93 70.76 41.14" style="fill:#37dd37"/><polygon points="72.33 41.81 73.12 41.35 73.12 40.57 72.33 41.02 72.33 41.81" style="fill:#37dd37"/><polygon points="71.55 41.48 70.76 41.93 70.76 42.72 71.55 42.26 71.55 41.48" style="fill:#37dd37"/><polygon points="73.12 42.14 73.91 41.69 73.91 40.9 73.12 41.35 73.12 42.14" style="fill:#37dd37"/><polygon points="72.33 41.81 71.55 42.26 71.55 43.05 72.33 42.6 72.33 41.81" style="fill:#37dd37"/><polygon points="73.91 42.47 74.7 42.02 74.7 41.23 73.91 41.69 73.91 42.47" style="fill:#37dd37"/><polygon points="73.12 42.14 72.33 42.6 72.33 43.38 73.12 42.93 73.12 42.14" style="fill:#37dd37"/><polygon points="74.7 42.81 75.49 42.35 75.49 41.56 74.7 42.02 74.7 42.81" style="fill:#37dd37"/><polygon points="73.91 42.47 73.12 42.93 73.12 43.72 73.91 43.26 73.91 42.47" style="fill:#37dd37"/><polygon points="75.49 43.14 76.27 42.69 76.27 41.9 75.49 42.35 75.49 43.14" style="fill:#37dd37"/><polygon points="74.7 42.81 73.91 43.26 73.91 44.05 74.7 43.59 74.7 42.81" style="fill:#37dd37"/><polygon points="76.27 43.47 77.06 43.02 77.06 42.23 76.27 42.69 76.27 43.47" style="fill:#37dd37"/><polygon points="75.49 43.14 74.7 43.59 74.7 44.38 75.49 43.93 75.49 43.14" style="fill:#37dd37"/><polygon points="77.06 43.81 77.85 43.35 77.85 42.56 77.06 43.02 77.06 43.81" style="fill:#37dd37"/><polygon points="76.27 43.47 75.49 43.93 75.49 44.72 76.27 44.26 76.27 43.47" style="fill:#37dd37"/><polygon points="79.42 42.44 78.64 42.9 78.64 43.69 78.64 44.47 79.42 44.02 79.42 43.23 80.21 42.77 80.21 41.99 79.42 42.44" style="fill:#37dd37"/><polygon points="77.06 43.81 76.27 44.26 76.27 45.05 77.06 44.59 77.06 43.81" style="fill:#37dd37"/><polygon points="78.64 45.26 78.64 44.47 77.85 44.93 77.06 45.38 77.06 46.17 77.06 46.96 77.85 46.5 77.85 45.72 78.64 45.26" style="fill:#37dd37"/><polygon points="80.21 44.35 79.42 44.8 79.42 45.59 80.21 45.14 80.21 44.35" style="fill:#37dd37"/><path d="M83.36,43.32v-.79l-.78.46V42.2l-.79.45V39.5L81,40l-.79.45-.78.46-.79.45v-.79l-.79.46V40.2l-.79.45v-.78l-.79.45v-.79l-.78.46V39.2l-.79.46v-.79l-.79.45v-.78l-.79.45V38.2l-.79.46v-.79l-.78.45-.79.46-.79.45-.79.46-.78.45v3.94l.78-.45v.79L70,44v.79l.79-.46v.79l.79-.45v.78l.78-.45v.79l.79-.46v.79l.79-.45v.78L74.7,46v.79l.79-.46v3.15l.78-.45.79-.46.79-.45.79-.46v.79l.79-.45v.78l.78-.45v.79l.79-.46.79-.45.79-.46.78-.45.79-.46V42.86Zm0,1.57v1.58l-.78.46-.79.45-.79.45V46.26l-.79.45v-.78l-.78.45v-.79l-.79.46-.79.45v.79l-.79.46-.79.45V45.05l-.78.45v-.78l-.79.45v-.79l-.79.46v-.79l-.79.46v-.79l-.79.45v-.79l-.78.46v-.79l-.79.46v-.79l-.79.45v-.78l-.79.45V40.48L70,40l.79-.45.79-.46v.79l.78-.46v.79l.79-.45v.79l.79-.46v.79l.79-.46v.79l.79-.45v.78l.78-.45v.79l.79-.46v.79l.79-.45v.78l.79-.45.79-.46.78-.45.79-.46v1.58l-.79.45v1.58L81,43.9v.78l.79-.45V45l.79-.46.78-.45Z" style="fill:#37dd37"/><polygon points="81 44.68 80.21 45.14 80.21 45.93 81 45.47 81 44.68" style="fill:#37dd37"/><polygon points="81.79 45.02 81 45.47 81 46.26 81.79 45.8 81.79 45.02" style="fill:#37dd37"/><polygon points="82.58 46.14 82.58 45.35 81.79 45.8 81.79 46.59 82.58 46.14" style="fill:#37dd37"/></g></g></svg>