<svg xmlns="http://www.w3.org/2000/svg" viewBox="0 0 337.05 177.57"><defs><style>.cls-1{fill:#344a5e;}.cls-2{fill:#cdd6e0;}.cls-3{fill:#acb3ba;}.cls-4{fill:#1a252d;}.cls-5{fill:#37dd37;}</style></defs><title>Asset 2</title><g id="Layer_2" data-name="Layer 2"><g id="Capa_1" data-name="Capa 1"><path class="cls-1" d="M161.39,58a12.22,12.22,0,0,0-5.51-9.54L73.2.74A4.08,4.08,0,0,0,69.63.19h0l-.08,0-.64.4L63.62,2.5,62.87,3a4.12,4.12,0,0,0-1.22,3.27v74.9h0v.1l93.74,54.14L94,170.65a1.87,1.87,0,0,0-.7-.75L56.74,148.79c-.35.87-1.25,1.15-2.3.55l-13-7.5a5.53,5.53,0,0,1-2.27-3.19L1,116.59a.65.65,0,0,0-.62-.08v0h0v0a.6.6,0,0,0-.32.63v5.39A2,2,0,0,0,1,124.15L93.3,177.47a.91.91,0,0,0,.33.1l.54-.33,67.22-38.9"/><path class="cls-2" d="M94.28,176.42a.93.93,0,0,1-.65,1.15.91.91,0,0,1-.33-.1L1,124.15A2,2,0,0,1,0,122.53v-5.39a.6.6,0,0,1,.32-.63.65.65,0,0,1,.62.08l38.21,22.06a5.53,5.53,0,0,0,2.27,3.19l13,7.5c1.05.6,2,.32,2.3-.55L93.3,169.9a1.87,1.87,0,0,1,.7.75,1.94,1.94,0,0,1,.25.87"/><path class="cls-2" d="M61.65,81.22l93.74,54.14L94,170.65a1.94,1.94,0,0,1,.25.87v5.4a.61.61,0,0,1-.08.32h0l67.22-38.9-6-3"/><path class="cls-3" d="M155.42,135.46,94,170.75a1.87,1.87,0,0,0-.7-.75L56.77,148.89c-.35.87-1.25,1.15-2.3.55l-13-7.5a5.53,5.53,0,0,1-2.27-3.19L1,116.69a.65.65,0,0,0-.62-.08v0L61.68,81.22v.1Z"/><polygon class="cls-2" points="40.83 129.24 72.23 148.13 90.01 137.07 58.4 118.32 40.83 129.24"/><polygon points="149.04 124.78 67.98 77.98 67.98 10.43 149.04 57.23 149.04 124.78"/><path class="cls-4" d="M155.39,135.36v-75a12.19,12.19,0,0,0-5.53-9.52L67.18,3.05a4.2,4.2,0,0,0-3.56-.55L68.89.64l.64-.4.08,0h0A4.11,4.11,0,0,1,73.2.73l82.68,47.74A12.22,12.22,0,0,1,161.39,58v80.33"/><polygon class="cls-5" points="68.41 21.39 148.58 65.71 148.58 115.39 68.41 71.08 68.41 21.39"/><path d="M68.18,19.05l2.37,1.36v2.37l-2.37-1.37Z"/><path d="M70.55,20.41l2.36,1.37v2.36l-2.36-1.36Z"/><path d="M72.91,21.78l2.37,1.36v2.37l-2.37-1.37Z"/><path d="M75.28,23.14l2.36,1.37v2.36l-2.36-1.36Z"/><path d="M77.64,24.51,80,25.87v2.37l-2.37-1.37Z"/><path d="M80,25.87l2.36,1.37V29.6L80,28.24Z"/><path d="M82.37,27.24l2.37,1.36V31L82.37,29.6Z"/><path d="M84.74,28.6,87.1,30v2.36L84.74,31Z"/><path d="M87.1,30l2.37,1.37V33.7L87.1,32.33Z"/><path d="M89.47,31.34l2.36,1.36v2.36L89.47,33.7Z"/><path d="M91.83,32.7l2.36,1.37v2.36l-2.36-1.37Z"/><path d="M94.19,34.07l2.37,1.36V37.8l-2.37-1.37Z"/><path d="M96.56,35.43l2.36,1.37v2.36L96.56,37.8Z"/><path d="M98.92,36.8l2.37,1.36v2.37l-2.37-1.37Z"/><path d="M101.29,38.16l2.36,1.37v2.36l-2.36-1.36Z"/><path d="M103.65,39.53,106,40.89v2.37l-2.37-1.37Z"/><path d="M106,40.89l2.36,1.37v2.36L106,43.26Z"/><path d="M108.38,42.26l2.37,1.36V46l-2.37-1.37Z"/><path d="M110.75,43.62,113.11,45v2.36L110.75,46Z"/><path d="M113.11,45l2.37,1.36v2.37l-2.37-1.37Z"/><path d="M115.48,46.35l2.36,1.37v2.36l-2.36-1.36Z"/><path d="M117.84,47.72l2.37,1.36v2.37l-2.37-1.37Z"/><path d="M120.21,49.08l2.36,1.37v2.36l-2.36-1.36Z"/><path d="M122.57,50.45l2.37,1.36v2.37l-2.37-1.37Z"/><path d="M124.94,51.81l2.36,1.37v2.36l-2.36-1.36Z"/><path d="M127.3,53.18l2.36,1.36v2.37l-2.36-1.37Z"/><path d="M129.66,54.54,132,55.91v2.36l-2.37-1.36Z"/><path d="M132,55.91l2.36,1.36v2.37L132,58.27Z"/><path d="M134.39,57.27l2.37,1.37V61l-2.37-1.36Z"/><path d="M136.76,58.64,139.12,60v2.36L136.76,61Z"/><path d="M139.12,60l2.37,1.36v2.37l-2.37-1.37Z"/><path d="M141.49,61.37l2.36,1.37V65.1l-2.36-1.36Z"/><path d="M143.85,62.74l2.37,1.36v2.37l-2.37-1.37Z"/><path d="M146.22,64.1l2.36,1.37v2.36l-2.36-1.36Z"/><path d="M68.18,21.41l2.37,1.37v2.36l-2.37-1.36Z"/><path d="M70.55,22.78l2.36,1.36v2.37l-2.36-1.37Z"/><path d="M72.91,24.14l2.37,1.37v2.36l-2.37-1.36Z"/><path d="M75.28,25.51l2.36,1.36v2.37l-2.36-1.37Z"/><path d="M77.64,26.87,80,28.24V30.6l-2.37-1.36Z"/><path d="M80,28.24l2.36,1.36V32L80,30.6Z"/><path d="M82.37,29.6,84.74,31v2.36L82.37,32Z"/><path d="M84.74,31l2.36,1.36V34.7l-2.36-1.37Z"/><path d="M87.1,32.33l2.37,1.37v2.36L87.1,34.7Z"/><path d="M89.47,33.7l2.36,1.36v2.37l-2.36-1.37Z"/><path d="M91.83,35.06l2.36,1.37v2.36l-2.36-1.36Z"/><path d="M94.19,36.43l2.37,1.37v2.36l-2.37-1.37Z"/><path d="M96.56,37.8l2.36,1.36v2.37l-2.36-1.37Z"/><path d="M98.92,39.16l2.37,1.37v2.36l-2.37-1.36Z"/><path d="M101.29,40.53l2.36,1.36v2.37l-2.36-1.37Z"/><path d="M103.65,41.89,106,43.26v2.36l-2.37-1.36Z"/><path d="M106,43.26l2.36,1.36V47L106,45.62Z"/><path d="M108.38,44.62,110.75,46v2.36L108.38,47Z"/><path d="M110.75,46l2.36,1.36v2.37l-2.36-1.37Z"/><path d="M113.11,47.35l2.37,1.37v2.36l-2.37-1.36Z"/><path d="M115.48,48.72l2.36,1.36v2.37l-2.36-1.37Z"/><path d="M132,58.27l2.36,1.37V62L132,60.64Z"/><path d="M134.39,59.64,136.76,61v2.37L134.39,62Z"/><path d="M136.76,61l2.36,1.37v2.36l-2.36-1.36Z"/><path d="M139.12,62.37l2.37,1.37V66.1l-2.37-1.37Z"/><path d="M141.49,63.74l2.36,1.36v2.36l-2.36-1.36Z"/><path d="M143.85,65.1l2.37,1.37v2.36l-2.37-1.37Z"/><path d="M146.22,66.47l2.36,1.36V70.2l-2.36-1.37Z"/><path d="M68.18,23.78l2.37,1.36v2.37l-2.37-1.37Z"/><path d="M70.55,25.14l2.36,1.37v2.36l-2.36-1.36Z"/><path d="M72.91,26.51l2.37,1.36v2.37l-2.37-1.37Z"/><path d="M75.28,27.87l2.36,1.37V31.6l-2.36-1.36Z"/><path d="M77.64,29.24,80,30.6V33L77.64,31.6Z"/><path d="M80,30.6,82.37,32v2.36L80,33Z"/><path d="M82.37,32l2.37,1.36V35.7l-2.37-1.37Z"/><path d="M84.74,33.33,87.1,34.7v2.36L84.74,35.7Z"/><path d="M87.1,34.7l2.37,1.36v2.37L87.1,37.06Z"/><path d="M89.47,36.06l2.36,1.37v2.36l-2.36-1.36Z"/><path d="M91.83,37.43l2.36,1.36v2.37l-2.36-1.37Z"/><path d="M94.19,38.79l2.37,1.37v2.36l-2.37-1.36Z"/><path d="M96.56,40.16l2.36,1.37v2.36l-2.36-1.37Z"/><path d="M98.92,41.53l2.37,1.36v2.37l-2.37-1.37Z"/><path d="M101.29,42.89l2.36,1.37v2.36l-2.36-1.36Z"/><path d="M103.65,44.26,106,45.62V48l-2.37-1.37Z"/><path d="M106,45.62,108.38,47v2.36L106,48Z"/><path d="M108.38,47l2.37,1.36v2.37l-2.37-1.37Z"/><path d="M110.75,48.35l2.36,1.37v2.36l-2.36-1.36Z"/><path d="M113.11,49.72l2.37,1.36v2.37l-2.37-1.37Z"/><path d="M115.48,51.08l2.36,1.37v2.36l-2.36-1.36Z"/><path d="M122.57,55.18l2.37,1.36v2.37l-2.37-1.37Z"/><path d="M124.94,56.54l2.36,1.37v2.36l-2.36-1.36Z"/><path d="M127.3,57.91l2.36,1.36v2.37l-2.36-1.37Z"/><path d="M132,60.64,134.39,62v2.37L132,63Z"/><path d="M134.39,62l2.37,1.37v2.36l-2.37-1.36Z"/><path d="M136.76,63.37l2.36,1.36V67.1l-2.36-1.37Z"/><path d="M139.12,64.73l2.37,1.37v2.36l-2.37-1.36Z"/><path d="M141.49,66.1l2.36,1.36v2.37l-2.36-1.37Z"/><path d="M143.85,67.46l2.37,1.37v2.36l-2.37-1.36Z"/><path d="M146.22,68.83l2.36,1.37v2.36l-2.36-1.37Z"/><path d="M68.18,26.14l2.37,1.37v2.36l-2.37-1.36Z"/><path d="M70.55,27.51l2.36,1.36v2.37l-2.36-1.37Z"/><path d="M72.91,28.87l2.37,1.37V32.6l-2.37-1.36Z"/><path d="M75.28,30.24l2.36,1.36V34L75.28,32.6Z"/><path d="M77.64,31.6,80,33v2.36L77.64,34Z"/><path d="M80,33l2.36,1.36V36.7L80,35.33Z"/><path d="M82.37,34.33l2.37,1.37v2.36L82.37,36.7Z"/><path d="M84.74,35.7l2.36,1.36v2.37l-2.36-1.37Z"/><path d="M87.1,37.06l2.37,1.37v2.36L87.1,39.43Z"/><path d="M89.47,38.43l2.36,1.36v2.37l-2.36-1.37Z"/><path d="M91.83,39.79l2.36,1.37v2.36l-2.36-1.36Z"/><path d="M94.19,41.16l2.37,1.36v2.37l-2.37-1.37Z"/><path d="M96.56,42.52l2.36,1.37v2.36l-2.36-1.36Z"/><path d="M98.92,43.89l2.37,1.37v2.36l-2.37-1.37Z"/><path d="M101.29,45.26l2.36,1.36V49l-2.36-1.37Z"/><path d="M103.65,46.62,106,48v2.36L103.65,49Z"/><path d="M106,48l2.36,1.36v2.37L106,50.35Z"/><path d="M108.38,49.35l2.37,1.37v2.36l-2.37-1.36Z"/><path d="M110.75,50.72l2.36,1.36v2.37l-2.36-1.37Z"/><path d="M120.21,56.18l2.36,1.36v2.37l-2.36-1.37Z"/><path d="M124.94,58.91l2.36,1.36v2.37l-2.36-1.37Z"/><path d="M127.3,60.27l2.36,1.37V64l-2.36-1.36Z"/><path d="M132,63l2.36,1.37v2.36L132,65.37Z"/><path d="M134.39,64.37l2.37,1.36V68.1l-2.37-1.37Z"/><path d="M136.76,65.73l2.36,1.37v2.36l-2.36-1.36Z"/><path d="M139.12,67.1l2.37,1.36v2.37l-2.37-1.37Z"/><path d="M141.49,68.46l2.36,1.37v2.36l-2.36-1.36Z"/><path d="M143.85,69.83l2.37,1.36v2.37l-2.37-1.37Z"/><path d="M146.22,71.19l2.36,1.37v2.36l-2.36-1.36Z"/><path d="M68.18,28.51l2.37,1.36v2.37l-2.37-1.37Z"/><path d="M70.55,29.87l2.36,1.37V33.6l-2.36-1.36Z"/><path d="M72.91,31.24l2.37,1.36V35L72.91,33.6Z"/><path d="M75.28,32.6,77.64,34v2.36L75.28,35Z"/><path d="M77.64,34,80,35.33V37.7l-2.37-1.37Z"/><path d="M80,35.33l2.36,1.37v2.36L80,37.7Z"/><path d="M82.37,36.7l2.37,1.36v2.37l-2.37-1.37Z"/><path d="M84.74,38.06l2.36,1.37v2.36l-2.36-1.36Z"/><path d="M87.1,39.43l2.37,1.36v2.37L87.1,41.79Z"/><path d="M89.47,40.79l2.36,1.37v2.36l-2.36-1.36Z"/><path d="M91.83,42.16l2.36,1.36v2.37l-2.36-1.37Z"/><path d="M94.19,43.52l2.37,1.37v2.36l-2.37-1.36Z"/><path d="M96.56,44.89l2.36,1.36v2.37l-2.36-1.37Z"/><path d="M98.92,46.25l2.37,1.37V50l-2.37-1.36Z"/><path d="M101.29,47.62,103.65,49v2.36L101.29,50Z"/><path d="M103.65,49,106,50.35v2.37l-2.37-1.37Z"/><path d="M106,50.35l2.36,1.37v2.36L106,52.72Z"/><path d="M108.38,51.72l2.37,1.36v2.37l-2.37-1.37Z"/><path d="M117.84,57.18l2.37,1.36v2.37l-2.37-1.37Z"/><path d="M122.57,59.91l2.37,1.36v2.37l-2.37-1.37Z"/><path d="M127.3,62.64,129.66,64v2.37L127.3,65Z"/><path d="M132,65.37l2.36,1.36V69.1L132,67.73Z"/><path d="M134.39,66.73l2.37,1.37v2.36l-2.37-1.36Z"/><path d="M136.76,68.1l2.36,1.36v2.37l-2.36-1.37Z"/><path d="M139.12,69.46l2.37,1.37v2.36l-2.37-1.36Z"/><path d="M141.49,70.83l2.36,1.36v2.37l-2.36-1.37Z"/><path d="M143.85,72.19l2.37,1.37v2.36l-2.37-1.36Z"/><path d="M146.22,73.56l2.36,1.36v2.37l-2.36-1.37Z"/><path d="M68.18,30.87l2.37,1.37V34.6l-2.37-1.36Z"/><path d="M70.55,32.24l2.36,1.36V36L70.55,34.6Z"/><path d="M72.91,33.6,75.28,35v2.36L72.91,36Z"/><path d="M75.28,35l2.36,1.36V38.7l-2.36-1.37Z"/><path d="M77.64,36.33,80,37.7v2.36L77.64,38.7Z"/><path d="M80,37.7l2.36,1.36v2.37L80,40.06Z"/><path d="M82.37,39.06l2.37,1.37v2.36l-2.37-1.36Z"/><path d="M84.74,40.43l2.36,1.36v2.37l-2.36-1.37Z"/><path d="M87.1,41.79l2.37,1.37v2.36L87.1,44.16Z"/><path d="M89.47,43.16l2.36,1.36v2.37l-2.36-1.37Z"/><path d="M91.83,44.52l2.36,1.37v2.36l-2.36-1.36Z"/><path d="M94.19,45.89l2.37,1.36v2.37l-2.37-1.37Z"/><path d="M96.56,47.25l2.36,1.37V51l-2.36-1.36Z"/><path d="M98.92,48.62,101.29,50v2.37L98.92,51Z"/><path d="M101.29,50l2.36,1.37v2.36l-2.36-1.36Z"/><path d="M103.65,51.35,106,52.72v2.36l-2.37-1.37Z"/><path d="M106,52.72l2.36,1.36v2.36L106,55.08Z"/><path d="M108.38,54.08l2.37,1.37v2.36l-2.37-1.37Z"/><path d="M115.48,58.18l2.36,1.36v2.37l-2.36-1.37Z"/><path d="M120.21,60.91l2.36,1.36v2.37l-2.36-1.37Z"/><path d="M124.94,63.64,127.3,65v2.37L124.94,66Z"/><path d="M132,67.73l2.36,1.37v2.36L132,70.1Z"/><path d="M134.39,69.1l2.37,1.36v2.37l-2.37-1.37Z"/><path d="M136.76,70.46l2.36,1.37v2.36l-2.36-1.36Z"/><path d="M139.12,71.83l2.37,1.36v2.37l-2.37-1.37Z"/><path d="M141.49,73.19l2.36,1.37v2.36l-2.36-1.36Z"/><path d="M143.85,74.56l2.37,1.36v2.37l-2.37-1.37Z"/><path d="M146.22,75.92l2.36,1.37v2.36l-2.36-1.36Z"/><path d="M68.18,33.24l2.37,1.36V37L68.18,35.6Z"/><path d="M70.55,34.6,72.91,36v2.36L70.55,37Z"/><path d="M72.91,36l2.37,1.36V39.7l-2.37-1.37Z"/><path d="M75.28,37.33l2.36,1.37v2.36L75.28,39.7Z"/><path d="M77.64,38.7,80,40.06v2.37l-2.37-1.37Z"/><path d="M80,40.06l2.36,1.37v2.36L80,42.43Z"/><path d="M82.37,41.43l2.37,1.36v2.37l-2.37-1.37Z"/><path d="M84.74,42.79l2.36,1.37v2.36l-2.36-1.36Z"/><path d="M87.1,44.16l2.37,1.36v2.37L87.1,46.52Z"/><path d="M89.47,45.52l2.36,1.37v2.36l-2.36-1.36Z"/><path d="M91.83,46.89l2.36,1.36v2.37l-2.36-1.37Z"/><path d="M94.19,48.25l2.37,1.37V52l-2.37-1.36Z"/><path d="M96.56,49.62,98.92,51v2.37L96.56,52Z"/><path d="M98.92,51l2.37,1.37v2.36l-2.37-1.36Z"/><path d="M101.29,52.35l2.36,1.36v2.37l-2.36-1.37Z"/><path d="M103.65,53.71,106,55.08v2.36l-2.37-1.36Z"/><path d="M106,55.08l2.36,1.36v2.37L106,57.44Z"/><path d="M113.11,59.18l2.37,1.36v2.37l-2.37-1.37Z"/><path d="M117.84,61.91l2.37,1.36v2.37l-2.37-1.37Z"/><path d="M122.57,64.64,124.94,66v2.37L122.57,67Z"/><path d="M129.66,68.73,132,70.1v2.36l-2.37-1.36Z"/><path d="M132,70.1l2.36,1.36v2.37L132,72.46Z"/><path d="M134.39,71.46l2.37,1.37v2.36l-2.37-1.36Z"/><path d="M136.76,72.83l2.36,1.36v2.37l-2.36-1.37Z"/><path d="M139.12,74.19l2.37,1.37v2.36l-2.37-1.36Z"/><path d="M141.49,75.56l2.36,1.36v2.37l-2.36-1.37Z"/><path d="M143.85,76.92l2.37,1.37v2.36l-2.37-1.36Z"/><path d="M146.22,78.29l2.36,1.36V82l-2.36-1.37Z"/><path d="M68.18,35.6,70.55,37v2.36L68.18,38Z"/><path d="M70.55,37l2.36,1.36V40.7l-2.36-1.37Z"/><path d="M72.91,38.33l2.37,1.37v2.36L72.91,40.7Z"/><path d="M75.28,39.7l2.36,1.36v2.37l-2.36-1.37Z"/><path d="M77.64,41.06,80,42.43v2.36l-2.37-1.36Z"/><path d="M80,42.43l2.36,1.36v2.37L80,44.79Z"/><path d="M82.37,43.79l2.37,1.37v2.36l-2.37-1.36Z"/><path d="M84.74,45.16l2.36,1.36v2.37l-2.36-1.37Z"/><path d="M87.1,46.52l2.37,1.37v2.36L87.1,48.89Z"/><path d="M89.47,47.89l2.36,1.36v2.37l-2.36-1.37Z"/><path d="M91.83,49.25l2.36,1.37V53l-2.36-1.36Z"/><path d="M94.19,50.62,96.56,52v2.37L94.19,53Z"/><path d="M96.56,52l2.36,1.37v2.36l-2.36-1.36Z"/><path d="M98.92,53.35l2.37,1.36v2.37l-2.37-1.37Z"/><path d="M101.29,54.71l2.36,1.37v2.36l-2.36-1.36Z"/><path d="M103.65,56.08,106,57.44v2.37l-2.37-1.37Z"/><path d="M110.75,60.17l2.36,1.37V63.9l-2.36-1.36Z"/><path d="M115.48,62.91l2.36,1.36v2.37l-2.36-1.37Z"/><path d="M120.21,65.64,122.57,67v2.37L120.21,68Z"/><path d="M127.3,69.73l2.36,1.37v2.36L127.3,72.1Z"/><path d="M129.66,71.1,132,72.46v2.37l-2.37-1.37Z"/><path d="M132,72.46l2.36,1.37v2.36L132,74.83Z"/><path d="M134.39,73.83l2.37,1.36v2.37l-2.37-1.37Z"/><path d="M136.76,75.19l2.36,1.37v2.36l-2.36-1.36Z"/><path d="M141.49,77.92l2.36,1.37v2.36l-2.36-1.36Z"/><path d="M143.85,79.29l2.37,1.36V83l-2.37-1.37Z"/><path d="M146.22,80.65,148.58,82v2.36L146.22,83Z"/><path d="M68.18,38l2.37,1.36V41.7l-2.37-1.37Z"/><path d="M70.55,39.33l2.36,1.37v2.36L70.55,41.7Z"/><path d="M72.91,40.7l2.37,1.36v2.37l-2.37-1.37Z"/><path d="M75.28,42.06l2.36,1.37v2.36l-2.36-1.36Z"/><path d="M77.64,43.43,80,44.79v2.37l-2.37-1.37Z"/><path d="M80,44.79l2.36,1.37v2.36L80,47.16Z"/><path d="M82.37,46.16l2.37,1.36v2.37l-2.37-1.37Z"/><path d="M84.74,47.52l2.36,1.37v2.36l-2.36-1.36Z"/><path d="M87.1,48.89l2.37,1.36v2.37L87.1,51.25Z"/><path d="M89.47,50.25l2.36,1.37V54l-2.36-1.36Z"/><path d="M91.83,51.62,94.19,53v2.37L91.83,54Z"/><path d="M94.19,53l2.37,1.37v2.36l-2.37-1.36Z"/><path d="M96.56,54.35l2.36,1.36v2.37l-2.36-1.37Z"/><path d="M98.92,55.71l2.37,1.37v2.36l-2.37-1.36Z"/><path d="M101.29,57.08l2.36,1.36v2.37l-2.36-1.37Z"/><path d="M108.38,61.17l2.37,1.37V64.9l-2.37-1.36Z"/><path d="M113.11,63.9l2.37,1.37v2.36l-2.37-1.36Z"/><path d="M117.84,66.64,120.21,68v2.37L117.84,69Z"/><path d="M124.94,70.73l2.36,1.37v2.36l-2.36-1.36Z"/><path d="M127.3,72.1l2.36,1.36v2.37l-2.36-1.37Z"/><path d="M129.66,73.46,132,74.83v2.36l-2.37-1.36Z"/><path d="M132,74.83l2.36,1.36v2.37L132,77.19Z"/><path d="M134.39,76.19l2.37,1.37v2.36l-2.37-1.36Z"/><path d="M136.76,77.56l2.36,1.36v2.37l-2.36-1.37Z"/><path d="M139.12,78.92l2.37,1.37v2.36l-2.37-1.36Z"/><path d="M141.49,80.29l2.36,1.36V84l-2.36-1.37Z"/><path d="M143.85,81.65,146.22,83v2.36L143.85,84Z"/><path d="M146.22,83l2.36,1.36v2.37l-2.36-1.37Z"/><path d="M68.18,40.33l2.37,1.37v2.36l-2.37-1.37Z"/><path d="M70.55,41.7l2.36,1.36v2.37l-2.36-1.37Z"/><path d="M72.91,43.06l2.37,1.37v2.36l-2.37-1.36Z"/><path d="M75.28,44.43l2.36,1.36v2.37l-2.36-1.37Z"/><path d="M77.64,45.79,80,47.16v2.36l-2.37-1.36Z"/><path d="M80,47.16l2.36,1.36v2.37L80,49.52Z"/><path d="M82.37,48.52l2.37,1.37v2.36l-2.37-1.36Z"/><path d="M84.74,49.89l2.36,1.36v2.37l-2.36-1.37Z"/><path d="M87.1,51.25l2.37,1.37V55L87.1,53.62Z"/><path d="M89.47,52.62,91.83,54v2.37L89.47,55Z"/><path d="M91.83,54l2.36,1.37v2.36l-2.36-1.36Z"/><path d="M94.19,55.35l2.37,1.36v2.37l-2.37-1.37Z"/><path d="M96.56,56.71l2.36,1.37v2.36l-2.36-1.36Z"/><path d="M98.92,58.08l2.37,1.36v2.37l-2.37-1.37Z"/><path d="M106,62.17l2.36,1.37V65.9L106,64.54Z"/><path d="M110.75,64.9l2.36,1.37v2.36l-2.36-1.36Z"/><path d="M115.48,67.63,117.84,69v2.36L115.48,70Z"/><path d="M122.57,71.73l2.37,1.37v2.36l-2.37-1.36Z"/><path d="M124.94,73.1l2.36,1.36v2.37l-2.36-1.37Z"/><path d="M127.3,74.46l2.36,1.37v2.36l-2.36-1.36Z"/><path d="M129.66,75.83,132,77.19v2.37l-2.37-1.37Z"/><path d="M132,77.19l2.36,1.37v2.36L132,79.56Z"/><path d="M134.39,78.56l2.37,1.36v2.37l-2.37-1.37Z"/><path d="M136.76,79.92l2.36,1.37v2.36l-2.36-1.36Z"/><path d="M139.12,81.29l2.37,1.36V85l-2.37-1.37Z"/><path d="M141.49,82.65,143.85,84v2.36L141.49,85Z"/><path d="M143.85,84l2.37,1.36v2.37l-2.37-1.37Z"/><path d="M146.22,85.38l2.36,1.37v2.36l-2.36-1.36Z"/><path d="M68.18,42.69l2.37,1.37v2.36l-2.37-1.36Z"/><path d="M70.55,44.06l2.36,1.37v2.36l-2.36-1.37Z"/><path d="M72.91,45.43l2.37,1.36v2.36l-2.37-1.36Z"/><path d="M75.28,46.79l2.36,1.37v2.36l-2.36-1.37Z"/><path d="M77.64,48.16,80,49.52v2.37l-2.37-1.37Z"/><path d="M80,49.52l2.36,1.37v2.36L80,51.89Z"/><path d="M82.37,50.89l2.37,1.36v2.37l-2.37-1.37Z"/><path d="M84.74,52.25l2.36,1.37V56l-2.36-1.36Z"/><path d="M87.1,53.62,89.47,55v2.37L87.1,56Z"/><path d="M89.47,55l2.36,1.37v2.36l-2.36-1.36Z"/><path d="M103.65,63.17,106,64.54V66.9l-2.37-1.36Z"/><path d="M108.38,65.9l2.37,1.37v2.36l-2.37-1.36Z"/><path d="M113.11,68.63,115.48,70v2.36L113.11,71Z"/><path d="M120.21,72.73l2.36,1.37v2.36l-2.36-1.37Z"/><path d="M122.57,74.1l2.37,1.36v2.37l-2.37-1.37Z"/><path d="M124.94,75.46l2.36,1.37v2.36l-2.36-1.36Z"/><path d="M127.3,76.83l2.36,1.36v2.37l-2.36-1.37Z"/><path d="M129.66,78.19,132,79.56v2.36l-2.37-1.36Z"/><path d="M132,79.56l2.36,1.36v2.37L132,81.92Z"/><path d="M134.39,80.92l2.37,1.37v2.36l-2.37-1.36Z"/><path d="M136.76,82.29l2.36,1.36V86l-2.36-1.37Z"/><path d="M139.12,83.65,141.49,85v2.36L139.12,86Z"/><path d="M141.49,85l2.36,1.36v2.37l-2.36-1.37Z"/><path d="M143.85,86.38l2.37,1.37v2.36l-2.37-1.36Z"/><path d="M146.22,87.75l2.36,1.36v2.37l-2.36-1.37Z"/><path d="M68.18,45.06l2.37,1.36v2.37l-2.37-1.37Z"/><path d="M70.55,46.42l2.36,1.37v2.36l-2.36-1.36Z"/><path d="M72.91,47.79l2.37,1.36v2.37l-2.37-1.37Z"/><path d="M75.28,49.15l2.36,1.37v2.36l-2.36-1.36Z"/><path d="M77.64,50.52,80,51.89v2.36l-2.37-1.37Z"/><path d="M80,51.89l2.36,1.36v2.37L80,54.25Z"/><path d="M82.37,53.25l2.37,1.37V57l-2.37-1.36Z"/><path d="M84.74,54.62,87.1,56v2.37L84.74,57Z"/><path d="M87.1,56l2.37,1.37v2.36L87.1,58.35Z"/><path d="M89.47,57.35l2.36,1.36v2.37l-2.36-1.37Z"/><path d="M94.19,60.08l2.37,1.36v2.37l-2.37-1.37Z"/><path d="M96.56,61.44l2.36,1.37v2.36l-2.36-1.36Z"/><path d="M98.92,62.81l2.37,1.36v2.37l-2.37-1.37Z"/><path d="M101.29,64.17l2.36,1.37V67.9l-2.36-1.36Z"/><path d="M106,66.9l2.36,1.37v2.36L106,69.27Z"/><path d="M110.75,69.63,113.11,71v2.36L110.75,72Z"/><path d="M117.84,73.73l2.37,1.36v2.37l-2.37-1.37Z"/><path d="M120.21,75.09l2.36,1.37v2.36l-2.36-1.36Z"/><path d="M122.57,76.46l2.37,1.37v2.36l-2.37-1.37Z"/><path d="M124.94,77.83l2.36,1.36v2.36l-2.36-1.36Z"/><path d="M127.3,79.19l2.36,1.37v2.36l-2.36-1.37Z"/><path d="M129.66,80.56,132,81.92v2.37l-2.37-1.37Z"/><path d="M132,81.92l2.36,1.37v2.36L132,84.29Z"/><path d="M134.39,83.29l2.37,1.36V87l-2.37-1.37Z"/><path d="M136.76,84.65,139.12,86v2.36L136.76,87Z"/><path d="M139.12,86l2.37,1.36v2.37l-2.37-1.37Z"/><path d="M141.49,87.38l2.36,1.37v2.36l-2.36-1.36Z"/><path d="M143.85,88.75l2.37,1.36v2.37l-2.37-1.37Z"/><path d="M146.22,90.11l2.36,1.37v2.36l-2.36-1.36Z"/><path d="M68.18,47.42l2.37,1.37v2.36l-2.37-1.36Z"/><path d="M70.55,48.79l2.36,1.36v2.37l-2.36-1.37Z"/><path d="M72.91,50.15l2.37,1.37v2.36l-2.37-1.36Z"/><path d="M75.28,51.52l2.36,1.36v2.37l-2.36-1.37Z"/><path d="M77.64,52.88,80,54.25v2.36l-2.37-1.36Z"/><path d="M80,54.25l2.36,1.37V58L80,56.61Z"/><path d="M82.37,55.62,84.74,57v2.37L82.37,58Z"/><path d="M84.74,57l2.36,1.37v2.36l-2.36-1.36Z"/><path d="M87.1,58.35l2.37,1.36v2.37L87.1,60.71Z"/><path d="M89.47,59.71l2.36,1.37v2.36l-2.36-1.36Z"/><path d="M94.19,62.44l2.37,1.37v2.36l-2.37-1.36Z"/><path d="M101.29,66.54l2.36,1.36v2.37l-2.36-1.37Z"/><path d="M103.65,67.9,106,69.27v2.36l-2.37-1.36Z"/><path d="M108.38,70.63,110.75,72v2.36L108.38,73Z"/><path d="M115.48,74.73l2.36,1.36v2.37l-2.36-1.37Z"/><path d="M117.84,76.09l2.37,1.37v2.36l-2.37-1.36Z"/><path d="M120.21,77.46l2.36,1.36v2.37l-2.36-1.37Z"/><path d="M122.57,78.82l2.37,1.37v2.36l-2.37-1.36Z"/><path d="M124.94,80.19l2.36,1.36v2.37l-2.36-1.37Z"/><path d="M127.3,81.55l2.36,1.37v2.36l-2.36-1.36Z"/><path d="M129.66,82.92,132,84.29v2.36l-2.37-1.37Z"/><path d="M132,84.29l2.36,1.36V88L132,86.65Z"/><path d="M134.39,85.65,136.76,87v2.36L134.39,88Z"/><path d="M136.76,87l2.36,1.36v2.37l-2.36-1.37Z"/><path d="M139.12,88.38l2.37,1.37v2.36l-2.37-1.36Z"/><path d="M141.49,89.75l2.36,1.36v2.37l-2.36-1.37Z"/><path d="M143.85,91.11l2.37,1.37v2.36l-2.37-1.36Z"/><path d="M146.22,92.48l2.36,1.36v2.37l-2.36-1.37Z"/><path d="M68.18,49.79l2.37,1.36v2.37l-2.37-1.37Z"/><path d="M70.55,51.15l2.36,1.37v2.36l-2.36-1.36Z"/><path d="M72.91,52.52l2.37,1.36v2.37l-2.37-1.37Z"/><path d="M75.28,53.88l2.36,1.37v2.36l-2.36-1.36Z"/><path d="M77.64,55.25,80,56.61V59l-2.37-1.37Z"/><path d="M80,56.61,82.37,58v2.36L80,59Z"/><path d="M82.37,58l2.37,1.37v2.36l-2.37-1.37Z"/><path d="M84.74,59.35l2.36,1.36v2.37l-2.36-1.37Z"/><path d="M87.1,60.71l2.37,1.37v2.36L87.1,63.08Z"/><path d="M89.47,62.08l2.36,1.36v2.37l-2.36-1.37Z"/><path d="M96.56,66.17l2.36,1.37V69.9l-2.36-1.36Z"/><path d="M101.29,68.9l2.36,1.37v2.36l-2.36-1.36Z"/><path d="M103.65,70.27,106,71.63V74l-2.37-1.37Z"/><path d="M106,71.63,108.38,73v2.36L106,74Z"/><path d="M113.11,75.73l2.37,1.36v2.37l-2.37-1.37Z"/><path d="M115.48,77.09l2.36,1.37v2.36l-2.36-1.36Z"/><path d="M117.84,78.46l2.37,1.36v2.37l-2.37-1.37Z"/><path d="M120.21,79.82l2.36,1.37v2.36l-2.36-1.36Z"/><path d="M122.57,81.19l2.37,1.36v2.37l-2.37-1.37Z"/><path d="M124.94,82.55l2.36,1.37v2.36l-2.36-1.36Z"/><path d="M127.3,83.92l2.36,1.36v2.37l-2.36-1.37Z"/><path d="M129.66,85.28,132,86.65V89l-2.37-1.36Z"/><path d="M132,86.65,134.39,88v2.36L132,89Z"/><path d="M134.39,88l2.37,1.36v2.37l-2.37-1.37Z"/><path d="M136.76,89.38l2.36,1.37v2.36l-2.36-1.36Z"/><path d="M139.12,90.75l2.37,1.36v2.37l-2.37-1.37Z"/><path d="M141.49,92.11l2.36,1.37v2.36l-2.36-1.36Z"/><path d="M143.85,93.48l2.37,1.36v2.37l-2.37-1.37Z"/><path d="M146.22,94.84l2.36,1.37v2.36l-2.36-1.36Z"/><path d="M68.18,52.15l2.37,1.37v2.36l-2.37-1.36Z"/><path d="M70.55,53.52l2.36,1.36v2.37l-2.36-1.37Z"/><path d="M72.91,54.88l2.37,1.37v2.36l-2.37-1.36Z"/><path d="M75.28,56.25l2.36,1.36V60l-2.36-1.37Z"/><path d="M77.64,57.61,80,59v2.36L77.64,60Z"/><path d="M80,59l2.36,1.36v2.37L80,61.34Z"/><path d="M82.37,60.34l2.37,1.37v2.36l-2.37-1.36Z"/><path d="M84.74,61.71l2.36,1.37v2.36l-2.36-1.37Z"/><path d="M87.1,63.08l2.37,1.36v2.37L87.1,65.44Z"/><path d="M96.56,68.54l2.36,1.36v2.37L96.56,70.9Z"/><path d="M98.92,69.9l2.37,1.37v2.36l-2.37-1.36Z"/><path d="M106,74l2.36,1.36v2.37L106,76.36Z"/><path d="M110.75,76.73l2.36,1.36v2.37l-2.36-1.37Z"/><path d="M113.11,78.09l2.37,1.37v2.36l-2.37-1.36Z"/><path d="M115.48,79.46l2.36,1.36v2.37l-2.36-1.37Z"/><path d="M117.84,80.82l2.37,1.37v2.36l-2.37-1.36Z"/><path d="M120.21,82.19l2.36,1.36v2.37l-2.36-1.37Z"/><path d="M122.57,83.55l2.37,1.37v2.36l-2.37-1.36Z"/><path d="M124.94,84.92l2.36,1.36v2.37l-2.36-1.37Z"/><path d="M127.3,86.28l2.36,1.37V90l-2.36-1.36Z"/><path d="M129.66,87.65,132,89v2.37L129.66,90Z"/><path d="M132,89l2.36,1.37v2.36L132,91.38Z"/><path d="M134.39,90.38l2.37,1.37v2.36l-2.37-1.37Z"/><path d="M136.76,91.75l2.36,1.36v2.37l-2.36-1.37Z"/><path d="M139.12,93.11l2.37,1.37v2.36l-2.37-1.36Z"/><path d="M141.49,94.48l2.36,1.36v2.37l-2.36-1.37Z"/><path d="M143.85,95.84l2.37,1.37v2.36l-2.37-1.36Z"/><path d="M146.22,97.21l2.36,1.36v2.37l-2.36-1.37Z"/><path d="M68.18,54.52l2.37,1.36v2.37l-2.37-1.37Z"/><path d="M70.55,55.88l2.36,1.37v2.36l-2.36-1.36Z"/><path d="M72.91,57.25l2.37,1.36V61l-2.37-1.37Z"/><path d="M75.28,58.61,77.64,60v2.36L75.28,61Z"/><path d="M77.64,60,80,61.34v2.37l-2.37-1.37Z"/><path d="M80,61.34l2.36,1.37v2.36L80,63.71Z"/><path d="M82.37,62.71l2.37,1.36v2.37l-2.37-1.37Z"/><path d="M84.74,64.07l2.36,1.37V67.8l-2.36-1.36Z"/><path d="M94.19,69.54l2.37,1.36v2.37L94.19,71.9Z"/><path d="M98.92,72.27l2.37,1.36V76l-2.37-1.37Z"/><path d="M101.29,73.63,103.65,75v2.36L101.29,76Z"/><path d="M106,76.36l2.36,1.37v2.36L106,78.73Z"/><path d="M110.75,79.09l2.36,1.37v2.36l-2.36-1.36Z"/><path d="M113.11,80.46l2.37,1.36v2.37l-2.37-1.37Z"/><path d="M115.48,81.82l2.36,1.37v2.36l-2.36-1.36Z"/><path d="M117.84,83.19l2.37,1.36v2.37l-2.37-1.37Z"/><path d="M120.21,84.55l2.36,1.37v2.36l-2.36-1.36Z"/><path d="M122.57,85.92l2.37,1.36v2.37l-2.37-1.37Z"/><path d="M124.94,87.28l2.36,1.37V91l-2.36-1.36Z"/><path d="M127.3,88.65,129.66,90v2.37L127.3,91Z"/><path d="M129.66,90,132,91.38v2.36l-2.37-1.36Z"/><path d="M132,91.38l2.36,1.36v2.37L132,93.74Z"/><path d="M134.39,92.74l2.37,1.37v2.36l-2.37-1.36Z"/><path d="M136.76,94.11l2.36,1.37v2.36l-2.36-1.37Z"/><path d="M139.12,95.48l2.37,1.36v2.37l-2.37-1.37Z"/><path d="M141.49,96.84l2.36,1.37v2.36l-2.36-1.36Z"/><path d="M143.85,98.21l2.37,1.36v2.37l-2.37-1.37Z"/><path d="M146.22,99.57l2.36,1.37v2.36l-2.36-1.36Z"/><path d="M68.18,56.88l2.37,1.37v2.36l-2.37-1.36Z"/><path d="M70.55,58.25l2.36,1.36V62l-2.36-1.37Z"/><path d="M72.91,59.61,75.28,61v2.36L72.91,62Z"/><path d="M75.28,61l2.36,1.36v2.37l-2.36-1.37Z"/><path d="M77.64,62.34,80,63.71v2.36l-2.37-1.36Z"/><path d="M80,63.71l2.36,1.36v2.37L80,66.07Z"/><path d="M82.37,65.07l2.37,1.37V68.8l-2.37-1.36Z"/><path d="M91.83,70.53l2.36,1.37v2.36L91.83,72.9Z"/><path d="M96.56,73.27l2.36,1.36V77l-2.36-1.37Z"/><path d="M103.65,77.36,106,78.73v2.36l-2.37-1.36Z"/><path d="M106,78.73l2.36,1.36v2.37L106,81.09Z"/><path d="M110.75,81.46l2.36,1.36v2.37l-2.36-1.37Z"/><path d="M113.11,82.82l2.37,1.37v2.36l-2.37-1.36Z"/><path d="M115.48,84.19l2.36,1.36v2.37l-2.36-1.37Z"/><path d="M117.84,85.55l2.37,1.37v2.36l-2.37-1.36Z"/><path d="M120.21,86.92l2.36,1.36v2.37l-2.36-1.37Z"/><path d="M122.57,88.28l2.37,1.37V92l-2.37-1.36Z"/><path d="M124.94,89.65,127.3,91v2.37L124.94,92Z"/><path d="M127.3,91l2.36,1.37v2.36l-2.36-1.36Z"/><path d="M129.66,92.38,132,93.74v2.37l-2.37-1.37Z"/><path d="M132,93.74l2.36,1.37v2.36L132,96.11Z"/><path d="M134.39,95.11l2.37,1.36v2.37l-2.37-1.37Z"/><path d="M136.76,96.47l2.36,1.37v2.36l-2.36-1.36Z"/><path d="M139.12,97.84l2.37,1.37v2.36l-2.37-1.37Z"/><path d="M141.49,99.21l2.36,1.36v2.36l-2.36-1.36Z"/><path d="M143.85,100.57l2.37,1.37v2.36l-2.37-1.37Z"/><path d="M146.22,101.94l2.36,1.36v2.37l-2.36-1.37Z"/><path d="M68.18,59.25l2.37,1.36V63l-2.37-1.37Z"/><path d="M70.55,60.61,72.91,62v2.36L70.55,63Z"/><path d="M72.91,62l2.37,1.36v2.37l-2.37-1.37Z"/><path d="M75.28,63.34l2.36,1.37v2.36l-2.36-1.36Z"/><path d="M77.64,64.71,80,66.07v2.37l-2.37-1.37Z"/><path d="M80,66.07l2.36,1.37V69.8L80,68.44Z"/><path d="M82.37,67.44l2.37,1.36v2.37L82.37,69.8Z"/><path d="M87.1,70.17l2.37,1.36V73.9L87.1,72.53Z"/><path d="M89.47,71.53l2.36,1.37v2.36L89.47,73.9Z"/><path d="M94.19,74.26l2.37,1.37V78l-2.37-1.36Z"/><path d="M110.75,83.82l2.36,1.37v2.36l-2.36-1.36Z"/><path d="M113.11,85.19l2.37,1.36v2.37l-2.37-1.37Z"/><path d="M115.48,86.55l2.36,1.37v2.36l-2.36-1.36Z"/><path d="M117.84,87.92l2.37,1.36v2.37l-2.37-1.37Z"/><path d="M120.21,89.28l2.36,1.37V93l-2.36-1.36Z"/><path d="M122.57,90.65,124.94,92v2.37L122.57,93Z"/><path d="M124.94,92l2.36,1.37v2.36l-2.36-1.36Z"/><path d="M127.3,93.38l2.36,1.36v2.37l-2.36-1.37Z"/><path d="M129.66,94.74,132,96.11v2.36l-2.37-1.36Z"/><path d="M132,96.11l2.36,1.36v2.37L132,98.47Z"/><path d="M134.39,97.47l2.37,1.37v2.36l-2.37-1.36Z"/><path d="M136.76,98.84l2.36,1.36v2.37l-2.36-1.37Z"/><path d="M139.12,100.2l2.37,1.37v2.36l-2.37-1.36Z"/><path d="M141.49,101.57l2.36,1.36v2.37l-2.36-1.37Z"/><path d="M143.85,102.93l2.37,1.37v2.36l-2.37-1.36Z"/><path d="M146.22,104.3l2.36,1.37V108l-2.36-1.37Z"/><path d="M68.18,61.61,70.55,63v2.36L68.18,64Z"/><path d="M70.55,63l2.36,1.36v2.37l-2.36-1.37Z"/><path d="M72.91,64.34l2.37,1.37v2.36l-2.37-1.36Z"/><path d="M75.28,65.71l2.36,1.36v2.37l-2.36-1.37Z"/><path d="M77.64,67.07,80,68.44V70.8l-2.37-1.36Z"/><path d="M80,68.44l2.36,1.36v2.37L80,70.8Z"/><path d="M82.37,69.8l2.37,1.37v2.36l-2.37-1.36Z"/><path d="M87.1,72.53l2.37,1.37v2.36L87.1,74.9Z"/><path d="M91.83,75.26l2.36,1.37V79l-2.36-1.36Z"/><path d="M101.29,80.73l2.36,1.36v2.37l-2.36-1.37Z"/><path d="M103.65,82.09,106,83.46v2.36l-2.37-1.36Z"/><path d="M106,83.46l2.36,1.36v2.37L106,85.82Z"/><path d="M108.38,84.82l2.37,1.37v2.36l-2.37-1.36Z"/><path d="M110.75,86.19l2.36,1.36v2.37l-2.36-1.37Z"/><path d="M113.11,87.55l2.37,1.37v2.36l-2.37-1.36Z"/><path d="M115.48,88.92l2.36,1.36v2.37l-2.36-1.37Z"/><path d="M117.84,90.28l2.37,1.37V94l-2.37-1.36Z"/><path d="M120.21,91.65,122.57,93v2.37L120.21,94Z"/><path d="M122.57,93l2.37,1.37v2.36l-2.37-1.36Z"/><path d="M124.94,94.38l2.36,1.36v2.37l-2.36-1.37Z"/><path d="M127.3,95.74l2.36,1.37v2.36l-2.36-1.36Z"/><path d="M129.66,97.11,132,98.47v2.37l-2.37-1.37Z"/><path d="M132,98.47l2.36,1.37v2.36L132,100.84Z"/><path d="M134.39,99.84l2.37,1.36v2.37l-2.37-1.37Z"/><path d="M136.76,101.2l2.36,1.37v2.36l-2.36-1.36Z"/><path d="M139.12,102.57l2.37,1.36v2.37l-2.37-1.37Z"/><path d="M141.49,103.93l2.36,1.37v2.36l-2.36-1.36Z"/><path d="M143.85,105.3l2.37,1.36V109l-2.37-1.37Z"/><path d="M146.22,106.66l2.36,1.37v2.36L146.22,109Z"/><path d="M68.18,64l2.37,1.36v2.37l-2.37-1.37Z"/><path d="M70.55,65.34l2.36,1.37v2.36l-2.36-1.36Z"/><path d="M72.91,66.71l2.37,1.36v2.37l-2.37-1.37Z"/><path d="M75.28,68.07l2.36,1.37V71.8l-2.36-1.36Z"/><path d="M77.64,69.44,80,70.8v2.37L77.64,71.8Z"/><path d="M80,70.8l2.36,1.37v2.36L80,73.17Z"/><path d="M82.37,72.17l2.37,1.36V75.9l-2.37-1.37Z"/><path d="M87.1,74.9l2.37,1.36v2.37L87.1,77.26Z"/><path d="M89.47,76.26l2.36,1.37V80l-2.36-1.36Z"/><path d="M91.83,77.63,94.19,79v2.37L91.83,80Z"/><path d="M98.92,81.72l2.37,1.37v2.36l-2.37-1.36Z"/><path d="M101.29,83.09l2.36,1.37v2.36l-2.36-1.37Z"/><path d="M103.65,84.46,106,85.82v2.37l-2.37-1.37Z"/><path d="M106,85.82l2.36,1.37v2.36L106,88.19Z"/><path d="M108.38,87.19l2.37,1.36v2.37l-2.37-1.37Z"/><path d="M110.75,88.55l2.36,1.37v2.36l-2.36-1.36Z"/><path d="M113.11,89.92l2.37,1.36v2.37l-2.37-1.37Z"/><path d="M115.48,91.28l2.36,1.37V95l-2.36-1.36Z"/><path d="M117.84,92.65,120.21,94v2.37L117.84,95Z"/><path d="M120.21,94l2.36,1.37v2.36l-2.36-1.36Z"/><path d="M122.57,95.38l2.37,1.36v2.37l-2.37-1.37Z"/><path d="M124.94,96.74l2.36,1.37v2.36l-2.36-1.36Z"/><path d="M127.3,98.11l2.36,1.36v2.37l-2.36-1.37Z"/><path d="M129.66,99.47l2.37,1.37v2.36l-2.37-1.36Z"/><path d="M132,100.84l2.36,1.36v2.37L132,103.2Z"/><path d="M134.39,102.2l2.37,1.37v2.36l-2.37-1.36Z"/><path d="M136.76,103.57l2.36,1.36v2.37l-2.36-1.37Z"/><path d="M139.12,104.93l2.37,1.37v2.36l-2.37-1.36Z"/><path d="M141.49,106.3l2.36,1.36V110l-2.36-1.37Z"/><path d="M143.85,107.66l2.37,1.37v2.36L143.85,110Z"/><path d="M146.22,109l2.36,1.36v2.37l-2.36-1.37Z"/><path d="M68.18,66.34l2.37,1.37v2.36l-2.37-1.36Z"/><path d="M70.55,67.71l2.36,1.36v2.37l-2.36-1.37Z"/><path d="M72.91,69.07l2.37,1.37V72.8l-2.37-1.36Z"/><path d="M75.28,70.44l2.36,1.36v2.37L75.28,72.8Z"/><path d="M77.64,71.8,80,73.17v2.36l-2.37-1.36Z"/><path d="M80,73.17l2.36,1.36V76.9L80,75.53Z"/><path d="M82.37,74.53l2.37,1.37v2.36L82.37,76.9Z"/><path d="M96.56,82.72l2.36,1.37v2.36l-2.36-1.36Z"/><path d="M98.92,84.09l2.37,1.36v2.37l-2.37-1.37Z"/><path d="M101.29,85.45l2.36,1.37v2.36l-2.36-1.36Z"/><path d="M103.65,86.82,106,88.19v2.36l-2.37-1.37Z"/><path d="M106,88.19l2.36,1.36v2.37L106,90.55Z"/><path d="M108.38,89.55l2.37,1.37v2.36l-2.37-1.36Z"/><path d="M110.75,90.92l2.36,1.36v2.37l-2.36-1.37Z"/><path d="M113.11,92.28l2.37,1.37V96l-2.37-1.36Z"/><path d="M115.48,93.65,117.84,95v2.37L115.48,96Z"/><path d="M117.84,95l2.37,1.37v2.36l-2.37-1.36Z"/><path d="M120.21,96.38l2.36,1.36v2.37l-2.36-1.37Z"/><path d="M122.57,97.74l2.37,1.37v2.36l-2.37-1.36Z"/><path d="M124.94,99.11l2.36,1.36v2.37l-2.36-1.37Z"/><path d="M127.3,100.47l2.36,1.37v2.36l-2.36-1.36Z"/><path d="M129.66,101.84,132,103.2v2.37l-2.37-1.37Z"/><path d="M132,103.2l2.36,1.37v2.36L132,105.57Z"/><path d="M134.39,104.57l2.37,1.36v2.37l-2.37-1.37Z"/><path d="M136.76,105.93l2.36,1.37v2.36l-2.36-1.36Z"/><path d="M139.12,107.3l2.37,1.36V111l-2.37-1.37Z"/><path d="M141.49,108.66l2.36,1.37v2.36L141.49,111Z"/><path d="M143.85,110l2.37,1.36v2.37l-2.37-1.37Z"/><path d="M146.22,111.39l2.36,1.37v2.36l-2.36-1.36Z"/><path d="M68.18,68.71l2.37,1.36v2.37l-2.37-1.37Z"/><path d="M70.55,70.07l2.36,1.37V73.8l-2.36-1.36Z"/><path d="M72.91,71.44l2.37,1.36v2.37L72.91,73.8Z"/><path d="M75.28,72.8l2.36,1.37v2.36l-2.36-1.36Z"/><path d="M77.64,74.17,80,75.53V77.9l-2.37-1.37Z"/><path d="M80,75.53l2.36,1.37v2.36L80,77.9Z"/><path d="M82.37,76.9l2.37,1.36v2.37l-2.37-1.37Z"/><path d="M84.74,78.26l2.36,1.37V82l-2.36-1.36Z"/><path d="M87.1,79.63,89.47,81v2.37L87.1,82Z"/><path d="M89.47,81l2.36,1.37v2.36l-2.36-1.36Z"/><path d="M91.83,82.36l2.36,1.36v2.37l-2.36-1.37Z"/><path d="M94.19,83.72l2.37,1.37v2.36l-2.37-1.36Z"/><path d="M96.56,85.09l2.36,1.36v2.37l-2.36-1.37Z"/><path d="M98.92,86.45l2.37,1.37v2.36l-2.37-1.36Z"/><path d="M101.29,87.82l2.36,1.36v2.37l-2.36-1.37Z"/><path d="M103.65,89.18,106,90.55v2.36l-2.37-1.36Z"/><path d="M106,90.55l2.36,1.37v2.36L106,92.91Z"/><path d="M108.38,91.92l2.37,1.36v2.36l-2.37-1.36Z"/><path d="M110.75,93.28l2.36,1.37V97l-2.36-1.37Z"/><path d="M113.11,94.65,115.48,96v2.37L113.11,97Z"/><path d="M115.48,96l2.36,1.37v2.36l-2.36-1.36Z"/><path d="M117.84,97.38l2.37,1.36v2.37l-2.37-1.37Z"/><path d="M120.21,98.74l2.36,1.37v2.36l-2.36-1.36Z"/><path d="M122.57,100.11l2.37,1.36v2.37l-2.37-1.37Z"/><path d="M124.94,101.47l2.36,1.37v2.36l-2.36-1.36Z"/><path d="M127.3,102.84l2.36,1.36v2.37l-2.36-1.37Z"/><path d="M129.66,104.2l2.37,1.37v2.36l-2.37-1.36Z"/><path d="M132,105.57l2.36,1.36v2.37L132,107.93Z"/><path d="M134.39,106.93l2.37,1.37v2.36l-2.37-1.36Z"/><path d="M136.76,108.3l2.36,1.36V112l-2.36-1.37Z"/><path d="M139.12,109.66l2.37,1.37v2.36L139.12,112Z"/><path d="M141.49,111l2.36,1.36v2.37l-2.36-1.37Z"/><path d="M143.85,112.39l2.37,1.37v2.36l-2.37-1.36Z"/><path d="M146.22,113.76l2.36,1.36v2.37l-2.36-1.37Z"/><path d="M110.75,53.08l2.36,1.37v2.36l-2.36-1.36Z"/><path d="M113.11,52.08l2.37,1.37v2.36l-2.37-1.36Z"/><path d="M117.78,50l2.37,1.36v2.37l-2.37-1.37Z"/><path d="M139.08,76.58,141.44,78v2.36L139.08,79Z"/><path class="cls-1" d="M175.67,58a12.19,12.19,0,0,1,5.51-9.54L263.85.74a4.08,4.08,0,0,1,3.57-.55h0l.08,0,.65.4,5.27,1.86.75.45a4.15,4.15,0,0,1,1.22,3.27v74.9h0v.1l-93.75,54.14,61.39,35.29a1.87,1.87,0,0,1,.7-.75l36.57-21.11c.35.87,1.24,1.15,2.29.55l13-7.5a5.53,5.53,0,0,0,2.27-3.19l38.21-22.06a.66.66,0,0,1,.62-.08v0h0v0a.63.63,0,0,1,.33.63v5.39a2.07,2.07,0,0,1-.95,1.62l-92.35,53.32a.92.92,0,0,1-.32.1l-.55-.33-67.21-38.9"/><path class="cls-2" d="M242.8,171.52a2.08,2.08,0,0,1,.25-.87,1.87,1.87,0,0,1,.7-.75l36.57-21.11c.35.87,1.24,1.15,2.29.55l13-7.5a5.53,5.53,0,0,0,2.27-3.19l38.21-22.06a.66.66,0,0,1,.62-.08.63.63,0,0,1,.33.63v5.39a2.07,2.07,0,0,1-.95,1.62l-92.35,53.32a.92.92,0,0,1-.32.1.94.94,0,0,1-.66-1.15"/><path class="cls-2" d="M275.41,81.22l-93.75,54.14,61.39,35.29a2.08,2.08,0,0,0-.25.87v5.4a.72.72,0,0,0,.08.32h0l-67.21-38.9,6-3"/><path class="cls-3" d="M275.38,81.32v-.1l61.31,35.37v0a.66.66,0,0,0-.62.08l-38.21,22.06a5.53,5.53,0,0,1-2.27,3.19l-13,7.5c-1.05.6-1.94.32-2.29-.55L243.72,170a1.87,1.87,0,0,0-.7.75l-61.39-35.29Z"/><polygon class="cls-2" points="278.66 118.32 247.04 137.07 264.82 148.13 296.22 129.24 278.66 118.32"/><polygon points="186.68 57.23 267.74 10.43 267.74 77.98 186.68 124.78 186.68 57.23"/><path class="cls-4" d="M181.66,135.36v-75a12.19,12.19,0,0,1,5.53-9.52L269.87,3.05a4.22,4.22,0,0,1,3.57-.55L268.17.64l-.65-.4-.08,0h0a4.11,4.11,0,0,0-3.57.54L181.18,48.47A12.19,12.19,0,0,0,175.67,58v80.33"/><polygon class="cls-5" points="189.94 114.47 265.99 70.56 265.99 21.69 189.94 65.59 189.94 114.47"/><path d="M267.56,19.11l-2.38,1.38v2.38l2.38-1.38Z"/><path d="M265.18,20.49l-2.38,1.37v2.38l2.38-1.37Z"/><path d="M262.8,21.86l-2.38,1.38v2.38l2.38-1.38Z"/><path d="M260.42,23.24,258,24.61V27l2.38-1.37Z"/><path d="M258,24.61,255.66,26v2.38L258,27Z"/><path d="M255.66,26l-2.38,1.37v2.38l2.38-1.37Z"/><path d="M253.28,27.36l-2.38,1.37v2.38l2.38-1.37Z"/><path d="M250.9,28.73l-2.38,1.38v2.38l2.38-1.38Z"/><path d="M248.52,30.11l-2.38,1.37v2.38l2.38-1.37Z"/><path d="M246.14,31.48l-2.38,1.38v2.38l2.38-1.38Z"/><path d="M243.76,32.86l-2.38,1.37v2.38l2.38-1.37Z"/><path d="M241.38,34.23,239,35.6V38l2.38-1.37Z"/><path d="M239,35.6,236.62,37v2.38L239,38Z"/><path d="M236.62,37l-2.38,1.37v2.38l2.38-1.37Z"/><path d="M234.24,38.35l-2.38,1.38v2.38l2.38-1.38Z"/><path d="M231.86,39.73l-2.38,1.37v2.38l2.38-1.37Z"/><path d="M229.48,41.1l-2.38,1.37v2.38l2.38-1.37Z"/><path d="M227.1,42.47l-2.38,1.38v2.38l2.38-1.38Z"/><path d="M224.72,43.85l-2.38,1.37V47.6l2.38-1.37Z"/><path d="M222.34,45.22,220,46.6V49l2.38-1.38Z"/><path d="M220,46.6,217.58,48v2.38L220,49Z"/><path d="M217.58,48l-2.38,1.37v2.38l2.38-1.37Z"/><path d="M215.2,49.34l-2.38,1.38V53.1l2.38-1.38Z"/><path d="M212.82,50.72l-2.38,1.37v2.38l2.38-1.37Z"/><path d="M210.44,52.09l-2.38,1.38v2.38l2.38-1.38Z"/><path d="M208.06,53.47l-2.38,1.37v2.38l2.38-1.37Z"/><path d="M205.68,54.84l-2.38,1.38V58.6l2.38-1.38Z"/><path d="M203.3,56.22l-2.38,1.37V60l2.38-1.37Z"/><path d="M200.92,57.59,198.54,59v2.38L200.92,60Z"/><path d="M198.54,59l-2.38,1.38v2.38l2.38-1.38Z"/><path d="M196.16,60.34l-2.38,1.37v2.38l2.38-1.37Z"/><path d="M193.78,61.71l-2.38,1.38v2.38l2.38-1.38Z"/><path d="M191.4,63.09,189,64.46v2.38l2.38-1.37Z"/><path d="M189,64.46l-2.38,1.37v2.38L189,66.84Z"/><path d="M267.56,21.49l-2.38,1.38v2.38l2.38-1.38Z"/><path d="M265.18,22.87l-2.38,1.37v2.38l2.38-1.37Z"/><path d="M262.8,24.24l-2.38,1.38V28l2.38-1.38Z"/><path d="M260.42,25.62,258,27v2.38L260.42,28Z"/><path d="M258,27l-2.38,1.38v2.38L258,29.37Z"/><path d="M255.66,28.37l-2.38,1.37v2.38l2.38-1.37Z"/><path d="M253.28,29.74l-2.38,1.37v2.38l2.38-1.37Z"/><path d="M250.9,31.11l-2.38,1.38v2.38l2.38-1.38Z"/><path d="M248.52,32.49l-2.38,1.37v2.38l2.38-1.37Z"/><path d="M246.14,33.86l-2.38,1.38v2.38l2.38-1.38Z"/><path d="M243.76,35.24l-2.38,1.37V39l2.38-1.37Z"/><path d="M241.38,36.61,239,38v2.38L241.38,39Z"/><path d="M239,38l-2.38,1.38v2.38L239,40.36Z"/><path d="M236.62,39.36l-2.38,1.37v2.38l2.38-1.37Z"/><path d="M234.24,40.73l-2.38,1.38v2.38l2.38-1.38Z"/><path d="M231.86,42.11l-2.38,1.37v2.38l2.38-1.37Z"/><path d="M229.48,43.48l-2.38,1.37v2.38l2.38-1.37Z"/><path d="M227.1,44.85l-2.38,1.38v2.38l2.38-1.38Z"/><path d="M224.72,46.23l-2.38,1.37V50l2.38-1.37Z"/><path d="M222.34,47.6,220,49v2.38L222.34,50Z"/><path d="M220,49l-2.38,1.37v2.38L220,51.36Z"/><path d="M203.3,58.6,200.92,60v2.38L203.3,61Z"/><path d="M200.92,60l-2.38,1.37v2.38l2.38-1.37Z"/><path d="M198.54,61.34l-2.38,1.38V65.1l2.38-1.38Z"/><path d="M196.16,62.72l-2.38,1.37v2.38l2.38-1.37Z"/><path d="M193.78,64.09l-2.38,1.38v2.38l2.38-1.38Z"/><path d="M191.4,65.47,189,66.84v2.38l2.38-1.37Z"/><path d="M189,66.84l-2.38,1.37v2.38L189,69.22Z"/><path d="M267.56,23.87l-2.38,1.38v2.38l2.38-1.38Z"/><path d="M265.18,25.25l-2.38,1.37V29l2.38-1.37Z"/><path d="M262.8,26.62,260.42,28v2.38L262.8,29Z"/><path d="M260.42,28,258,29.37v2.38l2.38-1.37Z"/><path d="M258,29.37l-2.38,1.38v2.38L258,31.75Z"/><path d="M255.66,30.75l-2.38,1.37V34.5l2.38-1.37Z"/><path d="M253.28,32.12l-2.38,1.37v2.38l2.38-1.37Z"/><path d="M250.9,33.49l-2.38,1.38v2.38l2.38-1.38Z"/><path d="M248.52,34.87l-2.38,1.37v2.38l2.38-1.37Z"/><path d="M246.14,36.24l-2.38,1.38V40l2.38-1.38Z"/><path d="M243.76,37.62,241.38,39v2.38L243.76,40Z"/><path d="M241.38,39,239,40.36v2.38l2.38-1.37Z"/><path d="M239,40.36l-2.38,1.38v2.38L239,42.74Z"/><path d="M236.62,41.74l-2.38,1.37v2.38l2.38-1.37Z"/><path d="M234.24,43.11l-2.38,1.38v2.38l2.38-1.38Z"/><path d="M231.86,44.49l-2.38,1.37v2.38l2.38-1.37Z"/><path d="M229.48,45.86l-2.38,1.37v2.38l2.38-1.37Z"/><path d="M227.1,47.23l-2.38,1.38V51l2.38-1.38Z"/><path d="M224.72,48.61,222.34,50v2.38L224.72,51Z"/><path d="M222.34,50,220,51.36v2.38l2.38-1.38Z"/><path d="M220,51.36l-2.38,1.37v2.38L220,53.74Z"/><path d="M212.82,55.48l-2.38,1.37v2.38l2.38-1.37Z"/><path d="M210.44,56.85l-2.38,1.38v2.38l2.38-1.38Z"/><path d="M208.06,58.23l-2.38,1.37V62l2.38-1.37Z"/><path d="M203.3,61l-2.38,1.37v2.38l2.38-1.37Z"/><path d="M200.92,62.35l-2.38,1.37V66.1l2.38-1.37Z"/><path d="M198.54,63.72l-2.38,1.38v2.38l2.38-1.38Z"/><path d="M196.16,65.1l-2.38,1.37v2.38l2.38-1.37Z"/><path d="M193.78,66.47l-2.38,1.38v2.38l2.38-1.38Z"/><path d="M191.4,67.85,189,69.22V71.6l2.38-1.37Z"/><path d="M189,69.22l-2.38,1.37V73L189,71.6Z"/><path d="M267.56,26.25l-2.38,1.38V30l2.38-1.38Z"/><path d="M265.18,27.63,262.8,29v2.38L265.18,30Z"/><path d="M262.8,29l-2.38,1.38v2.38l2.38-1.38Z"/><path d="M260.42,30.38,258,31.75v2.38l2.38-1.37Z"/><path d="M258,31.75l-2.38,1.38v2.38L258,34.13Z"/><path d="M255.66,33.13l-2.38,1.37v2.38l2.38-1.37Z"/><path d="M253.28,34.5l-2.38,1.37v2.38l2.38-1.37Z"/><path d="M250.9,35.87l-2.38,1.38v2.38l2.38-1.38Z"/><path d="M248.52,37.25l-2.38,1.37V41l2.38-1.37Z"/><path d="M246.14,38.62,243.76,40v2.38L246.14,41Z"/><path d="M243.76,40l-2.38,1.37v2.38l2.38-1.37Z"/><path d="M241.38,41.37,239,42.74v2.38l2.38-1.37Z"/><path d="M239,42.74l-2.38,1.38V46.5L239,45.12Z"/><path d="M236.62,44.12l-2.38,1.37v2.38l2.38-1.37Z"/><path d="M234.24,45.49l-2.38,1.38v2.38l2.38-1.38Z"/><path d="M231.86,46.87l-2.38,1.37v2.38l2.38-1.37Z"/><path d="M229.48,48.24l-2.38,1.37V52l2.38-1.37Z"/><path d="M227.1,49.61,224.72,51v2.38L227.1,52Z"/><path d="M224.72,51l-2.38,1.37v2.38l2.38-1.37Z"/><path d="M215.2,56.48l-2.38,1.38v2.38l2.38-1.38Z"/><path d="M210.44,59.23l-2.38,1.38V63l2.38-1.38Z"/><path d="M208.06,60.61,205.68,62v2.38L208.06,63Z"/><path d="M203.3,63.36l-2.38,1.37v2.38l2.38-1.37Z"/><path d="M200.92,64.73l-2.38,1.37v2.38l2.38-1.37Z"/><path d="M198.54,66.1l-2.38,1.38v2.38l2.38-1.38Z"/><path d="M196.16,67.48l-2.38,1.37v2.38l2.38-1.37Z"/><path d="M193.78,68.85l-2.38,1.38v2.38l2.38-1.38Z"/><path d="M191.4,70.23,189,71.6V74l2.38-1.37Z"/><path d="M189,71.6,186.64,73v2.38L189,74Z"/><path d="M267.56,28.63,265.18,30v2.38L267.56,31Z"/><path d="M265.18,30l-2.38,1.37v2.38l2.38-1.37Z"/><path d="M262.8,31.38l-2.38,1.38v2.38l2.38-1.38Z"/><path d="M260.42,32.76,258,34.13v2.38l2.38-1.37Z"/><path d="M258,34.13l-2.38,1.38v2.38L258,36.51Z"/><path d="M255.66,35.51l-2.38,1.37v2.38l2.38-1.37Z"/><path d="M253.28,36.88l-2.38,1.37v2.38l2.38-1.37Z"/><path d="M250.9,38.25l-2.38,1.38V42l2.38-1.38Z"/><path d="M248.52,39.63,246.14,41v2.38L248.52,42Z"/><path d="M246.14,41l-2.38,1.38v2.38l2.38-1.38Z"/><path d="M243.76,42.38l-2.38,1.37v2.38l2.38-1.37Z"/><path d="M241.38,43.75,239,45.12V47.5l2.38-1.37Z"/><path d="M239,45.12l-2.38,1.38v2.38L239,47.5Z"/><path d="M236.62,46.5l-2.38,1.37v2.38l2.38-1.37Z"/><path d="M234.24,47.87l-2.38,1.38v2.38l2.38-1.38Z"/><path d="M231.86,49.25l-2.38,1.37V53l2.38-1.37Z"/><path d="M229.48,50.62,227.1,52v2.38L229.48,53Z"/><path d="M227.1,52l-2.38,1.38v2.38l2.38-1.38Z"/><path d="M217.58,57.49l-2.38,1.37v2.38l2.38-1.37Z"/><path d="M212.82,60.24l-2.38,1.37V64l2.38-1.37Z"/><path d="M208.06,63l-2.38,1.37v2.38l2.38-1.37Z"/><path d="M203.3,65.74l-2.38,1.37v2.38l2.38-1.37Z"/><path d="M200.92,67.11l-2.38,1.37v2.38l2.38-1.37Z"/><path d="M198.54,68.48l-2.38,1.38v2.38l2.38-1.38Z"/><path d="M196.16,69.86l-2.38,1.37v2.38l2.38-1.37Z"/><path d="M193.78,71.23l-2.38,1.38V75l2.38-1.38Z"/><path d="M191.4,72.61,189,74v2.38L191.4,75Z"/><path d="M189,74l-2.38,1.37v2.38L189,76.36Z"/><path d="M267.56,31l-2.38,1.38v2.38l2.38-1.38Z"/><path d="M265.18,32.39l-2.38,1.37v2.38l2.38-1.37Z"/><path d="M262.8,33.76l-2.38,1.38v2.38l2.38-1.38Z"/><path d="M260.42,35.14,258,36.51v2.38l2.38-1.37Z"/><path d="M258,36.51l-2.38,1.38v2.38L258,38.89Z"/><path d="M255.66,37.89l-2.38,1.37v2.38l2.38-1.37Z"/><path d="M253.28,39.26l-2.38,1.37V43l2.38-1.37Z"/><path d="M250.9,40.63,248.52,42v2.38L250.9,43Z"/><path d="M248.52,42l-2.38,1.37v2.38l2.38-1.37Z"/><path d="M246.14,43.38l-2.38,1.38v2.38l2.38-1.38Z"/><path d="M243.76,44.76l-2.38,1.37v2.38l2.38-1.37Z"/><path d="M241.38,46.13,239,47.5v2.38l2.38-1.37Z"/><path d="M239,47.5l-2.38,1.38v2.38L239,49.88Z"/><path d="M236.62,48.88l-2.38,1.37v2.38l2.38-1.37Z"/><path d="M234.24,50.25l-2.38,1.38V54l2.38-1.38Z"/><path d="M231.86,51.63,229.48,53v2.38L231.86,54Z"/><path d="M229.48,53l-2.38,1.37v2.38l2.38-1.37Z"/><path d="M227.1,54.37l-2.38,1.38v2.38l2.38-1.38Z"/><path d="M220,58.5l-2.38,1.37v2.38L220,60.88Z"/><path d="M215.2,61.24l-2.38,1.38V65l2.38-1.38Z"/><path d="M210.44,64l-2.38,1.38v2.38l2.38-1.38Z"/><path d="M203.3,68.12l-2.38,1.37v2.38l2.38-1.37Z"/><path d="M200.92,69.49l-2.38,1.37v2.38l2.38-1.37Z"/><path d="M198.54,70.86l-2.38,1.38v2.38l2.38-1.38Z"/><path d="M196.16,72.24l-2.38,1.37V76l2.38-1.37Z"/><path d="M193.78,73.61,191.4,75v2.38L193.78,76Z"/><path d="M191.4,75,189,76.36v2.38l2.38-1.37Z"/><path d="M189,76.36l-2.38,1.37v2.38L189,78.74Z"/><path d="M267.56,33.39l-2.38,1.38v2.38l2.38-1.38Z"/><path d="M265.18,34.77l-2.38,1.37v2.38l2.38-1.37Z"/><path d="M262.8,36.14l-2.38,1.38V39.9l2.38-1.38Z"/><path d="M260.42,37.52,258,38.89v2.38l2.38-1.37Z"/><path d="M258,38.89l-2.38,1.38v2.38L258,41.27Z"/><path d="M255.66,40.27l-2.38,1.37V44l2.38-1.37Z"/><path d="M253.28,41.64,250.9,43v2.38L253.28,44Z"/><path d="M250.9,43l-2.38,1.38v2.38l2.38-1.38Z"/><path d="M248.52,44.39l-2.38,1.37v2.38l2.38-1.37Z"/><path d="M246.14,45.76l-2.38,1.38v2.38l2.38-1.38Z"/><path d="M243.76,47.14l-2.38,1.37v2.38l2.38-1.37Z"/><path d="M241.38,48.51,239,49.88v2.38l2.38-1.37Z"/><path d="M239,49.88l-2.38,1.38v2.38L239,52.26Z"/><path d="M236.62,51.26l-2.38,1.37V55l2.38-1.37Z"/><path d="M234.24,52.63,231.86,54v2.38L234.24,55Z"/><path d="M231.86,54l-2.38,1.37v2.38l2.38-1.37Z"/><path d="M229.48,55.38l-2.38,1.37v2.38l2.38-1.37Z"/><path d="M222.34,59.5,220,60.88v2.38l2.38-1.38Z"/><path d="M217.58,62.25l-2.38,1.37V66l2.38-1.37Z"/><path d="M212.82,65l-2.38,1.37v2.38l2.38-1.37Z"/><path d="M205.68,69.12,203.3,70.5v2.38l2.38-1.38Z"/><path d="M203.3,70.5l-2.38,1.37v2.38l2.38-1.37Z"/><path d="M200.92,71.87l-2.38,1.37v2.38l2.38-1.37Z"/><path d="M198.54,73.24l-2.38,1.38V77l2.38-1.38Z"/><path d="M196.16,74.62,193.78,76v2.38L196.16,77Z"/><path d="M193.78,76l-2.38,1.38v2.38l2.38-1.38Z"/><path d="M191.4,77.37,189,78.74v2.38l2.38-1.37Z"/><path d="M189,78.74l-2.38,1.37v2.38L189,81.12Z"/><path d="M267.56,35.77l-2.38,1.38v2.38l2.38-1.38Z"/><path d="M265.18,37.15l-2.38,1.37V40.9l2.38-1.37Z"/><path d="M262.8,38.52l-2.38,1.38v2.38l2.38-1.38Z"/><path d="M260.42,39.9,258,41.27v2.38l2.38-1.37Z"/><path d="M258,41.27l-2.38,1.38V45L258,43.65Z"/><path d="M255.66,42.65,253.28,44V46.4L255.66,45Z"/><path d="M253.28,44l-2.38,1.37v2.38l2.38-1.37Z"/><path d="M250.9,45.39l-2.38,1.38v2.38l2.38-1.38Z"/><path d="M248.52,46.77l-2.38,1.37v2.38l2.38-1.37Z"/><path d="M246.14,48.14l-2.38,1.38V51.9l2.38-1.38Z"/><path d="M243.76,49.52l-2.38,1.37v2.38l2.38-1.37Z"/><path d="M241.38,50.89,239,52.26v2.38l2.38-1.37Z"/><path d="M239,52.26l-2.38,1.38V56L239,54.64Z"/><path d="M236.62,53.64,234.24,55v2.38L236.62,56Z"/><path d="M234.24,55l-2.38,1.38v2.38l2.38-1.38Z"/><path d="M231.86,56.39l-2.38,1.37v2.38l2.38-1.37Z"/><path d="M224.72,60.51l-2.38,1.37v2.38l2.38-1.37Z"/><path d="M220,63.26l-2.38,1.37V67L220,65.64Z"/><path d="M215.2,66l-2.38,1.38v2.38l2.38-1.38Z"/><path d="M208.06,70.13l-2.38,1.37v2.38l2.38-1.37Z"/><path d="M205.68,71.5l-2.38,1.38v2.38l2.38-1.38Z"/><path d="M203.3,72.88l-2.38,1.37v2.38l2.38-1.37Z"/><path d="M200.92,74.25l-2.38,1.37V78l2.38-1.37Z"/><path d="M198.54,75.62,196.16,77v2.38L198.54,78Z"/><path d="M193.78,78.37l-2.38,1.38v2.38l2.38-1.38Z"/><path d="M191.4,79.75,189,81.12V83.5l2.38-1.37Z"/><path d="M189,81.12l-2.38,1.37v2.38L189,83.5Z"/><path d="M267.56,38.15l-2.38,1.38v2.38l2.38-1.38Z"/><path d="M265.18,39.53,262.8,40.9v2.38l2.38-1.37Z"/><path d="M262.8,40.9l-2.38,1.38v2.38l2.38-1.38Z"/><path d="M260.42,42.28,258,43.65V46l2.38-1.37Z"/><path d="M258,43.65,255.66,45v2.38L258,46Z"/><path d="M255.66,45l-2.38,1.37v2.38l2.38-1.37Z"/><path d="M253.28,46.4l-2.38,1.37v2.38l2.38-1.37Z"/><path d="M250.9,47.77l-2.38,1.38v2.38l2.38-1.38Z"/><path d="M248.52,49.15l-2.38,1.37V52.9l2.38-1.37Z"/><path d="M246.14,50.52l-2.38,1.38v2.38l2.38-1.38Z"/><path d="M243.76,51.9l-2.38,1.37v2.38l2.38-1.37Z"/><path d="M241.38,53.27,239,54.64V57l2.38-1.37Z"/><path d="M239,54.64,236.62,56V58.4L239,57Z"/><path d="M236.62,56l-2.38,1.37v2.38l2.38-1.37Z"/><path d="M234.24,57.39l-2.38,1.38v2.38l2.38-1.38Z"/><path d="M227.1,61.51l-2.38,1.38v2.38l2.38-1.38Z"/><path d="M222.34,64.26,220,65.64V68l2.38-1.38Z"/><path d="M217.58,67l-2.38,1.37v2.38l2.38-1.37Z"/><path d="M210.44,71.13l-2.38,1.38v2.38l2.38-1.38Z"/><path d="M208.06,72.51l-2.38,1.37v2.38l2.38-1.37Z"/><path d="M205.68,73.88l-2.38,1.38v2.38l2.38-1.38Z"/><path d="M203.3,75.26l-2.38,1.37V79l2.38-1.37Z"/><path d="M200.92,76.63,198.54,78v2.38L200.92,79Z"/><path d="M198.54,78l-2.38,1.38v2.38l2.38-1.38Z"/><path d="M196.16,79.38l-2.38,1.37v2.38l2.38-1.37Z"/><path d="M193.78,80.75l-2.38,1.38v2.38l2.38-1.38Z"/><path d="M191.4,82.13,189,83.5v2.38l2.38-1.37Z"/><path d="M189,83.5l-2.38,1.37v2.38L189,85.88Z"/><path d="M267.56,40.53l-2.38,1.38v2.38l2.38-1.38Z"/><path d="M265.18,41.91l-2.38,1.37v2.38l2.38-1.37Z"/><path d="M262.8,43.28l-2.38,1.38V47l2.38-1.38Z"/><path d="M260.42,44.66,258,46v2.38L260.42,47Z"/><path d="M258,46l-2.38,1.38v2.38L258,48.41Z"/><path d="M255.66,47.41l-2.38,1.37v2.38l2.38-1.37Z"/><path d="M253.28,48.78l-2.38,1.37v2.38l2.38-1.37Z"/><path d="M250.9,50.15l-2.38,1.38v2.38l2.38-1.38Z"/><path d="M248.52,51.53l-2.38,1.37v2.38l2.38-1.37Z"/><path d="M246.14,52.9l-2.38,1.38v2.38l2.38-1.38Z"/><path d="M243.76,54.28l-2.38,1.37V58l2.38-1.37Z"/><path d="M241.38,55.65,239,57V59.4L241.38,58Z"/><path d="M239,57l-2.38,1.38v2.38L239,59.4Z"/><path d="M236.62,58.4l-2.38,1.37v2.38l2.38-1.37Z"/><path d="M229.48,62.52l-2.38,1.37v2.38l2.38-1.37Z"/><path d="M224.72,65.27l-2.38,1.37V69l2.38-1.37Z"/><path d="M220,68l-2.38,1.37v2.38L220,70.4Z"/><path d="M212.82,72.14l-2.38,1.37v2.38l2.38-1.37Z"/><path d="M210.44,73.51l-2.38,1.38v2.38l2.38-1.38Z"/><path d="M208.06,74.89l-2.38,1.37v2.38l2.38-1.37Z"/><path d="M205.68,76.26l-2.38,1.38V80l2.38-1.38Z"/><path d="M203.3,77.64,200.92,79v2.38L203.3,80Z"/><path d="M200.92,79l-2.38,1.37v2.38l2.38-1.37Z"/><path d="M198.54,80.38l-2.38,1.38v2.38l2.38-1.38Z"/><path d="M196.16,81.76l-2.38,1.37v2.38l2.38-1.37Z"/><path d="M193.78,83.13l-2.38,1.38v2.38l2.38-1.38Z"/><path d="M191.4,84.51,189,85.88v2.38l2.38-1.37Z"/><path d="M189,85.88l-2.38,1.37v2.38L189,88.26Z"/><path d="M267.56,42.91l-2.38,1.38v2.38l2.38-1.38Z"/><path d="M265.18,44.29l-2.38,1.37V48l2.38-1.37Z"/><path d="M262.8,45.66,260.42,47v2.38L262.8,48Z"/><path d="M260.42,47,258,48.41v2.38l2.38-1.37Z"/><path d="M258,48.41l-2.38,1.38v2.38L258,50.79Z"/><path d="M255.66,49.79l-2.38,1.37v2.38l2.38-1.37Z"/><path d="M253.28,51.16l-2.38,1.37v2.38l2.38-1.37Z"/><path d="M250.9,52.53l-2.38,1.38v2.38l2.38-1.38Z"/><path d="M248.52,53.91l-2.38,1.37v2.38l2.38-1.37Z"/><path d="M246.14,55.28l-2.38,1.38V59l2.38-1.38Z"/><path d="M231.86,63.53l-2.38,1.37v2.38l2.38-1.37Z"/><path d="M227.1,66.27l-2.38,1.38V70l2.38-1.38Z"/><path d="M222.34,69,220,70.4v2.38l2.38-1.38Z"/><path d="M215.2,73.14l-2.38,1.38V76.9l2.38-1.38Z"/><path d="M212.82,74.52l-2.38,1.37v2.38l2.38-1.37Z"/><path d="M210.44,75.89l-2.38,1.38v2.38l2.38-1.38Z"/><path d="M208.06,77.27l-2.38,1.37V81l2.38-1.37Z"/><path d="M205.68,78.64,203.3,80V82.4L205.68,81Z"/><path d="M203.3,80l-2.38,1.37v2.38l2.38-1.37Z"/><path d="M200.92,81.39l-2.38,1.37v2.38l2.38-1.37Z"/><path d="M198.54,82.76l-2.38,1.38v2.38l2.38-1.38Z"/><path d="M196.16,84.14l-2.38,1.37v2.38l2.38-1.37Z"/><path d="M193.78,85.51l-2.38,1.38v2.38l2.38-1.38Z"/><path d="M191.4,86.89,189,88.26v2.38l2.38-1.37Z"/><path d="M189,88.26l-2.38,1.37V92L189,90.64Z"/><path d="M267.56,45.29l-2.38,1.38v2.38l2.38-1.38Z"/><path d="M265.18,46.67,262.8,48v2.38l2.38-1.37Z"/><path d="M262.8,48l-2.38,1.38V51.8l2.38-1.38Z"/><path d="M260.42,49.42,258,50.79v2.38l2.38-1.37Z"/><path d="M258,50.79l-2.38,1.38v2.38L258,53.17Z"/><path d="M255.66,52.17l-2.38,1.37v2.38l2.38-1.37Z"/><path d="M253.28,53.54l-2.38,1.37v2.38l2.38-1.37Z"/><path d="M250.9,54.91l-2.38,1.38v2.38l2.38-1.38Z"/><path d="M248.52,56.29l-2.38,1.37V60l2.38-1.37Z"/><path d="M246.14,57.66,243.76,59v2.38L246.14,60Z"/><path d="M241.38,60.41,239,61.78v2.38l2.38-1.37Z"/><path d="M239,61.78l-2.38,1.38v2.38L239,64.16Z"/><path d="M236.62,63.16l-2.38,1.37v2.38l2.38-1.37Z"/><path d="M234.24,64.53l-2.38,1.38v2.38l2.38-1.38Z"/><path d="M229.48,67.28l-2.38,1.37V71l2.38-1.37Z"/><path d="M224.72,70l-2.38,1.37v2.38l2.38-1.37Z"/><path d="M217.58,74.15l-2.38,1.37V77.9l2.38-1.37Z"/><path d="M215.2,75.52l-2.38,1.38v2.38l2.38-1.38Z"/><path d="M212.82,76.9l-2.38,1.37v2.38l2.38-1.37Z"/><path d="M210.44,78.27l-2.38,1.38V82l2.38-1.38Z"/><path d="M208.06,79.65,205.68,81V83.4L208.06,82Z"/><path d="M205.68,81,203.3,82.4v2.37l2.38-1.37Z"/><path d="M203.3,82.4l-2.38,1.37v2.38l2.38-1.38Z"/><path d="M200.92,83.77l-2.38,1.37v2.38l2.38-1.37Z"/><path d="M198.54,85.14l-2.38,1.38V88.9l2.38-1.38Z"/><path d="M196.16,86.52l-2.38,1.37v2.38l2.38-1.37Z"/><path d="M193.78,87.89l-2.38,1.38v2.38l2.38-1.38Z"/><path d="M191.4,89.27,189,90.64V93l2.38-1.37Z"/><path d="M189,90.64,186.64,92v2.38L189,93Z"/><path d="M267.56,47.67l-2.38,1.38v2.38l2.38-1.38Z"/><path d="M265.18,49.05l-2.38,1.37V52.8l2.38-1.37Z"/><path d="M262.8,50.42l-2.38,1.38v2.38l2.38-1.38Z"/><path d="M260.42,51.8,258,53.17v2.38l2.38-1.37Z"/><path d="M258,53.17l-2.38,1.38v2.38L258,55.55Z"/><path d="M255.66,54.55l-2.38,1.37V58.3l2.38-1.37Z"/><path d="M253.28,55.92l-2.38,1.37v2.38l2.38-1.37Z"/><path d="M250.9,57.29l-2.38,1.38v2.38l2.38-1.38Z"/><path d="M248.52,58.67,246.14,60v2.38l2.38-1.37Z"/><path d="M246.14,60l-2.38,1.38V63.8l2.38-1.38Z"/><path d="M241.38,62.79,239,64.16v2.38l2.38-1.37Z"/><path d="M234.24,66.91l-2.38,1.38v2.38l2.38-1.38Z"/><path d="M231.86,68.29l-2.38,1.37V72l2.38-1.37Z"/><path d="M227.1,71l-2.38,1.38v2.38l2.38-1.38Z"/><path d="M220,75.16l-2.38,1.37v2.38L220,77.54Z"/><path d="M217.58,76.53,215.2,77.9v2.38l2.38-1.37Z"/><path d="M215.2,77.9l-2.38,1.38v2.38l2.38-1.38Z"/><path d="M212.82,79.28l-2.38,1.37V83l2.38-1.37Z"/><path d="M210.44,80.65,208.06,82v2.38L210.44,83Z"/><path d="M208.06,82l-2.38,1.37v2.38l2.38-1.37Z"/><path d="M205.68,83.4l-2.38,1.37v2.38l2.38-1.37Z"/><path d="M203.3,84.77l-2.38,1.38v2.38l2.38-1.38Z"/><path d="M200.92,86.15l-2.38,1.37V89.9l2.38-1.37Z"/><path d="M198.54,87.52l-2.38,1.38v2.38l2.38-1.38Z"/><path d="M196.16,88.9l-2.38,1.37v2.38l2.38-1.37Z"/><path d="M193.78,90.27l-2.38,1.38V94l2.38-1.38Z"/><path d="M191.4,91.65,189,93V95.4L191.4,94Z"/><path d="M189,93l-2.38,1.37v2.38L189,95.4Z"/><path d="M267.56,50.05l-2.38,1.38v2.38l2.38-1.38Z"/><path d="M265.18,51.43,262.8,52.8v2.38l2.38-1.37Z"/><path d="M262.8,52.8l-2.38,1.38v2.38l2.38-1.38Z"/><path d="M260.42,54.18,258,55.55v2.38l2.38-1.37Z"/><path d="M258,55.55l-2.38,1.38v2.38L258,57.93Z"/><path d="M255.66,56.93l-2.38,1.37v2.38l2.38-1.37Z"/><path d="M253.28,58.3l-2.38,1.37v2.38l2.38-1.37Z"/><path d="M250.9,59.67l-2.38,1.38v2.38l2.38-1.38Z"/><path d="M248.52,61.05l-2.38,1.37V64.8l2.38-1.37Z"/><path d="M246.14,62.42l-2.38,1.38v2.38l2.38-1.38Z"/><path d="M239,66.54l-2.38,1.38V70.3L239,68.92Z"/><path d="M234.24,69.29l-2.38,1.38v2.38l2.38-1.38Z"/><path d="M231.86,70.67,229.48,72v2.38l2.38-1.37Z"/><path d="M229.48,72l-2.38,1.37v2.38l2.38-1.37Z"/><path d="M222.34,76.16,220,77.54v2.38l2.38-1.38Z"/><path d="M220,77.54l-2.38,1.37v2.38L220,79.92Z"/><path d="M217.58,78.91l-2.38,1.37v2.38l2.38-1.37Z"/><path d="M215.2,80.28l-2.38,1.38V84l2.38-1.38Z"/><path d="M212.82,81.66,210.44,83v2.38L212.82,84Z"/><path d="M210.44,83l-2.38,1.38v2.38l2.38-1.38Z"/><path d="M208.06,84.41l-2.38,1.37v2.38l2.38-1.37Z"/><path d="M205.68,85.78l-2.38,1.37v2.38l2.38-1.37Z"/><path d="M203.3,87.15l-2.38,1.38v2.38l2.38-1.38Z"/><path d="M200.92,88.53l-2.38,1.37v2.38l2.38-1.37Z"/><path d="M198.54,89.9l-2.38,1.38v2.38l2.38-1.38Z"/><path d="M196.16,91.28l-2.38,1.37V95l2.38-1.37Z"/><path d="M193.78,92.65,191.4,94v2.38L193.78,95Z"/><path d="M191.4,94,189,95.4v2.38l2.38-1.37Z"/><path d="M189,95.4l-2.38,1.37v2.38L189,97.78Z"/><path d="M267.56,52.43l-2.38,1.38v2.38l2.38-1.38Z"/><path d="M265.18,53.81l-2.38,1.37v2.38l2.38-1.37Z"/><path d="M262.8,55.18l-2.38,1.38v2.38l2.38-1.38Z"/><path d="M260.42,56.56,258,57.93v2.38l2.38-1.37Z"/><path d="M258,57.93l-2.38,1.38v2.38L258,60.31Z"/><path d="M255.66,59.31l-2.38,1.37v2.38l2.38-1.37Z"/><path d="M253.28,60.68l-2.38,1.37v2.38l2.38-1.37Z"/><path d="M250.9,62.05l-2.38,1.38v2.38l2.38-1.38Z"/><path d="M248.52,63.43l-2.38,1.37v2.38l2.38-1.37Z"/><path d="M239,68.92l-2.38,1.38v2.38L239,71.3Z"/><path d="M236.62,70.3l-2.38,1.37v2.38l2.38-1.37Z"/><path d="M229.48,74.42l-2.38,1.37v2.38l2.38-1.37Z"/><path d="M224.72,77.17l-2.38,1.37v2.38l2.38-1.37Z"/><path d="M222.34,78.54,220,79.92V82.3l2.38-1.38Z"/><path d="M220,79.92l-2.38,1.37v2.38L220,82.3Z"/><path d="M217.58,81.29l-2.38,1.37V85l2.38-1.37Z"/><path d="M215.2,82.66,212.82,84v2.38L215.2,85Z"/><path d="M212.82,84l-2.38,1.37v2.38l2.38-1.37Z"/><path d="M210.44,85.41l-2.38,1.38v2.38l2.38-1.38Z"/><path d="M208.06,86.79l-2.38,1.37v2.38l2.38-1.37Z"/><path d="M205.68,88.16l-2.38,1.37v2.38l2.38-1.37Z"/><path d="M203.3,89.53l-2.38,1.38v2.38l2.38-1.38Z"/><path d="M200.92,90.91l-2.38,1.37v2.38l2.38-1.37Z"/><path d="M198.54,92.28l-2.38,1.38V96l2.38-1.38Z"/><path d="M196.16,93.66,193.78,95v2.38L196.16,96Z"/><path d="M193.78,95l-2.38,1.38v2.38l2.38-1.38Z"/><path d="M191.4,96.41,189,97.78v2.38l2.38-1.37Z"/><path d="M189,97.78l-2.38,1.37v2.38l2.38-1.37Z"/><path d="M267.56,54.81l-2.38,1.38v2.38l2.38-1.38Z"/><path d="M265.18,56.19l-2.38,1.37v2.38l2.38-1.37Z"/><path d="M262.8,57.56l-2.38,1.38v2.38l2.38-1.38Z"/><path d="M260.42,58.94,258,60.31v2.38l2.38-1.37Z"/><path d="M258,60.31l-2.38,1.38v2.38L258,62.69Z"/><path d="M255.66,61.69l-2.38,1.37v2.38l2.38-1.37Z"/><path d="M253.28,63.06l-2.38,1.37v2.38l2.38-1.37Z"/><path d="M250.9,64.43l-2.38,1.38v2.38l2.38-1.38Z"/><path d="M241.38,69.93,239,71.3v2.38l2.38-1.37Z"/><path d="M236.62,72.68l-2.38,1.37v2.38l2.38-1.37Z"/><path d="M234.24,74.05l-2.38,1.38v2.38l2.38-1.38Z"/><path d="M229.48,76.8l-2.38,1.37v2.38l2.38-1.37Z"/><path d="M224.72,79.55l-2.38,1.37V83.3l2.38-1.37Z"/><path d="M222.34,80.92,220,82.3v2.38l2.38-1.38Z"/><path d="M220,82.3l-2.38,1.37v2.38L220,84.68Z"/><path d="M217.58,83.67,215.2,85v2.38l2.38-1.37Z"/><path d="M215.2,85l-2.38,1.38V88.8l2.38-1.38Z"/><path d="M212.82,86.42l-2.38,1.37v2.38l2.38-1.37Z"/><path d="M210.44,87.79l-2.38,1.38v2.38l2.38-1.38Z"/><path d="M208.06,89.17l-2.38,1.37v2.38l2.38-1.37Z"/><path d="M205.68,90.54l-2.38,1.37v2.38l2.38-1.37Z"/><path d="M203.3,91.91l-2.38,1.38v2.38l2.38-1.38Z"/><path d="M200.92,93.29l-2.38,1.37V97l2.38-1.37Z"/><path d="M198.54,94.66,196.16,96v2.38L198.54,97Z"/><path d="M196.16,96l-2.38,1.37v2.38l2.38-1.37Z"/><path d="M193.78,97.41l-2.38,1.38v2.38l2.38-1.38Z"/><path d="M191.4,98.79,189,100.16v2.38l2.38-1.37Z"/><path d="M189,100.16l-2.38,1.37v2.38l2.38-1.37Z"/><path d="M267.56,57.19l-2.38,1.38V61l2.38-1.38Z"/><path d="M265.18,58.57l-2.38,1.37v2.38L265.18,61Z"/><path d="M262.8,59.94l-2.38,1.38V63.7l2.38-1.38Z"/><path d="M260.42,61.32,258,62.69v2.38l2.38-1.37Z"/><path d="M258,62.69l-2.38,1.38v2.38L258,65.07Z"/><path d="M255.66,64.07l-2.38,1.37v2.38l2.38-1.37Z"/><path d="M253.28,65.44l-2.38,1.37v2.38l2.38-1.37Z"/><path d="M243.76,70.94l-2.38,1.37v2.38l2.38-1.37Z"/><path d="M239,73.68l-2.38,1.38v2.38L239,76.06Z"/><path d="M231.86,77.81l-2.38,1.37v2.38l2.38-1.37Z"/><path d="M229.48,79.18l-2.38,1.37v2.38l2.38-1.37Z"/><path d="M224.72,81.93l-2.38,1.37v2.38l2.38-1.37Z"/><path d="M222.34,83.3,220,84.68v2.38l2.38-1.38Z"/><path d="M220,84.68l-2.38,1.37v2.38L220,87.06Z"/><path d="M217.58,86.05l-2.38,1.37V89.8l2.38-1.37Z"/><path d="M215.2,87.42l-2.38,1.38v2.38l2.38-1.38Z"/><path d="M212.82,88.8l-2.38,1.37v2.38l2.38-1.37Z"/><path d="M210.44,90.17l-2.38,1.38v2.38l2.38-1.38Z"/><path d="M208.06,91.55l-2.38,1.37V95.3l2.38-1.37Z"/><path d="M205.68,92.92l-2.38,1.37v2.38l2.38-1.37Z"/><path d="M203.3,94.29l-2.38,1.38v2.38l2.38-1.38Z"/><path d="M200.92,95.67,198.54,97v2.38l2.38-1.37Z"/><path d="M198.54,97l-2.38,1.38v2.38l2.38-1.38Z"/><path d="M196.16,98.42l-2.38,1.37v2.38l2.38-1.37Z"/><path d="M193.78,99.79l-2.38,1.38v2.38l2.38-1.38Z"/><path d="M191.4,101.17,189,102.54v2.38l2.38-1.37Z"/><path d="M189,102.54l-2.38,1.37v2.38l2.38-1.37Z"/><path d="M267.56,59.57,265.18,61v2.38L267.56,62Z"/><path d="M265.18,61l-2.38,1.37V64.7l2.38-1.37Z"/><path d="M262.8,62.32l-2.38,1.38v2.38l2.38-1.38Z"/><path d="M260.42,63.7,258,65.07v2.38l2.38-1.37Z"/><path d="M258,65.07l-2.38,1.38v2.38L258,67.45Z"/><path d="M255.66,66.45l-2.38,1.37V70.2l2.38-1.37Z"/><path d="M253.28,67.82l-2.38,1.37v2.38l2.38-1.37Z"/><path d="M248.52,70.57l-2.38,1.37v2.38L248.52,73Z"/><path d="M246.14,71.94l-2.38,1.38V75.7l2.38-1.38Z"/><path d="M241.38,74.69,239,76.06v2.38l2.38-1.37Z"/><path d="M224.72,84.31l-2.38,1.37v2.38l2.38-1.37Z"/><path d="M222.34,85.68,220,87.06v2.38l2.38-1.38Z"/><path d="M220,87.06l-2.38,1.37v2.38L220,89.44Z"/><path d="M217.58,88.43,215.2,89.8v2.38l2.38-1.37Z"/><path d="M215.2,89.8l-2.38,1.38v2.38l2.38-1.38Z"/><path d="M212.82,91.18l-2.38,1.37v2.38l2.38-1.37Z"/><path d="M210.44,92.55l-2.38,1.38v2.38l2.38-1.38Z"/><path d="M208.06,93.93l-2.38,1.37v2.38l2.38-1.37Z"/><path d="M205.68,95.3l-2.38,1.37v2.38l2.38-1.37Z"/><path d="M203.3,96.67l-2.38,1.38v2.38l2.38-1.38Z"/><path d="M200.92,98.05l-2.38,1.37v2.38l2.38-1.37Z"/><path d="M198.54,99.42l-2.38,1.38v2.38l2.38-1.38Z"/><path d="M196.16,100.8l-2.38,1.37v2.38l2.38-1.37Z"/><path d="M193.78,102.17l-2.38,1.38v2.38l2.38-1.38Z"/><path d="M191.4,103.55,189,104.92v2.38l2.38-1.37Z"/><path d="M189,104.92l-2.38,1.37v2.38L189,107.3Z"/><path d="M267.56,62l-2.38,1.38v2.38l2.38-1.38Z"/><path d="M265.18,63.33,262.8,64.7v2.38l2.38-1.37Z"/><path d="M262.8,64.7l-2.38,1.38v2.38l2.38-1.38Z"/><path d="M260.42,66.08,258,67.45v2.38l2.38-1.37Z"/><path d="M258,67.45l-2.38,1.38v2.38L258,69.83Z"/><path d="M255.66,68.83l-2.38,1.37v2.38l2.38-1.37Z"/><path d="M253.28,70.2l-2.38,1.37V74l2.38-1.37Z"/><path d="M248.52,73l-2.38,1.37V76.7l2.38-1.37Z"/><path d="M243.76,75.7l-2.38,1.37v2.38l2.38-1.37Z"/><path d="M234.24,81.19l-2.38,1.38V85l2.38-1.38Z"/><path d="M231.86,82.57l-2.38,1.37v2.38L231.86,85Z"/><path d="M229.48,83.94l-2.38,1.37v2.38l2.38-1.37Z"/><path d="M227.1,85.31l-2.38,1.38v2.38l2.38-1.38Z"/><path d="M224.72,86.69l-2.38,1.37v2.38l2.38-1.37Z"/><path d="M222.34,88.06,220,89.44v2.38l2.38-1.38Z"/><path d="M220,89.44l-2.38,1.37v2.38L220,91.82Z"/><path d="M217.58,90.81l-2.38,1.37v2.38l2.38-1.37Z"/><path d="M215.2,92.18l-2.38,1.38v2.38l2.38-1.38Z"/><path d="M212.82,93.56l-2.38,1.37v2.38l2.38-1.37Z"/><path d="M210.44,94.93l-2.38,1.38v2.38l2.38-1.38Z"/><path d="M208.06,96.31l-2.38,1.37v2.38l2.38-1.37Z"/><path d="M205.68,97.68l-2.38,1.37v2.38l2.38-1.37Z"/><path d="M203.3,99.05l-2.38,1.38v2.38l2.38-1.38Z"/><path d="M200.92,100.43l-2.38,1.37v2.38l2.38-1.37Z"/><path d="M198.54,101.8l-2.38,1.38v2.38l2.38-1.38Z"/><path d="M196.16,103.18l-2.38,1.37v2.38l2.38-1.37Z"/><path d="M193.78,104.55l-2.38,1.38v2.38l2.38-1.38Z"/><path d="M191.4,105.93,189,107.3v2.38l2.38-1.37Z"/><path d="M189,107.3l-2.38,1.37v2.38l2.38-1.37Z"/><path d="M267.56,64.33l-2.38,1.38v2.38l2.38-1.38Z"/><path d="M265.18,65.71l-2.38,1.37v2.38l2.38-1.37Z"/><path d="M262.8,67.08l-2.38,1.38v2.38l2.38-1.38Z"/><path d="M260.42,68.46,258,69.83v2.38l2.38-1.37Z"/><path d="M258,69.83l-2.38,1.38v2.37L258,72.21Z"/><path d="M255.66,71.21l-2.38,1.37V75l2.38-1.38Z"/><path d="M253.28,72.58,250.9,74v2.38L253.28,75Z"/><path d="M248.52,75.33l-2.38,1.37v2.38l2.38-1.37Z"/><path d="M246.14,76.7l-2.38,1.38v2.38l2.38-1.38Z"/><path d="M243.76,78.08l-2.38,1.37v2.38l2.38-1.37Z"/><path d="M236.62,82.2l-2.38,1.37V86l2.38-1.37Z"/><path d="M234.24,83.57,231.86,85v2.38L234.24,86Z"/><path d="M231.86,85l-2.38,1.37V88.7l2.38-1.37Z"/><path d="M229.48,86.32l-2.38,1.37v2.38l2.38-1.37Z"/><path d="M227.1,87.69l-2.38,1.38v2.38l2.38-1.38Z"/><path d="M224.72,89.07l-2.38,1.37v2.38l2.38-1.37Z"/><path d="M222.34,90.44,220,91.82V94.2l2.38-1.38Z"/><path d="M220,91.82l-2.38,1.37v2.38L220,94.2Z"/><path d="M217.58,93.19l-2.38,1.37v2.38l2.38-1.37Z"/><path d="M215.2,94.56l-2.38,1.38v2.38l2.38-1.38Z"/><path d="M212.82,95.94l-2.38,1.37v2.38l2.38-1.37Z"/><path d="M210.44,97.31l-2.38,1.38v2.38l2.38-1.38Z"/><path d="M208.06,98.69l-2.38,1.37v2.38l2.38-1.37Z"/><path d="M205.68,100.06l-2.38,1.37v2.38l2.38-1.37Z"/><path d="M203.3,101.43l-2.38,1.38v2.38l2.38-1.38Z"/><path d="M200.92,102.81l-2.38,1.37v2.38l2.38-1.37Z"/><path d="M198.54,104.18l-2.38,1.38v2.38l2.38-1.38Z"/><path d="M196.16,105.56l-2.38,1.37v2.38l2.38-1.37Z"/><path d="M193.78,106.93l-2.38,1.38v2.38l2.38-1.38Z"/><path d="M191.4,108.31,189,109.68v2.38l2.38-1.37Z"/><path d="M189,109.68l-2.38,1.37v2.38l2.38-1.37Z"/><path d="M267.56,66.71l-2.38,1.38v2.38l2.38-1.38Z"/><path d="M265.18,68.09l-2.38,1.37v2.38l2.38-1.37Z"/><path d="M262.8,69.46l-2.38,1.38v2.38l2.38-1.38Z"/><path d="M260.42,70.84,258,72.21v2.38l2.38-1.37Z"/><path d="M258,72.21l-2.38,1.37V76L258,74.59Z"/><path d="M255.66,73.58,253.28,75v2.38L255.66,76Z"/><path d="M253.28,75l-2.38,1.37v2.38l2.38-1.37Z"/><path d="M239,83.2l-2.38,1.38V87L239,85.58Z"/><path d="M236.62,84.58,234.24,86v2.38L236.62,87Z"/><path d="M234.24,86l-2.38,1.38v2.38l2.38-1.38Z"/><path d="M231.86,87.33l-2.38,1.37v2.38l2.38-1.37Z"/><path d="M229.48,88.7l-2.38,1.37v2.38l2.38-1.37Z"/><path d="M227.1,90.07l-2.38,1.38v2.38l2.38-1.38Z"/><path d="M224.72,91.45l-2.38,1.37V95.2l2.38-1.37Z"/><path d="M222.34,92.82,220,94.2v2.38l2.38-1.38Z"/><path d="M220,94.2l-2.38,1.37V98L220,96.58Z"/><path d="M217.58,95.57l-2.38,1.37v2.38L217.58,98Z"/><path d="M215.2,96.94l-2.38,1.38v2.38l2.38-1.38Z"/><path d="M212.82,98.32l-2.38,1.37v2.38l2.38-1.37Z"/><path d="M210.44,99.69l-2.38,1.38v2.38l2.38-1.38Z"/><path d="M208.06,101.07l-2.38,1.37v2.38l2.38-1.37Z"/><path d="M205.68,102.44l-2.38,1.37v2.38l2.38-1.37Z"/><path d="M203.3,103.81l-2.38,1.38v2.38l2.38-1.38Z"/><path d="M200.92,105.19l-2.38,1.37v2.38l2.38-1.37Z"/><path d="M198.54,106.56l-2.38,1.38v2.38l2.38-1.38Z"/><path d="M196.16,107.94l-2.38,1.37v2.38l2.38-1.37Z"/><path d="M193.78,109.31l-2.38,1.38v2.38l2.38-1.38Z"/><path d="M191.4,110.69,189,112.06v2.38l2.38-1.37Z"/><path d="M189,112.06l-2.38,1.37v2.38l2.38-1.37Z"/><path d="M267.56,69.09l-2.38,1.38v2.38l2.38-1.38Z"/><path d="M265.18,70.47l-2.38,1.37v2.38l2.38-1.37Z"/><path d="M262.8,71.84l-2.38,1.38V75.6l2.38-1.38Z"/><path d="M260.42,73.22,258,74.59V77l2.38-1.37Z"/><path d="M258,74.59,255.66,76v2.39L258,77Z"/><path d="M255.66,76l-2.38,1.38v2.38l2.38-1.37Z"/><path d="M253.28,77.34l-2.38,1.37v2.38l2.38-1.37Z"/><path d="M250.9,78.71l-2.38,1.38v2.38l2.38-1.38Z"/><path d="M248.52,80.09l-2.38,1.37v2.38l2.38-1.37Z"/><path d="M246.14,81.46l-2.38,1.38v2.38l2.38-1.38Z"/><path d="M243.76,82.84l-2.38,1.37v2.38l2.38-1.37Z"/><path d="M241.38,84.21,239,85.58V88l2.38-1.37Z"/><path d="M239,85.58,236.62,87v2.38L239,88Z"/><path d="M236.62,87l-2.38,1.37v2.38l2.38-1.37Z"/><path d="M234.24,88.33l-2.38,1.38v2.38l2.38-1.38Z"/><path d="M231.86,89.71l-2.38,1.37v2.38l2.38-1.37Z"/><path d="M229.48,91.08l-2.38,1.37v2.38l2.38-1.37Z"/><path d="M227.1,92.45l-2.38,1.38v2.38l2.38-1.38Z"/><path d="M224.72,93.83l-2.38,1.37v2.38l2.38-1.37Z"/><path d="M222.34,95.2,220,96.58V99l2.38-1.38Z"/><path d="M220,96.58,217.58,98v2.38L220,99Z"/><path d="M217.58,98l-2.38,1.37v2.38l2.38-1.37Z"/><path d="M215.2,99.32l-2.38,1.38v2.38l2.38-1.38Z"/><path d="M212.82,100.7l-2.38,1.37v2.38l2.38-1.37Z"/><path d="M210.44,102.07l-2.38,1.38v2.38l2.38-1.38Z"/><path d="M208.06,103.45l-2.38,1.37v2.38l2.38-1.37Z"/><path d="M205.68,104.82l-2.38,1.37v2.38l2.38-1.37Z"/><path d="M203.3,106.19l-2.38,1.38V110l2.38-1.38Z"/><path d="M200.92,107.57l-2.38,1.37v2.38l2.38-1.37Z"/><path d="M198.54,108.94l-2.38,1.38v2.38l2.38-1.38Z"/><path d="M196.16,110.32l-2.38,1.37v2.38l2.38-1.37Z"/><path d="M193.78,111.69l-2.38,1.38v2.38l2.38-1.38Z"/><path d="M191.4,113.07,189,114.44v2.38l2.38-1.37Z"/><path d="M189,114.44l-2.38,1.37v2.38l2.38-1.37Z"/><path d="M224.72,53.37l-2.38,1.37v2.38l2.38-1.37Z"/><path d="M222.34,52.36,220,53.74v2.38l2.38-1.38Z"/><path d="M217.64,50.31l-2.38,1.37v2.38l2.38-1.37Z"/><path d="M196.2,77l-2.38,1.38v2.38l2.38-1.38Z"/></g></g></svg>